<?xml version="1.0" encoding="UTF-8"?>
<svg width="82px" height="78px" viewBox="0 0 82 78" version="1.1" xmlns="http://www.w3.org/2000/svg" xmlns:xlink="http://www.w3.org/1999/xlink">
    <!-- Generator: Sketch 51.2 (57519) - http://www.bohemiancoding.com/sketch -->
    <title>toothache-2</title>
    <desc>Created with Sketch.</desc>
    <defs></defs>
    <g id="Page-1-Copy" stroke="none" stroke-width="1" fill="none" fill-rule="evenodd">
        <g id="Главная" transform="translate(-344.000000, -773.000000)" fill="#73C7FF" fill-rule="nonzero">
            <g id="popular-services" transform="translate(134.000000, 689.000000)">
                <g id="toothache-2" transform="translate(210.000000, 84.000000)">
                    <path d="M1.76387703,52.7922192 L14.1801879,49.2539522 C16.8951751,48.4772594 19.8003843,49.6854482 21.1492314,52.170865 L22.2732707,72.3648767 C22.4634927,75.6615059 25.2822374,78.1641826 28.5851836,77.9915842 C31.4039283,77.8362457 33.7384714,75.7132855 34.1535013,72.9171915 L37.0932963,53.3100144 C37.3699829,51.4286919 39.116567,50.1514638 41.0014944,50.4276212 C42.4886849,50.6519991 43.6646029,51.8256682 43.8894108,53.3100144 L46.8292058,72.9171915 C47.3134073,76.1793011 50.3569599,78.4230802 53.6253202,77.9225449 C56.426772,77.5083087 58.5365073,75.1782304 58.7094364,72.3648767 L59.8334757,52.170865 C61.1996157,49.702708 64.087532,48.4945193 66.8025192,49.2539522 L79.236123,52.7922192 L81,50.4276212 L67.5807003,46.595937 C65.6266012,46.0436221 63.5341588,46.1817008 61.6492314,46.9756534 C62.721392,43.5582053 63.4476943,40.0371981 63.7935525,36.4816713 L61.0439795,36.2227737 C60.6462425,40.4859539 59.6778395,44.662835 58.1733561,48.6671176 L57.1876601,51.2733533 C57.1357814,51.4114321 57.1184885,51.5495108 57.1011956,51.6875895 L55.9598634,72.2095381 C55.8561059,73.9700417 54.3516225,75.333569 52.5704526,75.23001 C51.0486763,75.1437108 49.8035867,74.0045614 49.5787788,72.5029554 L46.6389838,52.8957782 C46.1201964,49.5128498 42.9728864,47.1827715 39.5834757,47.7005667 C36.8857814,48.097543 34.7760461,50.2205032 34.3783091,52.8957782 L31.4385141,72.5029554 C31.1791204,74.2461991 29.5362938,75.4543879 27.7897096,75.1954903 C26.2852263,74.9711124 25.1438941,73.728404 25.0574295,72.2095381 L23.9160974,51.6703296 C23.9160974,51.5322509 23.8815115,51.3941722 23.8296328,51.2560935 L22.8439368,48.6498578 C20.7860803,43.2475282 19.7485056,37.4827419 19.7485056,31.683436 C19.7485056,26.747122 23.7604611,22.7600992 28.706234,22.7600992 C29.9167378,22.7600992 31.1099488,23.001737 32.2166951,23.4850125 C37.5083262,25.7287915 43.4916738,25.7287915 48.766012,23.4850125 C52.0343723,22.1214852 55.8042272,22.7773591 58.398164,25.1764767 L60.2830914,23.1570755 C56.8936806,19.9812651 51.9306149,19.1182732 47.6592656,20.9478161 C43.059351,22.8981779 37.8714774,22.8981779 33.2715628,20.9478161 C27.322801,18.4106198 20.440222,21.1549342 17.898164,27.0923188 C17.2756191,28.5421453 16.9470538,30.1127907 16.9470538,31.7006959 C16.9470538,36.8959074 17.7425278,42.0565993 19.2988898,46.9929133 C17.4312553,46.1817008 15.338813,46.0436221 13.3847139,46.6131968 L0,50.4276212" id="Shape"></path>
                    <path d="M80.6241343,14.8188388 L74.7259345,14.8188388 L81.8208705,1.99872621 C82.1798913,1.34257872 81.9405441,0.535012572 81.2737911,0.164878088 C80.8292891,-0.0706620378 80.2993059,-0.0538377431 79.8719001,0.215350972 L56.6210256,15.0207303 C56.1081387,15.3403919 55.8858877,15.9628908 56.05685,16.5349169 C56.2278123,17.1069429 56.7577955,17.4939017 57.3732598,17.4939017 L64.6562543,17.4939017 L56.1765236,33.0227257 C55.8175027,33.6788732 56.0739462,34.4864393 56.7406992,34.8397495 C57.2193937,35.0921139 57.7835693,35.041641 58.2109751,34.7219794 L81.4618496,17.2247129 C82.0602177,16.770457 82.1798913,15.9292422 81.7182931,15.3403919 C81.4447534,15.0207303 81.0515401,14.8188388 80.6241343,14.8188388 Z M61.5960289,28.7998277 L68.1609817,16.8041056 C68.5200026,16.1479581 68.2635591,15.3403919 67.5968061,14.9870817 C67.3916513,14.886136 67.1694003,14.8188388 66.9471493,14.8188388 L62.0063385,14.8188388 L76.8458672,5.38040945 L71.2212071,15.5254592 C70.8621862,16.1816067 71.1186297,16.9891728 71.7682865,17.342483 C71.9734413,17.4434288 72.1956923,17.5107259 72.4179433,17.5107259 L76.5894237,17.5107259 L61.5960289,28.7998277 Z" id="Shape"></path>
                    <path d="M27.4444444,25 C24.1583333,26.6181818 22.0777778,29.7818182 22,33.2545455 L22,35 L25.1111111,35 L25.1111111,33.2545455 C25.2083333,30.8363636 26.6861111,28.6363636 29,27.5272727 L27.4444444,25 Z" id="Shape"></path>
                </g>
            </g>
        </g>
    </g>
</svg>