<?xml version="1.0" encoding="UTF-8"?>
<svg width="48px" height="80px" viewBox="0 0 48 80" version="1.1" xmlns="http://www.w3.org/2000/svg" xmlns:xlink="http://www.w3.org/1999/xlink">
    <!-- Generator: Sketch 51.2 (57519) - http://www.bohemiancoding.com/sketch -->
    <title>dental-implant</title>
    <desc>Created with Sketch.</desc>
    <defs></defs>
    <g id="Page-1-Copy" stroke="none" stroke-width="1" fill="none" fill-rule="evenodd">
        <g id="Главная" transform="translate(-696.000000, -776.000000)" fill="#73C7FF" fill-rule="nonzero">
            <g id="popular-services" transform="translate(134.000000, 689.000000)">
                <g id="dental-implant" transform="translate(562.000000, 87.000000)">
                    <path d="M35.6,6.07710874e-06 C33.9211667,-0.00166058918 32.2596667,0.339506 30.7173333,1.00267251 C26.4235,2.83333876 21.5686667,2.83333876 17.2746667,1.00267251 C10.9776667,-1.68949354 3.6905,1.23267246 0.998333333,7.52967102 C0.340166667,9.069004 0.000666666667,10.725837 0,12.4000032 C0.006,17.5665021 1.19933333,22.6626676 3.488,27.2946665 L5.388,33.7159984 C5.55716667,34.2806649 6.07716667,34.6673315 6.66666667,34.6666648 L10.6666667,34.6666648 L10.6666667,41.33333 C10.6666667,42.0696631 11.2636667,42.666663 12,42.666663 L16,42.666663 L16,45.769329 L12.1466667,45.3413291 L11.8533333,47.9919951 L16,48.4533283 L16,53.7693271 L12.1466667,53.3413272 L11.8533333,55.9919933 L16,56.4533265 L16,61.7693253 L12.1466667,61.3413254 L11.8533333,63.9919915 L16,64.4533247 L16,69.7693235 L12.1466667,69.3413236 L11.8533333,71.9919896 L16.0893333,72.4626562 C16.0893333,72.4733229 16.0893333,72.4839895 16.0893333,72.4946562 L18.756,79.1613213 C18.9591667,79.6698212 19.4525,80.0023211 20,79.9999878 L28,79.9999878 C28.5456667,80.0001545 29.0363333,79.6679879 29.2386667,79.1613213 L31.2386667,74.1466558 L35.848,74.6586557 L36.1413333,72.0079896 L32,71.5466564 L32,66.2306576 L35.8533333,66.6586575 L36.1466667,64.0079915 L32,63.5466582 L32,58.2306594 L35.8533333,58.6586593 L36.1466667,56.0079933 L32,55.5466601 L32,50.2306613 L35.8533333,50.6586612 L36.1466667,48.0079951 L32,47.5466619 L32,42.666663 L36,42.666663 C36.7363333,42.666663 37.3333333,42.0696631 37.3333333,41.33333 L37.3333333,34.6666648 L41.3333333,34.6666648 C41.924,34.6668315 42.4443333,34.2783316 42.612,33.7119984 L44.512,27.2906665 C46.8,22.6598342 47.9935,17.5651687 48,12.4000032 C47.9948333,5.55383814 42.4461667,0.00517274259 35.6,6.07710874e-06 Z M27.0933333,77.3333217 L20.9026667,77.3333217 L19.088,72.7999894 L28.4946667,73.8453225 L27.0933333,77.3333217 Z M29.3333333,71.2506565 L18.6666667,70.0653234 L18.6666667,64.7493246 L29.3333333,65.9346577 L29.3333333,71.2506565 Z M29.3333333,63.2506583 L18.6666667,62.0653252 L18.6666667,56.7493264 L29.3333333,57.9346595 L29.3333333,63.2506583 Z M29.3333333,55.2506601 L18.6666667,54.0653271 L18.6666667,48.7493283 L29.3333333,49.9346613 L29.3333333,55.2506601 Z M29.3333333,47.2506619 L18.6666667,46.0653289 L18.6666667,42.666663 L29.3333333,42.666663 L29.3333333,47.2506619 Z M34.6666667,39.9999969 L13.3333333,39.9999969 L13.3333333,34.6666648 L34.6666667,34.6666648 L34.6666667,39.9999969 Z M42.0733333,26.2040001 C42.0386667,26.2738334 42.0101667,26.3465001 41.988,26.4213334 L40.3373333,31.9999988 L7.66266667,31.9999988 L6.012,26.4213334 C5.98983333,26.3465001 5.96133333,26.2738334 5.92666667,26.2040001 C3.7885,21.9161677 2.67266667,17.1913355 2.66666667,12.4000032 C2.668,7.02450447 7.02666667,2.66767213 12.4023333,2.66900547 C13.7175,2.6693388 15.0188333,2.93617207 16.228,3.45333862 C21.1925,5.57067147 26.8061667,5.57067147 31.7706667,3.45333862 C36.7126667,1.33850577 42.4335,3.63033858 44.5483333,8.57233745 C45.066,9.78200384 45.333,11.0841702 45.3333333,12.4000032 C45.3273333,17.1913355 44.2115,21.9161677 42.0733333,26.2040001 Z" id="Shape"></path>
                    <path d="M9.66666667,6 C6.85533333,7.46390871 5.07,10.3080227 5,13.4340419 L5,15 L7.66666667,15 L7.66666667,13.4274898 C7.746,11.2417006 9.02083333,9.26852796 11,8.26834595 L9.66666667,6 Z" id="Shape"></path>
                </g>
            </g>
        </g>
    </g>
</svg>