<?xml version="1.0" encoding="UTF-8"?>
<svg width="19px" height="25px" viewBox="0 0 19 25" version="1.1" xmlns="http://www.w3.org/2000/svg" xmlns:xlink="http://www.w3.org/1999/xlink">
    <!-- Generator: Sketch 51.2 (57519) - http://www.bohemiancoding.com/sketch -->
    <title>quality-badge</title>
    <desc>Created with Sketch.</desc>
    <defs></defs>
    <g id="Page-1" stroke="none" stroke-width="1" fill="none" fill-rule="evenodd">
        <g id="Врачи" transform="translate(-539.000000, -1631.000000)" fill="#7B7B7B" fill-rule="nonzero">
            <g id="5" transform="translate(539.000000, 1064.000000)">
                <g id="doc-links" transform="translate(0.750000, 567.000000)">
                    <g id="quality-badge" transform="translate(9.000000, 12.660692) scale(-1, 1) translate(-9.000000, -12.660692) translate(0.000000, 0.160692)">
                        <path d="M17.8882185,8.71352421 L16.5848288,7.00217796 L16.8632312,4.86497227 C16.8951416,4.62035399 16.7595765,4.38462595 16.5327301,4.29026929 L14.5513521,3.46582113 L13.7310692,1.47451375 C13.6372373,1.2465306 13.4029018,1.11044975 13.1592319,1.14235648 L11.0326288,1.42215399 L9.32987014,0.112287156 C9.13515131,-0.037429052 8.86488939,-0.037429052 8.67017056,0.112287156 L6.96735767,1.42220853 L4.84080883,1.14241102 C4.59746456,1.11044975 4.36285768,1.24658514 4.26897151,1.47456829 L3.44863433,3.46587567 L1.46725629,4.29026929 C1.24040995,4.38468049 1.10484483,4.62035399 1.13675527,4.86502681 L1.41515761,7.00228704 L0.111767956,8.71352421 C-0.0372559853,8.90916429 -0.0372559853,9.18088967 0.111767956,9.37652975 L1.41515761,11.087876 L1.13675527,13.2250817 C1.10484483,13.4697 1.24040995,13.705428 1.46725629,13.7997847 L3.44863433,14.6241783 L4.26891724,16.6155402 C4.34158405,16.7920908 4.4985856,16.9132818 4.67886875,16.9442068 L4.67886875,24.1883442 C4.67886875,24.3872567 4.78659363,24.5704068 4.9600931,24.6662907 C5.13342976,24.7621199 5.34513493,24.7554659 5.51228487,24.6489465 L9.00007462,22.4256199 L12.4878644,24.6489465 C12.5764321,24.7053969 12.6773733,24.7338129 12.7785316,24.7338129 C12.8684018,24.7338129 12.9584349,24.7113964 13.0400019,24.6663452 C13.2134471,24.5704614 13.3212262,24.3873113 13.3212262,24.1883987 L13.3212262,16.9441523 C13.5011837,16.9130637 13.6584566,16.7919817 13.7311235,16.6155947 L14.5514606,14.6242874 L16.5328387,13.7998938 C16.759685,13.7054825 16.8952501,13.4698091 16.8633397,13.2251362 L16.5849374,11.087876 L17.888327,9.37652975 C18.0372424,9.18094421 18.0372424,8.90916429 17.8882185,8.71352421 Z M9.29068758,21.3192471 C9.11322645,21.2061282 8.88675998,21.2061282 8.70929884,21.3192471 L5.76420371,23.1966175 L5.76420371,16.8262337 L6.9673034,16.6679545 L8.67011629,17.9778759 C8.76747571,18.0527613 8.88372089,18.0901767 8.99996608,18.0901767 C9.11621127,18.0901767 9.23245645,18.0527067 9.32981587,17.9778759 L11.0326288,16.6679545 L12.2357284,16.8262883 L12.2357284,23.1966175 L9.29068758,21.3192471 Z M15.5867592,10.6038209 C15.4994939,10.7184124 15.4609625,10.8630563 15.479577,11.0061184 L15.7330154,12.9519928 L13.928393,13.7028646 C13.7953785,13.7582241 13.6896616,13.8644163 13.6345781,13.9981518 L12.8873961,15.8118178 L10.9512246,15.5570548 C10.80893,15.5384016 10.6649532,15.5770715 10.550933,15.6647741 L8.99996608,16.8578678 L7.44899914,15.6647741 C7.35381051,15.591525 7.23772813,15.5524733 7.11914935,15.5524733 C7.09570495,15.5524733 7.07220627,15.5540005 7.04870759,15.5570548 L5.11248175,15.8118178 L4.36535407,13.9980973 C4.31027057,13.8643617 4.20455366,13.7581696 4.07153921,13.7027555 L2.26691681,12.9518837 L2.52035519,11.0060639 C2.53902389,10.8630017 2.50049257,10.7183579 2.41317301,10.6037663 L1.22602854,9.04497244 L2.41317301,7.48623309 C2.5004383,7.37164156 2.53896962,7.2269977 2.52035519,7.08393555 L2.26691681,5.13806118 L4.07159348,4.38729848 C4.20460793,4.33193894 4.31032484,4.22574679 4.36540834,4.09201122 L5.11259029,2.27834525 L7.04876186,2.53310824 C7.19116493,2.55187049 7.33503327,2.51309154 7.44905341,2.42538893 L9.00002035,1.23229529 L10.5509873,2.42538893 C10.6650074,2.51309154 10.8090386,2.55187049 10.9512788,2.53310824 L12.8875047,2.27834525 L13.6346324,4.09201122 C13.6897159,4.22574679 13.7953785,4.33193894 13.9284472,4.38729848 L15.7330696,5.1382248 L15.4796312,7.08404463 C15.4609625,7.22710679 15.4994939,7.37175064 15.5868134,7.48634217 L16.7739579,9.04508152 L15.5867592,10.6038209 Z" id="Shape"></path>
                        <path d="M10.5167404,4.02930636 C10.2550652,3.93593689 9.96754429,4.07306384 9.87441929,4.33560869 C9.78134457,4.59820401 9.91796478,4.88684184 10.1795897,4.98026178 C11.9059723,5.59675261 13.0658612,7.24742387 13.0658612,9.08766038 C13.0658612,11.4908391 11.1179799,13.4459453 8.72368193,13.4459453 C6.32938393,13.4459453 4.38150263,11.4908391 4.38150263,9.08766038 C4.38150263,8.23279981 4.62784138,7.40534444 5.09391892,6.69467662 C5.24662983,6.46185859 5.18236755,6.14889422 4.95040988,5.99561689 C4.71850248,5.84239002 4.40664436,5.90678972 4.25393345,6.13965822 C3.67944473,7.01556477 3.3758331,8.03495748 3.3758331,9.08766038 C3.3758331,12.047422 5.77485775,14.4553449 8.72368193,14.4553449 C11.6725061,14.4553449 14.0715308,12.047422 14.0715308,9.08766038 C14.0715308,6.82145721 12.6429772,4.78862725 10.5167404,4.02930636 Z" id="Shape"></path>
                    </g>
                </g>
            </g>
        </g>
    </g>
</svg>