<?xml version="1.0" encoding="UTF-8"?>
<svg width="142px" height="78px" viewBox="0 0 142 78" version="1.1" xmlns="http://www.w3.org/2000/svg" xmlns:xlink="http://www.w3.org/1999/xlink">
    <!-- Generator: Sketch 51.2 (57519) - http://www.bohemiancoding.com/sketch -->
    <title>dental-metal</title>
    <desc>Created with Sketch.</desc>
    <defs></defs>
    <g id="Page-1" stroke="none" stroke-width="1" fill="none" fill-rule="evenodd">
        <g id="Услуги" transform="translate(-457.000000, -313.000000)" fill="#73C7FF" fill-rule="nonzero">
            <g id="services" transform="translate(0.000000, 145.000000)">
                <g id="dental-metal" transform="translate(457.000000, 168.000000)">
                    <path d="M142,23.6369337 L142,18.9097105 L136.9448,18.9097105 C137.141233,16.7470059 137.266667,14.5748469 137.266667,12.3908698 C137.265779,5.54673703 131.709437,-0.000659345819 124.856458,0.000227008523 C121.566496,0.000817911418 118.411433,1.30582695 116.085,3.62896168 C114.710854,4.99572008 112.489146,4.99572008 111.115,3.62896168 C106.293213,-1.19930587 98.4651667,-1.20964667 93.6303625,3.60591647 C93.1440125,4.09016139 92.6990792,4.61429226 92.3,5.17240005 C88.3316917,-0.37706449 80.6101458,-1.66286919 75.0535083,2.30031653 C74.4946792,2.69888053 73.9698708,3.1432395 73.485,3.62896168 C72.1108542,4.99572008 69.8891458,4.99572008 68.515,3.62896168 C63.6932125,-1.19930587 55.8651667,-1.20964667 51.0303625,3.60591647 C50.5440125,4.09016139 50.0990792,4.61429226 49.7,5.17240005 C45.7316917,-0.37706449 38.0101458,-1.66286919 32.4535083,2.30031653 C31.8946792,2.69888053 31.3698708,3.1432395 30.885,3.62896168 C29.5108542,4.99572008 27.2891458,4.99572008 25.915,3.62896168 C21.0686583,-1.21023757 13.2122125,-1.20935122 8.36675833,3.63073439 C6.04062083,5.95416457 4.73362917,9.10515426 4.73333333,12.3908698 C4.73333333,14.5748469 4.85876667,16.7470059 5.0552,18.9097105 L0,18.9097105 L0,23.6369337 L5.6303,23.6369337 C6.15067083,26.808605 6.88374583,29.9418676 7.8242,33.0157444 C7.58753333,32.9921083 7.35086667,32.9259272 7.1,32.9259272 C4.40673333,32.9241545 1.89096667,34.2681631 0.3976,36.5067987 C0.139041667,36.8956128 0.0008875,37.3517899 3.28440978e-16,37.8186032 L3.28440978e-16,75.6363884 C3.28440978e-16,76.9416929 1.059675,78 2.36666667,78 L139.633333,78 C140.940325,78 142,76.9416929 142,75.6363884 L142,37.8186032 C141.999112,37.3517899 141.860958,36.8956128 141.6024,36.5067987 C140.109033,34.2681631 137.593267,32.9241545 134.9,32.9259272 C134.663333,32.9259272 134.426667,32.9921083 134.1758,33.0157444 C135.116254,29.9418676 135.849329,26.808605 136.3697,23.6369337 L142,23.6369337 Z M102.341767,4.72804107 C104.378283,4.72301839 106.332262,5.53137355 107.768533,6.97347207 C110.991933,10.1829611 116.208067,10.1829611 119.431467,6.97347207 C122.42885,3.98025346 127.288504,3.98054891 130.285592,6.97406297 C131.723933,8.41084336 132.532446,10.3590502 132.533333,12.3908698 C132.533333,14.5748469 132.391333,16.7470059 132.1807,18.9097105 L120.7,18.9097105 L120.7,16.546099 C120.7,15.2407945 119.640325,14.1824874 118.333333,14.1824874 L108.866667,14.1824874 C107.559675,14.1824874 106.5,15.2407945 106.5,16.546099 L106.5,18.9097105 L95.0193,18.9097105 C94.8086667,16.7470059 94.6666667,14.5748469 94.6666667,12.3908698 C94.6719917,8.16030053 98.1054333,4.73217739 102.341767,4.72804107 Z M108.866667,28.3641569 L118.333333,28.3641569 C119.640325,28.3641569 120.7,27.3058498 120.7,26.0005453 L120.7,23.6369337 L131.563,23.6369337 C130.995296,27.0041938 130.169921,30.3229999 129.094567,33.5641023 L127.911233,37.0787927 C127.852067,37.2572454 127.813904,37.442198 127.797633,37.6295142 L125.724433,62.4899808 C125.651362,63.3024723 124.932783,63.9022387 124.118946,63.8292622 C123.406579,63.7654447 122.841833,63.2014279 122.777933,62.4899808 L121.0479,40.0167619 C120.73905,35.8966915 117.144083,32.8068603 113.018983,33.115607 C109.338521,33.3909678 106.407404,36.3026418 106.111867,39.9765805 C105.6196,45.9659723 104.7392,56.8574944 104.365267,62.4852536 C104.3132,63.2876997 103.619471,63.8960343 102.815987,63.8440348 C102.090604,63.797058 101.510475,63.2235868 101.456337,62.4994353 L99.3997042,37.6224234 C99.3834333,37.4351072 99.3452708,37.2501546 99.2861042,37.0717019 L98.1027708,33.5570115 C97.0286,30.3179773 96.2041125,27.0015348 95.6367042,23.6369337 L106.5,23.6369337 L106.5,26.0005453 C106.5,27.3061452 107.559675,28.3641569 108.866667,28.3641569 Z M111.233333,23.6369337 L111.233333,18.9097105 L115.966667,18.9097105 L115.966667,23.6369337 L111.233333,23.6369337 Z M90.9841333,35.0531776 C91.4858667,33.5546479 91.9000333,32.0372092 92.3,30.5126798 C92.6999667,32.0372092 93.1141333,33.5641023 93.6158667,35.0531776 L93.7981,35.6015355 C92.8061708,35.4384463 91.7938292,35.4384463 90.8019,35.6015355 L90.9841333,35.0531776 Z M59.7417667,4.72804107 C61.7782833,4.72301839 63.7322625,5.53137355 65.1685333,6.97347207 C68.3919333,10.1829611 73.6080667,10.1829611 76.8314667,6.97347207 C79.82885,3.98025346 84.6885042,3.98054891 87.6855917,6.97406297 C89.1239333,8.41084336 89.9324458,10.3590502 89.9333333,12.3908698 C89.9333333,14.5748469 89.7913333,16.7470059 89.5807,18.9097105 L78.1,18.9097105 L78.1,16.546099 C78.1,15.2407945 77.040325,14.1824874 75.7333333,14.1824874 L66.2666667,14.1824874 C64.959675,14.1824874 63.9,15.2407945 63.9,16.546099 L63.9,18.9097105 L52.4193,18.9097105 C52.2086667,16.7470059 52.0666667,14.5748469 52.0666667,12.3908698 C52.0719917,8.16030053 55.5054333,4.73217739 59.7417667,4.72804107 Z M66.2666667,28.3641569 L75.7333333,28.3641569 C77.040325,28.3641569 78.1,27.3058498 78.1,26.0005453 L78.1,23.6369337 L88.963,23.6369337 C88.3952958,27.0041938 87.5699208,30.3229999 86.4945667,33.5641023 L85.3112333,37.0787927 C85.2520667,37.2572454 85.2139042,37.442198 85.1976333,37.6295142 L83.1244333,62.4899808 C83.0513625,63.3024723 82.3327833,63.9022387 81.5189458,63.8292622 C80.8065792,63.7654447 80.2418333,63.2014279 80.1779333,62.4899808 L78.4479,40.0167619 C78.13905,35.8966915 74.5440833,32.8068603 70.4189833,33.115607 C66.7385208,33.3909678 63.8074042,36.3026418 63.5118667,39.9765805 C63.0196,45.9659723 62.1392,56.8574944 61.7652667,62.4852536 C61.7132,63.2876997 61.0194708,63.8960343 60.2159875,63.8440348 C59.4906042,63.797058 58.910475,63.2235868 58.8566333,62.4994353 L56.8,37.6224234 C56.7837292,37.4351072 56.7455667,37.2501546 56.6864,37.0717019 L55.5054333,33.5641023 C54.4300792,30.3229999 53.6047042,27.0041938 53.037,23.6369337 L63.9,23.6369337 L63.9,26.0005453 C63.9,27.3061452 64.959675,28.3641569 66.2666667,28.3641569 Z M68.6333333,23.6369337 L68.6333333,18.9097105 L73.3666667,18.9097105 L73.3666667,23.6369337 L68.6333333,23.6369337 Z M48.3841333,35.0531776 C48.8858667,33.5641023 49.3000333,32.0372092 49.7,30.5126798 C50.0999667,32.0372092 50.5141333,33.5546479 51.0158667,35.0531776 L51.3377333,36.0222584 C50.2549833,35.823715 49.1450167,35.823715 48.0622667,36.0222584 L48.3841333,35.0531776 Z M17.144725,4.72892742 C19.1791708,4.72981378 21.1298958,5.53698713 22.5685333,6.97376752 C25.7919333,10.1832566 31.0080667,10.1832566 34.2314667,6.97376752 C37.22885,3.98054891 42.0885042,3.98084436 45.0855917,6.97435842 C46.5239333,8.41113881 47.3324458,10.3593457 47.3333333,12.3911653 C47.3333333,14.5751424 47.1913333,16.7473014 46.9807,18.910006 L35.5,18.910006 L35.5,16.5463944 C35.5,15.2410899 34.440325,14.1827828 33.1333333,14.1827828 L23.6666667,14.1827828 C22.359675,14.1827828 21.3,15.2410899 21.3,16.5463944 L21.3,18.910006 L9.8193,18.910006 C9.60866667,16.7470059 9.46666667,14.5748469 9.46666667,12.3908698 C9.46844167,8.15764147 12.906025,4.72715471 17.144725,4.72892742 Z M23.6666667,28.3641569 L33.1333333,28.3641569 C34.440325,28.3641569 35.5,27.3058498 35.5,26.0005453 L35.5,23.6369337 L46.363,23.6369337 C45.7952958,27.0041938 44.9699208,30.3229999 43.8945667,33.5641023 L42.7112333,37.0787927 C42.6520667,37.2572454 42.6139042,37.442198 42.5976333,37.6295142 L40.5244333,62.4899808 C40.4513625,63.3024723 39.7327833,63.9022387 38.9189458,63.8292622 C38.2062833,63.7654447 37.6418333,63.2014279 37.5779333,62.4899808 L35.8479,40.0167619 C35.53905,35.8966915 31.9440833,32.8068603 27.8189833,33.115607 C24.1385208,33.3909678 21.2074042,36.3026418 20.9118667,39.9765805 C20.4196,45.9659723 19.5392,56.8574944 19.1652667,62.4852536 C19.1132,63.2876997 18.4194708,63.8960343 17.6159875,63.8440348 C16.8906042,63.797058 16.310475,63.2235868 16.2566333,62.4994353 L14.2,37.6224234 C14.1837292,37.4351072 14.1455667,37.2501546 14.0864,37.0717019 L12.9030667,33.5570115 C11.8288958,30.3179773 11.0044083,27.0015348 10.437,23.6369337 L21.3,23.6369337 L21.3,26.0005453 C21.3,27.3061452 22.359675,28.3641569 23.6666667,28.3641569 Z M26.0333333,23.6369337 L26.0333333,18.9097105 L30.7666667,18.9097105 L30.7666667,23.6369337 L26.0333333,23.6369337 Z M137.266667,38.6387764 L137.266667,73.2727768 L4.73333333,73.2727768 L4.73333333,38.6387764 C6.09505417,37.3579944 8.23452083,37.4076302 9.5353,38.7498661 L11.5493333,62.8728859 C11.83215,66.2761911 14.8242083,68.8058464 18.2316167,68.5230994 C21.2813625,68.2701929 23.6885583,65.829764 23.8962333,62.780705 C24.2701667,57.1836728 25.1482,46.3228776 25.6381,40.3429403 C25.76945,38.8263881 27.1066167,37.7033771 28.6251292,37.8345575 C29.9685083,37.95067 31.0314375,39.0193178 31.1382333,40.3618492 L32.8682667,62.8350681 C33.1416167,66.2507823 36.13545,68.7987556 39.555875,68.5257584 C42.58225,68.2843746 44.9906292,65.8938769 45.2506667,62.8728859 L47.0327667,41.531837 C48.5962458,40.2980317 50.8037542,40.2980317 52.3672333,41.531837 L54.1493333,62.8728859 C54.43215,66.2761911 57.4239125,68.8058464 60.8316167,68.5230994 C63.8813625,68.2701929 66.2885583,65.829764 66.4962333,62.780705 C66.8701667,57.1836728 67.7482,46.3228776 68.2381,40.3429403 C68.36945,38.8263881 69.7066167,37.7033771 71.2251292,37.8345575 C72.5688042,37.95067 73.6314375,39.0193178 73.7382333,40.3618492 L75.4682667,62.8350681 C75.7416167,66.2507823 78.7357458,68.7987556 82.155875,68.5257584 C85.18225,68.2843746 87.5903333,65.8938769 87.8506667,62.8728859 L89.6682667,41.0945688 C91.2193208,39.9012404 93.3806792,39.9012404 94.9317333,41.0945688 L96.7493333,62.8728859 C97.03215,66.2761911 100.024208,68.8058464 103.431617,68.5230994 C106.481363,68.2701929 108.888558,65.829764 109.096233,62.780705 C109.470167,57.1836728 110.3482,46.3228776 110.8381,40.3429403 C110.96945,38.8263881 112.306617,37.7033771 113.825129,37.8345575 C115.168804,37.95067 116.231437,39.0193178 116.338233,40.3618492 L118.068267,62.8350681 C118.341617,66.2507823 121.335746,68.7987556 124.755875,68.5257584 C127.78225,68.2843746 130.190333,65.8938769 130.450667,62.8728859 L132.4647,38.7475025 C133.766367,37.4058575 135.905537,37.3574035 137.266667,38.6387764 Z" id="Shape"></path>
                </g>
            </g>
        </g>
    </g>
</svg>