<?xml version="1.0" encoding="UTF-8"?>
<svg width="131px" height="113px" viewBox="0 0 131 113" version="1.1" xmlns="http://www.w3.org/2000/svg" xmlns:xlink="http://www.w3.org/1999/xlink">
    <!-- Generator: Sketch 51.2 (57519) - http://www.bohemiancoding.com/sketch -->
    <title>dental-tooth-2</title>
    <desc>Created with Sketch.</desc>
    <defs></defs>
    <g id="Page-1" stroke="none" stroke-width="1" fill="none" fill-rule="evenodd">
        <g id="Услуги" transform="translate(-786.000000, -282.000000)" fill="#73C7FF" fill-rule="nonzero">
            <g id="services" transform="translate(0.000000, 145.000000)">
                <g id="dental-tooth-2" transform="translate(786.000000, 137.000000)">
                    <path d="M42.5824176,30 C37.8296703,33.2727273 35,38.8421053 35,44.784689 L35,48 L39.3956044,48 L39.3956044,44.784689 C39.3956044,40.3923445 41.510989,36.2583732 45,33.8181818 L42.5824176,30 Z" id="Shape"></path>
                    <path d="M112.271971,13.7948266 L91.083432,35.7156116 L85.2873535,29.9157692 L110.492509,3.99178059 L107.300466,0.825683049 L80.9192943,27.9544698 L54.5429369,36.7522984 C53.366921,37.1445583 52.7229123,38.4053936 53.1149176,39.5821732 C53.2269191,39.9183959 53.4229218,40.2266001 53.6469248,40.4507486 L80.527289,67.3485684 C81.3953008,68.2171439 82.8233201,68.2171439 83.6913319,67.3485684 C83.9433353,67.0964014 84.1113376,66.8162157 84.2233391,66.479993 L93.0154582,40.0865073 L115.464014,16.9609241 L112.271971,13.7948266 Z M81.1432974,61.6327817 L76.0472283,56.5334034 L83.9993361,44.6255144 L80.2752856,42.1318624 L72.8271847,53.3112687 L67.7311156,48.2118904 L78.903267,40.7589528 L76.4112332,37.032484 L64.4830716,44.9617372 L59.3870026,39.8623588 L81.5073023,32.4934769 L88.5073971,39.4981175 L81.1432974,61.6327817 Z" id="Shape"></path>
                    <path d="M131,68.7952427 L109.297182,62.6794814 C106.612297,61.9323069 103.759607,61.9876532 101.10269,62.8455201 C104.17912,55.8442187 105.773271,48.2617815 105.801238,40.6239981 C105.801238,39.5447461 105.717336,38.4654941 105.54953,37.4139153 L101.130658,38.1057435 C101.270495,38.9359373 101.32643,39.7938043 101.32643,40.6239981 C101.32643,48.5938591 99.4526046,56.4253544 95.8447908,63.5650215 L92.6005551,69.9851872 C92.4886849,70.2065723 92.4047822,70.4833036 92.3768147,70.7323617 L88.5452605,104.964021 C88.2935525,107.205545 86.2519214,108.838259 83.98655,108.589201 C82.1127242,108.395489 80.6304441,106.956487 80.3507686,105.13006 L75.4564475,72.7801732 C74.617421,67.3562401 69.5273271,63.6203677 64.0456874,64.4505616 C59.6827498,65.0870435 56.2707088,68.4908383 55.6274552,72.7801732 L50.677199,105.074714 C50.3415884,107.316237 48.2440222,108.838259 45.9786507,108.506182 C44.1327925,108.229451 42.6784799,106.762775 42.4827071,104.908675 L38.6511529,70.6770155 C38.6231853,70.4279573 38.5392827,70.151226 38.4274125,69.929841 L35.1831768,63.5096752 C31.5753629,56.3976813 29.7015371,48.566186 29.7015371,40.596325 C29.7015371,31.6579046 37.029035,24.4352181 46.0345858,24.4352181 C48.2440222,24.4352181 50.425491,24.8779881 52.4671221,25.7358551 C60.8014518,29.2503424 70.2265158,29.2503424 78.5328779,25.7358551 L76.7709223,21.6679053 C69.5552946,24.7119494 61.4167378,24.7119494 54.2011102,21.6679053 C43.6293766,17.1848585 31.4075576,22.0553291 26.8768147,32.4880984 C25.7581127,35.0340262 25.1987617,37.801339 25.1987617,40.596325 C25.2267293,48.2341084 26.8208796,55.8165456 29.89731,62.817847 C27.2403928,61.95998 24.3877028,61.9046338 21.6748506,62.6518082 L0,68.7952427 L1.5382152,73.0015582 L22.9333903,66.91347 C27.352263,65.6681792 32.0508113,67.6329713 34.2322801,71.6455749 L38.0358668,105.406791 C38.5672502,110.08355 42.8183177,113.459672 47.5448335,112.933882 C51.4323228,112.518785 54.5367208,109.557761 55.0960717,105.738869 L59.9903928,73.388982 C60.4378736,70.372611 63.2625961,68.3247995 66.3110589,68.7675696 C68.7162681,69.1273203 70.6180615,71.009093 70.9816396,73.388982 L75.8759607,105.738869 C76.5751494,110.387955 80.9660547,113.598037 85.6646029,112.906209 C89.5241247,112.325074 92.5166524,109.253356 92.9361657,105.434465 L96.7397523,71.6732481 C98.9212212,67.6606445 103.619769,65.6958524 108.038642,66.9411431 L129.40585,73.4443283 L131,68.7952427 Z" id="Shape"></path>
                </g>
            </g>
        </g>
    </g>
</svg>