<?xml version="1.0" encoding="UTF-8"?>
<svg width="25px" height="24px" viewBox="0 0 25 24" version="1.1" xmlns="http://www.w3.org/2000/svg" xmlns:xlink="http://www.w3.org/1999/xlink">
    <!-- Generator: Sketch 51.2 (57519) - http://www.bohemiancoding.com/sketch -->
    <title>tooth (1)</title>
    <desc>Created with Sketch.</desc>
    <defs></defs>
    <g id="Page-1" stroke="none" stroke-width="1" fill="none" fill-rule="evenodd">
        <g id="Врачи" transform="translate(-731.000000, -1632.000000)" fill="#7B7B7B" fill-rule="nonzero">
            <g id="5" transform="translate(539.000000, 1064.000000)">
                <g id="doc-links" transform="translate(0.750000, 567.000000)">
                    <g id="tooth-(1)" transform="translate(191.989939, 1.750922)">
                        <path d="M21.975165,2.19565958 C20.7412488,0.814182643 19.0430447,0.0534301885 17.1932507,0.0534301885 C15.7470736,0.0534301885 14.1873209,0.913860601 13.047652,1.54252662 C12.6327652,1.77154651 12.0654125,2.08465326 11.8977059,2.10526621 C11.7307585,2.08500362 11.1663255,1.77271438 10.7524313,1.54375289 C9.61568212,0.914794899 8.05884905,0.0534301885 6.60245306,0.0534301885 C4.75260067,0.0534301885 3.05433818,0.814182643 1.8203636,2.19565958 C0.646476084,3.50992543 0,5.23989567 0,7.06685775 C0,9.67676188 0.93721806,13.3882622 2.50701452,16.9954714 C3.20540255,18.6003625 3.94881209,19.9871532 4.65683508,21.0059472 C5.49957222,22.2185497 6.22277756,22.8079168 6.8678522,22.8079168 C7.15409786,22.8079168 7.67823925,22.6865164 7.97230967,21.8732097 C8.25808818,21.08291 8.51513702,20.1757647 8.78771857,19.2135542 C9.50911371,16.6672407 10.4068577,13.4981006 11.8522173,13.4981006 L11.9434865,13.4981006 C12.5861086,13.4981006 13.1613445,14.0485192 13.7020113,15.1808888 C14.2375978,16.3025724 14.6447767,17.7941214 15.039109,19.2383715 C15.2997199,20.193166 15.5459659,21.0948224 15.8225182,21.8710491 C16.1106325,22.679334 16.6288761,22.8002089 16.9124941,22.800384 C17.554357,22.8003256 18.2768617,22.2019075 19.121409,20.9709694 C19.8276218,19.941723 20.572608,18.5411513 21.2758427,16.9207276 C22.853639,13.2844967 23.7956454,9.60085013 23.7956454,7.06679936 C23.7956454,5.23983727 23.1491109,3.50986704 21.975165,2.19565958 Z M16.7471232,4.0691614 C16.7322913,4.06816871 15.2379978,3.99663649 13.8777177,3.63640607 C13.2643509,3.47401334 12.5391017,3.14770963 12.5391017,3.05089296 C12.5391017,2.95664561 13.3270656,2.49784671 13.5170786,2.39297172 C14.5637263,1.81557532 15.9969984,1.02480853 17.1932507,1.02480853 C20.7179497,1.02480853 22.824267,4.09683999 22.824267,7.06685775 C22.824267,9.43880776 21.8895015,13.0664548 20.3846388,16.5339864 C19.7156228,18.0758123 18.9824905,19.4564134 18.3204233,20.4213684 C17.5565176,21.5347601 17.0622154,21.8584361 16.9124941,21.8289473 C16.8205825,21.8107869 16.8091373,21.7456196 16.7376635,21.5448622 C16.4730819,20.8025621 16.2315073,19.91784 15.9758015,18.9811475 C15.5706664,17.4973648 15.1519256,15.9629549 14.5785583,14.7622063 C13.860258,13.2578692 12.9983094,12.5266055 11.9434865,12.5266055 L11.8522173,12.5266055 C10.8361094,12.5266055 9.99407296,13.2520298 9.27816683,14.7442795 C8.70672658,15.9353347 8.27274499,17.4672337 7.85312823,18.948739 C7.58568532,19.8926723 7.33313279,20.7844017 7.05885782,21.5428184 C6.99830361,21.710233 6.97961764,21.8195459 6.8678522,21.8364801 C6.78026172,21.8497938 6.40613362,21.8207722 5.45449232,20.4514995 C4.79195799,19.4982232 4.06151184,18.1331549 3.39769284,16.607796 C1.90106362,13.1687605 0.971378345,9.5129093 0.971378345,7.06679936 C0.971378345,4.0967816 3.07769564,1.02475014 6.60245306,1.02475014 C7.51864941,1.02475014 8.72266805,1.44220633 9.82315475,2.14147028 C9.9845548,2.24406792 10.2118229,2.41872332 10.4316166,2.58771454 C10.5193238,2.6551592 10.6057464,2.72155278 10.6862129,2.782107 C10.944196,2.97533158 11.2928061,3.2280009 11.7021456,3.46899148 C11.8766842,3.57199788 12.0938502,3.70023033 12.3245051,3.79809809 C13.2065411,4.17251816 14.1417738,4.36235591 15.1041595,4.36235591 C16.0847641,4.36235591 16.7443203,4.18793409 16.750802,4.18589031 C16.750802,4.18589031 16.8983628,4.14688335 16.8936913,4.10851872 C16.8890198,4.0701541 16.7471232,4.0691614 16.7471232,4.0691614 Z" id="Shape"></path>
                    </g>
                </g>
            </g>
        </g>
    </g>
</svg>