<?xml version="1.0" encoding="UTF-8"?>
<svg width="32px" height="32px" viewBox="0 0 32 32" version="1.1" xmlns="http://www.w3.org/2000/svg" xmlns:xlink="http://www.w3.org/1999/xlink">
    <!-- Generator: Sketch 51.2 (57519) - http://www.bohemiancoding.com/sketch -->
    <title>Combined Shape</title>
    <desc>Created with Sketch.</desc>
    <defs></defs>
    <g id="Layout.Desktop" stroke="none" stroke-width="1" fill="none" fill-rule="evenodd">
        <g id="Главная" transform="translate(-876.000000, -3756.000000)" fill="#46678E" fill-rule="nonzero">
            <g id="Contacts" transform="translate(90.000000, 3329.000000)">
                <path d="M802,427 C810.8,427 818,434.2 818,443 C818,451.8 810.8,459 802,459 C793.2,459 786,451.8 786,443 C786,434.2 793.2,427 802,427 Z M809.093608,443.7 C808.393608,443.1 808.393608,442.8 808.693608,442 C809.293608,441.2 809.793608,440.5 810.393608,439.7 C810.893608,439 811.393608,438.3 811.693608,437.4 C811.893608,436.8 811.793608,436.6 811.193608,436.5 C811.093608,436.5 810.993608,436.5 810.893608,436.5 L807.593608,436.5 C807.193608,436.5 806.893608,436.6 806.793608,437 C806.593608,437.5 806.393608,438 806.193608,438.5 C805.693608,439.6 805.093608,440.6 804.293608,441.5 C804.093608,441.7 803.893608,441.9 803.593608,441.8 C803.193608,441.6 803.093608,441 803.093608,440.8 L803.093608,436.9 C803.093608,436.4 802.893608,436.1 802.393608,436 L798.893608,436 C798.493608,436 798.193608,436.2 797.993608,436.5 C797.893608,436.6 797.793608,436.7 798.093608,436.8 C798.693608,436.9 798.993608,437.3 799.093608,437.9 C799.293608,438.8 799.293608,439.8 799.193608,440.7 C799.193608,441 799.093608,441.2 798.993608,441.5 C798.793608,441.9 798.593608,441.9 798.193608,441.7 C797.793608,441.5 797.593608,441.2 797.393608,440.9 C796.593608,439.7 795.893608,438.4 795.393608,437.1 C795.293608,436.7 794.993608,436.5 794.593608,436.5 C793.593608,436.5 792.593608,436.5 791.593608,436.5 C790.993608,436.6 790.893608,436.8 791.093608,437.4 C792.193608,439.9 793.393608,442.2 794.993608,444.4 C795.793608,445.5 796.693608,446.5 797.893608,447.2 C799.293608,447.9 800.793608,448.2 802.293608,448.1 C803.093608,448 803.293608,447.8 803.293608,447.1 C803.293608,446.6 803.393608,446.1 803.593608,445.7 C803.793608,445.3 804.193608,445.2 804.593608,445.5 C804.893608,445.6 804.993608,445.8 805.193608,446 C805.593608,446.4 805.993608,446.9 806.393608,447.3 C806.893608,447.8 807.493608,448.2 808.293608,448.1 L811.393608,448.1 C811.893608,448.1 812.193608,447.5 811.893608,446.9 C811.693608,446.5 811.493608,446.1 811.193608,445.8 C810.493608,445 809.793608,444.4 809.093608,443.7 Z" id="Combined-Shape"></path>
            </g>
        </g>
    </g>
</svg>