<?xml version="1.0" encoding="UTF-8"?>
<svg width="33px" height="30px" viewBox="0 0 33 30" version="1.1" xmlns="http://www.w3.org/2000/svg" xmlns:xlink="http://www.w3.org/1999/xlink">
    <!-- Generator: Sketch 51.2 (57519) - http://www.bohemiancoding.com/sketch -->
    <title>Shape</title>
    <desc>Created with Sketch.</desc>
    <defs></defs>
    <g id="Page-1-Copy" stroke="none" stroke-width="1" fill="none" fill-rule="evenodd">
        <g id="О-клинике" transform="translate(-932.000000, -1902.000000)" fill="#000000" fill-rule="nonzero">
            <g id="сертификаты-врачей" transform="translate(135.000000, 1454.000000)">
                <g id="договоры" transform="translate(797.000000, 448.030942)">
                    <path d="M30.5407128,20.1744483 L27.2337128,9.86544827 L26.3957128,9.86544827 L26.3957128,9.30144827 C28.0347128,8.89744827 28.0627128,7.28144827 28.0627128,7.28144827 C28.0627128,7.28144827 27.4417128,8.01044827 26.3957128,8.29344827 L26.3957128,7.84744827 L25.7417128,7.84744827 L25.7417128,8.40244827 C25.7147128,8.40344827 25.6897128,8.41044827 25.6617128,8.41144827 C24.1717128,8.44744827 23.4997128,5.97544827 21.6247128,5.97544827 C19.8787128,5.97544827 17.9287128,7.01444827 16.6677128,7.15844827 L16.6677128,4.34544827 C17.5597128,4.20644827 18.2417128,3.44444827 18.2417128,2.51444827 C18.2437128,1.48844827 17.4097128,0.655448272 16.3827128,0.655448272 C15.3567128,0.655448272 14.5237128,1.48844827 14.5237128,2.51444827 C14.5237128,3.49444827 15.2857128,4.28944827 16.2487128,4.36144827 L16.2487128,7.13744827 C14.9877128,6.93844827 13.1167128,5.97544827 11.4327128,5.97544827 C9.55771276,5.97544827 8.88771276,8.44744827 7.39671276,8.41144827 C7.27571276,8.40744827 7.16471276,8.38844827 7.05071276,8.37344827 L7.05071276,7.84744827 L6.39671276,7.84744827 L6.39671276,8.22044827 C5.50971276,7.89844827 4.99671276,7.28244827 4.99671276,7.28244827 C4.99671276,7.28244827 5.02471276,8.71344827 6.39671276,9.21644827 L6.39671276,9.86544827 L5.55971276,9.86544827 L2.19471276,20.1754483 L0.269712757,20.1754483 C0.269712757,20.1754483 1.65071276,22.8144483 6.59671276,22.8144483 C11.5427128,22.8144483 12.9237128,20.1754483 12.9237128,20.1754483 L11.1947128,20.1754483 L7.88971276,9.86644827 L7.05071276,9.86644827 L7.05071276,9.37044827 C7.18271276,9.38444827 7.32071276,9.39244827 7.46971276,9.39244827 C9.90671276,9.39244827 10.2697128,7.84744827 11.6157128,7.84744827 C12.8267128,7.84744827 14.2457128,9.35144827 15.9947128,9.65544827 C16.0697128,9.67644827 16.4367128,9.65144827 16.3267128,9.67844827 L16.2697128,15.4554483 L15.1587128,17.7054483 L15.1967128,24.4834483 L12.1427128,24.4834483 L12.1427128,25.6824483 L9.68771276,29.7194483 L23.6507128,29.7194483 L20.6507128,25.6274483 L20.6507128,24.4814483 L17.9787128,24.4814483 L17.9787128,17.7654483 L16.8537128,15.4014483 L16.8527128,9.66444827 C16.9537128,9.66344827 16.9497128,9.68544827 17.0657128,9.65444827 C18.8147128,9.35044827 20.2337128,7.84644827 21.4447128,7.84644827 C22.7917128,7.84644827 23.1537128,9.39144827 25.5907128,9.39144827 C25.6467128,9.39144827 25.6927128,9.38544827 25.7427128,9.38344827 L25.7427128,9.86344827 L24.9067128,9.86344827 L21.5417128,20.1724483 L19.6157128,20.1724483 C19.6157128,20.1724483 20.9967128,22.8114483 25.9427128,22.8114483 C30.8887128,22.8114483 32.2697128,20.1744483 32.2697128,20.1744483 L30.5407128,20.1744483 Z M6.39671276,20.1744483 L2.88371276,20.1744483 L6.03371276,10.5214483 L6.39671276,10.5214483 L6.39671276,20.1744483 Z M7.41271276,10.5204483 L10.5087128,20.1724483 L7.05071276,20.1724483 L7.05071276,10.5204483 L7.41271276,10.5204483 Z M25.7427128,20.1744483 L22.2287128,20.1744483 L25.3787128,10.5214483 L25.7417128,10.5214483 L25.7417128,20.1744483 L25.7427128,20.1744483 Z M26.3967128,20.1744483 L26.3967128,10.5204483 L26.7577128,10.5204483 L29.8537128,20.1724483 L26.3967128,20.1744483 Z" id="Shape"></path>
                </g>
            </g>
        </g>
    </g>
</svg>