<?xml version="1.0" encoding="UTF-8"?>
<svg width="173px" height="32px" viewBox="0 0 173 32" version="1.1" xmlns="http://www.w3.org/2000/svg" xmlns:xlink="http://www.w3.org/1999/xlink">
    <!-- Generator: Sketch 51.2 (57519) - http://www.bohemiancoding.com/sketch -->
    <title>Group 8</title>
    <desc>Created with Sketch.</desc>
    <defs></defs>
    <g id="Page-1-Copy" stroke="none" stroke-width="1" fill="none" fill-rule="evenodd">
        <g id="Главная" transform="translate(-151.000000, -23.000000)" fill="#383838">
            <g id="global-nav" transform="translate(134.000000, 10.000000)">
                <g id="new-logo" transform="translate(17.000000, 13.000000)">
                    <g id="Group-8">
                        <path d="M22.0286759,31.9736479 C20.4299815,31.9736479 19.5773445,30.932161 18.8312872,25.9330238 C17.9786502,20.6214406 15.20758,20.4131433 14.6746819,20.4131433 C14.6746819,20.4131433 14.5681022,20.4131433 14.5681022,20.4131433 C14.5681022,20.4131433 14.4615226,20.4131433 14.4615226,20.4131433 C13.9286245,20.4131433 11.1575543,20.7255893 10.3049173,25.9330238 C9.45228033,31.244607 8.49306373,32.1819452 6.68121013,31.9736479 C6.57463051,31.9736479 6.46805088,31.9736479 6.46805088,31.9736479 C5.82857315,31.9736479 5.18909541,31.5570531 4.54961767,30.932161 C3.05750294,29.3699306 0.819330854,24.9956856 2.95092332,13.9559245 L0.179853114,6.66551617 C-0.139885755,6.04062403 -0.0333061323,5.3115832 0.499591984,4.79083975 L4.44303804,0.520743451 C4.44303804,0.520743451 4.44303804,0.520743451 4.44303804,0.520743451 C4.97593616,0.20829738 5.40225465,0 5.93515277,0 L10.3049173,0 C10.8378154,0 11.2641339,0.20829738 11.6904524,0.520743451 L14.1417838,2.70786594 C14.354943,2.91616332 14.6746819,2.91616332 14.8878411,2.70786594 L17.3391725,0.520743451 C17.7654909,0.20829738 18.1918094,0 18.7247076,0 L23.0944721,0 C23.6273702,0 24.0536887,0.20829738 24.4800072,0.520743451 C24.4800072,0.520743451 24.4800072,0.520743451 24.4800072,0.520743451 L28.4234533,4.79083975 C28.9563514,5.3115832 29.1695106,6.04062403 28.8497718,6.66551617 L25.9721219,13.8517758 C28.3168736,24.7873882 26.0787016,29.1616332 24.5865868,30.7238636 C23.9471091,31.4529044 23.0944721,31.8694992 22.4549944,31.8694992 C22.3484147,31.8694992 22.2418351,31.8694992 22.2418351,31.8694992 C22.2418351,31.9736479 22.1352555,31.9736479 22.0286759,31.9736479 Z M14.5681022,19.0592103 C15.20758,19.0592103 19.151026,19.3716564 20.1102427,25.6205778 C20.4299815,28.0159976 20.8563,29.578228 21.3891981,30.3072688 C21.6023574,30.6197149 21.708937,30.6197149 22.1352555,30.6197149 C22.2418351,30.6197149 22.3484147,30.6197149 22.561574,30.6197149 C22.6681536,30.6197149 23.2010517,30.4114175 23.7339498,29.6823767 C25.0129053,28.1201463 26.7181793,24.0583474 24.5865868,13.8517758 C24.5865868,13.7476271 24.5865868,13.6434784 24.5865868,13.5393297 L27.5708163,6.24892141 C27.5708163,6.24892141 27.5708163,6.24892141 27.5708163,6.14477272 C27.6773959,5.93647534 27.5708163,5.72817796 27.4642367,5.62402927 C27.4642367,5.62402927 27.4642367,5.62402927 27.4642367,5.62402927 L23.414211,1.35393297 C23.3076314,1.24978428 23.2010517,1.24978428 23.0944721,1.24978428 L18.7247076,1.24978428 C18.6181279,1.24978428 18.5115483,1.24978428 18.4049687,1.35393297 L15.9536374,3.54105546 C15.5273189,3.95765022 14.9944207,4.1659476 14.5681022,4.1659476 C14.0352041,4.1659476 13.6088856,3.95765022 13.1825671,3.64520415 L10.6246562,1.35393297 C10.5180766,1.35393297 10.4114969,1.24978428 10.3049173,1.24978428 L5.93515277,1.24978428 C5.82857315,1.24978428 5.72199352,1.24978428 5.6154139,1.35393297 L1.56538822,5.62402927 C1.56538822,5.62402927 1.56538822,5.62402927 1.56538822,5.62402927 C1.35222897,5.83232665 1.35222897,6.04062403 1.45880859,6.14477272 C1.45880859,6.14477272 1.45880859,6.14477272 1.45880859,6.24892141 L4.44303804,13.6434784 C4.44303804,13.7476271 4.44303804,13.8517758 4.44303804,13.9559245 C2.31144558,24.4749422 4.44303804,28.5367411 5.40225465,29.7865254 C5.93515277,30.4114175 6.36147126,30.6197149 6.46805088,30.6197149 C6.57463051,30.6197149 6.68121013,30.6197149 6.78778975,30.6197149 C7.21410825,30.6197149 7.32068787,30.6197149 7.53384712,30.3072688 C8.06674523,29.6823767 8.49306373,28.1201463 8.91938222,25.7247265 C9.87859883,19.163359 14.0352041,19.0592103 14.5681022,19.0592103 C14.5681022,19.0592103 14.5681022,19.0592103 14.5681022,19.0592103 C14.5681022,19.0592103 14.5681022,19.0592103 14.5681022,19.0592103 Z" id="Shape" fill-rule="nonzero"></path>
                        <path d="M15.2285714,19 C15.1142857,19 15,19 15,19 L15,18.2258065 C20.3714286,18.3225806 24.9428571,14.8387097 26.0857143,13 L27,13.2903226 C25.7428571,15.3225806 20.9428571,19 15.2285714,19 Z" id="Shape" fill-rule="nonzero"></path>
                        <g id="Group-3" transform="translate(3.000000, 4.000000)">
                            <text id="стоматология" font-family=".AppleSystemUIFont" font-size="12" font-weight="normal" line-spacing="21">
                                <tspan x="38.665276" y="24">стоматология</tspan>
                            </text>
                            <path d="M11.3651169,15 C5.84806988,15 1.21375035,11.2258065 0,9.29032258 L0.882727529,9 C1.98613694,10.8387097 6.28943364,14.4193548 11.5857988,14.2258065 L11.5857988,15 C11.5857988,15 11.4754579,15 11.3651169,15 Z" id="Shape" fill-rule="nonzero"></path>
                            <text id="дентал-даймонд" font-family=".AppleSystemUIFont" font-size="13" font-weight="normal" letter-spacing="0.65">
                                <tspan x="36.8639053" y="13">ДЕНТАЛ ДАЙМОНД</tspan>
                            </text>
                        </g>
                    </g>
                </g>
            </g>
        </g>
    </g>
</svg>