<?xml version="1.0" encoding="UTF-8"?>
<svg width="75px" height="75px" viewBox="0 0 75 75" version="1.1" xmlns="http://www.w3.org/2000/svg" xmlns:xlink="http://www.w3.org/1999/xlink">
    <!-- Generator: Sketch 51.2 (57519) - http://www.bohemiancoding.com/sketch -->
    <title>dental-care-2</title>
    <desc>Created with Sketch.</desc>
    <defs></defs>
    <g id="Page-1-Copy" stroke="none" stroke-width="1" fill="none" fill-rule="evenodd">
        <g id="Главная" transform="translate(-518.000000, -778.000000)" fill="#73C7FF" fill-rule="nonzero">
            <g id="popular-services" transform="translate(134.000000, 689.000000)">
                <g id="dental-care-2" transform="translate(384.000000, 89.000000)">
                    <path d="M28.0720397,34.7313996 L24.2051249,36.3019027 C22.8837429,36.8342127 21.3872829,36.1790499 20.8625139,34.8388369 C20.5934612,34.1515845 20.6243209,33.3808047 20.9473392,32.717934 L21.7996235,30.9888705 C22.2774052,30.0197329 22.0899213,28.8492487 21.3344028,28.083188 L15.4006674,22.0641844 L17.0047485,20.4370525 C17.4890432,19.9456411 17.4890432,19.1490638 17.0047485,18.6576523 L12.9194901,14.5138458 L13.2829825,14.14513 C13.7579729,13.6636285 13.7689831,12.8860848 13.3077943,12.3908981 L2.14249658,0.394418586 C1.67200334,-0.11099273 0.886865803,-0.133644218 0.388769464,0.343610041 C0.14080681,0.581136057 0.00015507358,0.911627552 0,1.25753464 L0,17.6169423 C0,17.9875458 0.161121449,18.3392731 0.440408966,18.5783721 L4.16217488,21.7697151 C4.65468857,22.1914417 5.38368947,22.1602959 5.83945072,21.6979853 L6.20294319,21.3254942 L10.2882016,25.469458 C10.7726514,25.9607122 11.557944,25.9607122 12.0423939,25.469458 L13.646475,23.8423262 L19.5802105,29.8613298 L18.7328884,31.5853597 C17.4857867,34.116978 18.498107,37.1947489 20.9938612,38.4596142 C22.2851589,39.1141479 23.7906132,39.1769113 25.130604,38.6324891 L29,37.0632444 L28.0720397,34.7313996 Z M5.32584702,18.6601692 L4.891641,19.1006148 L2.48117728,17.0330373 L2.48117728,4.42370924 L10.6765058,13.2326211 L10.2882016,13.6265053 L5.32584702,18.6601692 Z M11.1652977,22.8003577 L7.95713552,19.546094 L11.1652977,16.2918303 L14.37346,19.5498693 L11.1652977,22.8003577 Z" id="Shape"></path>
                    <path d="M74.2287499,36.0958152 C73.7615624,35.9009735 73.2237499,36.0088519 72.8662499,36.3688138 L55.36625,53.9816254 C54.8782812,54.4728971 54.8782812,55.2692477 55.36625,55.7605194 L56.3575,56.7581594 L51.4525,61.6947789 C49.5123437,60.4975794 47.275625,59.8765706 45,59.9033043 C39.48625,59.9033043 35,63.2887383 35,67.4516522 C35,71.614566 39.48625,75 45,75 C50.51375,75 55,71.614566 55,67.4516522 C54.9751562,65.9218537 54.3934375,64.4544863 53.365,63.3277381 L58.125,58.5370533 L59.11625,59.5346933 C59.604375,60.0258077 60.395625,60.0258077 60.88375,59.5346933 L74.6337499,45.6960556 C74.8681249,45.4601697 74.9999999,45.1403085 74.9999999,44.8066086 L74.9999999,37.2582608 C75.0001562,36.7495336 74.6957812,36.2908142 74.2287499,36.0958152 Z M45,72.4838841 C40.935,72.4838841 37.5,70.1791218 37.5,67.4516522 C37.5,64.7241825 40.935,62.4194203 45,62.4194203 C49.065,62.4194203 52.5,64.7241825 52.5,67.4516522 C52.5,70.1791218 49.065,72.4838841 45,72.4838841 Z M72.4999999,44.2857726 L60,56.8663523 L58.0175,54.8710724 L72.4999999,40.2952127 L72.4999999,44.2857726 Z" id="Shape"></path>
                    <path d="M43.469287,41.9287141 C42.9485175,38.8018954 39.9977528,36.6901196 36.8784946,37.2123357 C34.4664679,37.616046 32.5764717,39.5107189 32.173758,41.9287141 L28.3644486,64.8411265 C28.0790026,66.5550384 26.4616853,67.7124464 24.752004,67.4264521 C23.3964901,67.1995527 22.3458092,66.1151443 22.1593472,64.7501139 L18.8960262,40.7543993 C18.8726988,40.5749023 18.8112278,40.4023576 18.7157114,40.2487739 L18.0146269,39.1237575 C15.8792197,35.701306 14.3399233,31.9397695 13.462622,28 L11,28.5511316 C11.9409789,32.7727872 13.5917111,36.8032532 15.8811111,40.469985 L16.438448,41.3649419 L19.6664625,65.091411 C20.0880904,68.1959506 22.9403439,70.3701396 26.0372203,69.9474684 C28.4951138,69.6120176 30.4486301,67.7111823 30.8560723,65.2582674 L34.6653817,42.345855 C34.9183584,40.7961133 36.2551158,39.6589303 37.8215225,39.6609845 C39.3899782,39.6565602 40.7294151,40.7942172 40.9827071,42.345855 L43.51342,57.5664419 L46,57.149301 L43.469287,41.9287141 Z" id="Shape"></path>
                    <path d="M49.2072342,5.00108294 C47.0688821,5.00108294 44.9529055,5.43556594 42.9874554,6.27792457 C39.4566551,7.78296368 35.4650436,7.78296368 31.9342433,6.27792457 C25.7319894,3.61906386 18.5259649,5.19578642 14,10.2020449 L15.8576406,11.8873882 C18.3779419,9.10112502 21.9577181,7.50953364 25.7141515,7.50499473 C27.5135844,7.50296005 29.2945535,7.86857687 30.9478412,8.57930718 C35.1084429,10.3548026 39.8132558,10.3548026 43.9738575,8.57930718 C50.7200096,5.68802311 58.5318954,8.81439128 61.4224104,15.5623381 C62.1310741,17.2166916 62.4964372,18.997665 62.4964372,20.7974201 C62.4986278,27.4234424 60.6367624,33.9164279 57.1238,39.5340302 L56.4278107,40.6484102 C56.3329884,40.8005419 56.2719641,40.9714552 56.2488062,41.1492552 L55.2248507,48.6619296 L57.7046257,49 L58.6935314,41.7540255 L59.2468179,40.8675299 C63.0096667,34.8501907 65.0032819,27.8950193 64.9999959,20.7974201 C64.9998395,12.0731703 57.9291636,5.00092642 49.2072342,5.00108294 Z" id="Shape"></path>
                </g>
            </g>
        </g>
    </g>
</svg>