<?xml version="1.0" encoding="UTF-8"?>
<svg width="82px" height="78px" viewBox="0 0 82 78" version="1.1" xmlns="http://www.w3.org/2000/svg" xmlns:xlink="http://www.w3.org/1999/xlink">
    <!-- Generator: Sketch 51.2 (57519) - http://www.bohemiancoding.com/sketch -->
    <title>dental-coron</title>
    <desc>Created with Sketch.</desc>
    <defs></defs>
    <g id="Page-1-Copy" stroke="none" stroke-width="1" fill="none" fill-rule="evenodd">
        <g id="Главная" transform="translate(-1207.000000, -777.000000)" fill="#73C7FF" fill-rule="nonzero">
            <g id="popular-services" transform="translate(134.000000, 689.000000)">
                <g id="dental-coron" transform="translate(1073.000000, 88.000000)">
                    <path d="M25.5943638,42.9967123 C26.2421008,42.9967123 26.8023057,42.559315 26.9598634,41.929463 L29.235696,32.8490959 C29.3932536,32.2192438 29.9534586,31.7818466 30.6011956,31.7818466 L51.4338173,31.7818466 C52.0815542,31.7818466 52.6417592,32.2192438 52.7993168,32.8490959 L54.6199829,40.1973698 L29.7959009,40.1973698 L29.7959009,42.9967123 L60.5196413,42.9967123 C60.0819812,44.7812931 59.5217763,46.5483781 58.8915457,48.2629753 L57.8936806,50.9048548 C57.8411614,51.0448219 57.823655,51.184789 57.8061486,51.3247561 L56.6507259,72.1273698 C56.5456874,73.9119506 55.0051238,75.294126 53.2194705,75.1891506 C53.0969257,75.1891506 52.9743809,75.1716547 52.851836,75.1541588 C51.4163108,74.8567287 50.3484202,73.684504 50.1558497,72.2323451 L47.1972673,52.5319726 C46.9346712,50.8348712 45.9893254,49.3127287 44.588813,48.315463 C43.5384287,47.5806356 42.2779675,47.1782301 41,47.1782301 C40.5623399,47.1782301 40.1246798,47.2307178 39.6870196,47.3181972 C37.0785653,47.9130575 35.117848,50.065052 34.7502135,52.7069315 L31.7916311,72.4073041 C31.529035,74.1393972 29.9534586,75.3466136 28.2203245,75.1541588 C26.5922289,74.9092164 25.3667805,73.527041 25.3142613,71.8649314 L24.176345,51.2897644 C24.176345,51.1497972 24.1413322,51.0098301 24.088813,50.869863 L23.0909479,48.2454794 C22.4432109,46.5133863 21.9005124,44.7637972 21.4453459,42.9792164 L25.5943638,42.9967123 Z M82,50.0475561 L68.4150299,46.1634685 C66.4192997,45.6036 64.3010248,45.7435671 62.3928266,46.5658739 C62.8654996,45.0437315 63.3031597,43.4865972 63.6532878,41.8944712 C63.8108454,41.1421479 63.3381725,40.3898246 62.5853971,40.2323616 C62.4978651,40.2148657 62.3928266,40.1973698 62.2877882,40.1973698 L57.4910333,40.1973698 L55.4953032,32.1842521 C55.0226302,30.3121918 53.3420154,29 51.4163108,29 L30.5836892,29 C28.6579846,29 26.9773698,30.3121918 26.5046968,32.1842521 L24.5089667,40.1973698 L19.7122118,40.1973698 C18.94193,40.1973698 18.3116994,40.8272219 18.3116994,41.5970411 C18.3116994,41.7020164 18.3292058,41.7894959 18.3467122,41.8944712 C18.6968403,43.4865972 19.116994,45.0437315 19.6071734,46.5658739 C17.6989752,45.7435671 15.5807003,45.6036 13.5849701,46.1634685 L0,50.0475561 L0.962852263,52.6894356 L14.3552519,48.8578356 C17.1037575,48.0705205 20.0448335,49.2952328 21.410333,51.8146411 L22.530743,72.0398904 C22.5832622,75.3466136 25.2792485,78.005989 28.587959,77.9884931 C31.5815542,77.9884931 34.1374893,75.8015068 34.5751494,72.8447013 L37.5337319,53.1443287 C37.7087959,51.6571781 38.794193,50.4324657 40.264731,50.0825479 C42.1379163,49.6801424 43.9935952,50.869863 44.3962425,52.7594191 C44.4137489,52.8294027 44.4312553,52.8993863 44.4312553,52.9693698 L47.3898377,72.6522465 C47.7574722,75.294126 49.7707088,77.4111287 52.3966695,77.9185095 C55.6878736,78.4608821 58.8040137,76.238904 59.3642186,72.9496767 C59.3992314,72.7222301 59.4342442,72.5122794 59.4342442,72.2848328 L60.5721605,51.8146411 C61.9551665,49.3127287 64.8787361,48.0880164 67.6272417,48.8578356 L80.8445773,52.619452 L82,50.0475561 Z" id="Shape"></path>
                    <path d="M54.0705555,0.00358791843 C52.4470276,0.00358791843 50.8587937,0.325097727 49.3587951,0.934274206 C44.6646817,2.84641149 39.3705688,2.84641149 34.6764555,0.934274206 C28.6058727,-1.57011799 21.5823497,1.13733303 18.9705874,6.94143115 C18.3352938,8.36284294 18,9.9027057 18,11.45949 C18,14.9791764 18.3882349,18.4988627 19.1647048,21.9339412 C19.3058812,22.5600392 19.8705865,23 20.5411742,23 L63.4587823,23 C64.1293699,23 64.6940753,22.5600392 64.8352516,21.9339412 C65.6117215,18.4819411 65.9999564,14.9791764 65.9999564,11.45949 C66.0176035,5.14774485 60.6705495,0.00358791843 54.0705555,0.00358791843 Z M62.3117245,20.3094706 L21.723526,20.3094706 C21.1411736,17.3989607 20.8411739,14.4376862 20.8411739,11.45949 C20.8411739,6.61992134 24.9352878,2.71103894 29.9823421,2.71103894 C31.2176351,2.71103894 32.435281,2.9479409 33.5646918,3.42174483 C38.9646869,5.62154878 45.0705637,5.62154878 50.4529117,3.42174483 C55.094084,1.52652912 60.458785,3.57403895 62.4529008,8.02441156 C62.947018,9.10739197 63.1940766,10.2749802 63.1940766,11.45949 C63.1940766,14.4376862 62.8940769,17.3989607 62.3117245,20.3094706 Z" id="Shape"></path>
                    <path d="M26.6666667,6 C23.85,7.62112933 22.0666667,10.7905282 22,14.2695811 L22,16 L24.6666667,16 L24.6666667,14.2513661 C24.75,11.8287796 26.0166667,9.62477231 28,8.5136612 L26.6666667,6 Z" id="Shape"></path>
                </g>
            </g>
        </g>
    </g>
</svg>