<?xml version="1.0" encoding="UTF-8"?>
<svg width="70px" height="84px" viewBox="0 0 70 84" version="1.1" xmlns="http://www.w3.org/2000/svg" xmlns:xlink="http://www.w3.org/1999/xlink">
    <!-- Generator: Sketch 51.2 (57519) - http://www.bohemiancoding.com/sketch -->
    <title>dental-vinir</title>
    <desc>Created with Sketch.</desc>
    <defs></defs>
    <g id="Page-1-Copy" stroke="none" stroke-width="1" fill="none" fill-rule="evenodd">
        <g id="Главная" transform="translate(-1061.000000, -773.000000)" fill="#73C7FF" fill-rule="nonzero">
            <g id="popular-services" transform="translate(134.000000, 689.000000)">
                <g id="dental-vinir" transform="translate(927.000000, 84.000000)">
                    <path d="M46.51863,52.3487757 L45.3330824,54.8045545 C45.2578096,54.9545257 45.2013549,55.1419897 45.1825367,55.3107073 L42.6044411,78.5000073 C42.4350772,80.0184659 41.0613474,81.1245036 39.5370719,80.955786 C38.2762514,80.8245612 37.278886,79.8497483 37.0907038,78.6124857 L33.797516,56.6979411 C33.2329695,53.0236462 29.8080542,50.4928819 26.1196839,51.055274 C23.1840422,51.4864412 20.8882198,53.7922487 20.4554008,56.6979411 L17.1433948,78.6124857 C16.9175762,80.1309443 15.50621,81.1619964 13.9819345,80.9370396 C12.7399323,80.7495756 11.761385,79.7560162 11.6296575,78.5000073 L9.05156191,55.3107073 C9.0327437,55.1419897 8.97628905,54.9545257 8.90101618,54.8045545 L6.71810312,50.4553891 C4.29055326,45.6375636 3.02973278,40.3135853 3.02973278,34.9333678 C3.02973278,28.8782798 7.96010538,23.9854687 14.0195709,23.9854687 C15.50621,23.9854687 16.9740309,24.2854111 18.3477606,24.8665496 C18.8558525,25.0915065 19.2698532,25.2414777 19.7779451,25.4289417 L20.0037636,22.2795461 C19.6085811,22.1483213 19.9096726,22.2795461 19.51449,22.1295749 C12.4012044,19.0926576 4.17764396,22.3920245 1.12909296,29.4781646 C0.395182537,31.2028337 0,33.0774739 0,34.9521142 C0,40.8009918 1.37372977,46.5748838 3.9894618,51.8238765 L6.05946556,55.9293386 L8.61874294,78.8561889 C8.97628905,82.0243309 11.8366579,84.3113921 15.0169364,83.9552104 C17.6326684,83.6740144 19.7214904,81.6681493 20.0978547,79.0811458 L23.3910425,57.1666012 C23.692134,55.1232433 25.5927738,53.7360095 27.6439594,54.035952 C29.2623259,54.2796552 30.5419646,55.5544106 30.7866014,57.1666012 L34.0797892,79.0811458 C34.5502446,82.2305414 37.5047046,84.4051241 40.6661648,83.936464 C43.2630787,83.5427896 45.2766278,81.4619389 45.558901,78.8749353 L48.1181784,55.948085 L50,52.3300293 L46.51863,52.3487757 Z" id="Shape"></path>
                    <path d="M11.3076923,27 C7.98076923,29.2009569 6,32.8947368 6,36.8564593 L6,39 L9.07692308,39 L9.07692308,36.8564593 C9.07692308,33.9282297 10.5576923,31.1722488 13,29.5454545 L11.3076923,27 Z" id="Shape"></path>
                    <path d="M27.975773,7.25627498 C27.8633199,6.61884032 27.3760231,6.13139029 26.7387889,6.01890182 C24.302305,5.6064441 22.3906023,3.69414012 21.9782743,1.25688995 C21.847079,0.431974512 21.0599073,-0.111719757 20.2539934,0.0195167909 C19.6167592,0.13200526 19.1294624,0.619455294 19.0170093,1.25688995 C18.6046813,3.69414012 16.6929786,5.62519218 14.2564948,6.01890182 C13.4318387,6.15013837 12.8883154,6.93755765 13.0195107,7.74372502 C13.1319638,8.38115968 13.6192605,8.86860971 14.2564948,8.98109818 C16.6929786,9.3935559 18.6046813,11.3058599 19.0170093,13.74311 C19.1482046,14.5680255 19.9353763,15.1117198 20.7412902,14.9804832 C21.3785244,14.8679947 21.8658212,14.3805447 21.9782743,13.74311 C22.3906023,11.3058599 24.302305,9.37480782 26.7387889,8.98109818 C27.5634449,8.84986163 28.1257104,8.06244235 27.975773,7.25627498 Z M20.516384,9.63728092 C19.9353763,8.81236548 19.2044312,8.08119042 18.3797751,7.5 C19.2044312,6.91880958 19.9353763,6.18763452 20.516384,5.36271908 C21.0973917,6.18763452 21.8283368,6.91880958 22.6529929,7.5 C21.8095947,8.08119042 21.0973917,8.81236548 20.516384,9.63728092 Z" id="Shape"></path>
                    <path d="M46.5212579,50 C46.5024449,50 46.4836318,50 46.4648188,50 C35.4027679,50 30.2103767,43.4320916 29.9846206,43.1506098 C29.9658076,43.1318443 29.9658076,43.1130789 29.9469945,43.0943134 C29.5895473,42.5876462 21.2741961,30.5026947 23.3248144,21.5328083 C24.0020828,18.5115704 25.7516929,16.1846543 28.5360187,14.6083562 C33.1828326,11.9624274 36.8889959,13.1258855 40.4634681,14.2518126 C42.3823953,14.8523071 44.3577615,15.4715671 46.5024449,15.4903325 C48.6471282,15.4903325 50.6224944,14.8523071 52.5414216,14.2518126 C56.1158938,13.1258855 59.8220572,11.9624274 64.468871,14.6083562 C67.2343838,16.1846543 68.9839939,18.5115704 69.6800753,21.5328083 C71.7118806,30.5026947 63.4153424,42.5876462 63.0578952,43.0943134 C63.0390822,43.1130789 63.0390822,43.1318443 63.0202691,43.1506098 C62.794513,43.4320916 57.5833088,50 46.5212579,50 Z M46.4836318,47.1851821 C46.4836318,47.1851821 46.5024449,47.1851821 46.5024449,47.1851821 C55.8713247,47.1851821 60.3488215,41.9308553 60.7438947,41.4429536 C60.9696509,41.1051754 62.869765,38.2903575 64.5441231,34.6123288 C66.8204975,29.6019529 67.629457,25.3046643 66.9145626,22.1333028 C66.4066113,19.8814484 65.1461395,18.2300886 63.0578952,17.0478651 C59.4834229,15.0024307 56.7743493,15.8468761 53.3691941,16.9352724 C51.2433238,17.5920632 49.0610144,18.286385 46.4836318,18.3051504 C43.9062492,18.3051504 41.7051269,17.6108287 39.5980696,16.9352724 C36.1929144,15.8656416 33.4838407,15.0211962 29.9093685,17.0478651 C27.8211242,18.2300886 26.5606524,19.9002139 26.0527011,22.1520682 C25.3378067,25.3234297 26.1655792,29.6394838 28.4419536,34.6686252 C30.1163116,38.3278884 31.9976128,41.1239409 32.223369,41.461719 C32.5996292,41.9120899 37.058313,47.2039475 46.4460058,47.2039475 C46.4836318,47.1851821 46.4836318,47.1851821 46.4836318,47.1851821 Z" id="Shape"></path>
                </g>
            </g>
        </g>
    </g>
</svg>