<?xml version="1.0" encoding="UTF-8"?>
<svg width="87px" height="87px" viewBox="0 0 87 87" version="1.1" xmlns="http://www.w3.org/2000/svg" xmlns:xlink="http://www.w3.org/1999/xlink">
    <!-- Generator: Sketch 51.2 (57519) - http://www.bohemiancoding.com/sketch -->
    <title>dental-tooth-</title>
    <desc>Created with Sketch.</desc>
    <defs></defs>
    <g id="Page-1-Copy" stroke="none" stroke-width="1" fill="none" fill-rule="evenodd">
        <g id="Главная" transform="translate(-168.000000, -768.000000)" fill="#73C7FF" fill-rule="nonzero">
            <g id="popular-services" transform="translate(134.000000, 689.000000)">
                <g id="dental-tooth-" transform="translate(34.000000, 79.000000)">
                    <path d="M55.5666667,13.0000095 C53.7479306,12.9978312 51.9477917,13.3694223 50.2771111,14.0920916 C45.6250972,16.0845604 40.3662361,16.0845604 35.7142222,14.0920916 C28.8924722,11.159844 20.9980417,14.3426024 18.0815278,21.2011537 C17.3685139,22.877761 17.0005417,24.6823467 17,26.5058115 C17.0068611,32.1769777 18.3200417,37.76936 20.8364444,42.8449275 L22.8138889,46.8240563 L25.2694444,69.0287566 C25.6079861,72.0953361 28.3551389,74.3054589 31.4052639,73.9650909 C33.9099306,73.6855353 35.9139167,71.7464362 36.2876667,69.2407832 L39.4524444,48.0250561 C39.7436806,46.0552784 41.5681944,44.6958033 43.5274028,44.9886105 C45.0890278,45.2220576 46.3153611,46.4548251 46.5475556,48.0250561 L49.7123333,69.2407832 C50.1673333,72.2921141 52.9966389,74.394953 56.0315972,73.9374984 C58.5238056,73.5619137 60.4525,71.5469352 60.7305556,69.0287566 L63.1861111,46.8240563 L65.1635556,42.8449275 C67.6799583,37.76936 68.9931389,32.1769777 69,26.5058115 C68.9944028,19.0491203 62.9833472,13.0056369 55.5666667,13.0000095 Z M62.5794444,41.5422711 L62.5751111,41.5422711 L60.4806667,45.7537578 C60.4050139,45.9073318 60.3560833,46.0728868 60.3362222,46.2431616 L57.859,68.7034555 C57.6986667,70.1752975 56.381875,71.2376087 54.9179306,71.0762289 C53.7130833,70.9435308 52.7489167,70.0104686 52.5708889,68.8051121 L49.4061111,47.5893851 C48.8732917,44.0323126 45.5732778,41.5829338 42.0352917,42.1186276 C39.2240417,42.5443145 37.0171111,44.7629692 36.5938889,47.5893851 L33.4291111,68.8051121 C33.2128056,70.2696929 31.8566528,71.2806312 30.3999306,71.0631588 C29.2010417,70.8841706 28.2729861,69.9148025 28.141,68.7034555 L25.658,46.2417093 C25.6379583,46.0714346 25.5892083,45.9058796 25.5135556,45.7523055 L23.4191111,41.5408189 C21.1040278,36.8702439 19.89575,31.7242429 19.8888889,26.5058115 C19.8899722,20.6509374 24.6116806,15.9053907 30.4351389,15.9062984 C31.860625,15.9064799 33.271125,16.1974718 34.5817778,16.7613028 C39.959625,19.0674548 46.040375,19.0674548 51.4182222,16.7613028 C56.7720556,14.4578737 62.969625,16.9540872 65.2606944,22.3368028 C65.8215,23.6543446 66.11075,25.0726354 66.1111111,26.5058115 C66.1040694,31.7247875 64.89525,36.8713331 62.5794444,41.5422711 Z" id="Shape"></path>
                    <path d="M28.2941837,19 C24.9835939,21.0126404 22.9959721,24.4069522 23.0000061,28.0407303 L23,30 L26.073549,30 L26.073549,28.0407303 C26.0702834,25.3460323 27.5446234,22.8290028 30,21.3370787 L28.2941837,19 Z" id="Shape"></path>
                    <rect id="Rectangle-path" x="42" y="0" width="3" height="6"></rect>
                    <rect id="Rectangle-path" x="42" y="81" width="3" height="6"></rect>
                    <rect id="Rectangle-path" transform="translate(23.500000, 8.000000) rotate(-30.000728) translate(-23.500000, -8.000000) " x="22" y="5" width="3" height="6"></rect>
                    <rect id="Rectangle-path" transform="translate(64.500000, 79.000000) rotate(-30.000728) translate(-64.500000, -79.000000) " x="63" y="76" width="3" height="6"></rect>
                    <rect id="Rectangle-path" transform="translate(8.500000, 23.000000) rotate(-60.007099) translate(-8.500000, -23.000000) " x="7" y="20" width="3" height="6"></rect>
                    <rect id="Rectangle-path" transform="translate(78.500000, 64.000000) rotate(-60.007099) translate(-78.500000, -64.000000) " x="77" y="61" width="3" height="6"></rect>
                    <rect id="Rectangle-path" x="0" y="42" width="6" height="3"></rect>
                    <rect id="Rectangle-path" x="81" y="42" width="6" height="3"></rect>
                    <rect id="Rectangle-path" transform="translate(8.000000, 64.500000) rotate(-29.992901) translate(-8.000000, -64.500000) " x="5" y="63" width="6" height="3"></rect>
                    <rect id="Rectangle-path" transform="translate(79.000000, 23.500000) rotate(-29.992901) translate(-79.000000, -23.500000) " x="76" y="22" width="6" height="3"></rect>
                    <rect id="Rectangle-path" transform="translate(23.000000, 78.500000) rotate(-60.007099) translate(-23.000000, -78.500000) " x="20" y="77" width="6" height="3"></rect>
                    <rect id="Rectangle-path" transform="translate(64.000000, 8.500000) rotate(-59.999272) translate(-64.000000, -8.500000) " x="61" y="7" width="6" height="3"></rect>
                    <path d="M14.97874,7.24979574 C14.8721849,6.62015877 14.3789925,6.12706506 13.7492296,6.02053132 C11.3037157,5.6120269 9.3876005,3.69573234 8.97976473,1.25052021 C8.84150578,0.433511389 8.06691798,-0.116975501 7.24974567,0.0212557899 C6.61998271,0.127789539 6.12679034,0.620883247 6.02023527,1.25052021 C5.6123995,3.69573234 3.69628427,5.6120269 1.25077045,6.02053132 C0.433598137,6.15876261 -0.116998908,6.93319544 0.0212600433,7.75020426 C0.12781511,8.37984123 0.621007488,8.87293494 1.25077045,8.97946868 C3.69628427,9.3879731 5.6123995,11.3042677 6.02023527,13.7494798 C6.15849422,14.5664886 6.93308202,15.1169755 7.75025433,14.9787442 C8.38001729,14.8722105 8.87320966,14.3791168 8.97976473,13.7494798 C9.3876005,11.3042677 11.3037157,9.3879731 13.7492296,8.97946868 C14.5664019,8.84123739 15.1169989,8.06680456 14.97874,7.24979574 Z M7.5,9.64267878 C6.91488512,8.81010253 6.18963531,8.08499782 5.35689246,7.5 C6.18963531,6.91500218 6.91488512,6.18989747 7.5,5.35732122 C8.08511488,6.18989747 8.81036469,6.91500218 9.64310754,7.5 C8.81036469,8.08499782 8.08511488,8.81010253 7.5,9.64267878 Z" id="Shape"></path>
                </g>
            </g>
        </g>
    </g>
</svg>