<?xml version="1.0" encoding="UTF-8"?>
<svg width="58px" height="69px" viewBox="0 0 58 69" version="1.1" xmlns="http://www.w3.org/2000/svg" xmlns:xlink="http://www.w3.org/1999/xlink">
    <!-- Generator: Sketch 51.2 (57519) - http://www.bohemiancoding.com/sketch -->
    <title>timeline</title>
    <desc>Created with Sketch.</desc>
    <defs></defs>
    <g id="Page-1" stroke="none" stroke-width="1" fill="none" fill-rule="evenodd">
        <g id="Врачи" transform="translate(-971.000000, -1191.000000)" fill="#7B7B7B" fill-rule="nonzero">
            <g id="6" transform="translate(939.000000, 1067.000000)">
                <g id="timeline" transform="translate(32.703963, 124.308166)">
                    <path d="M20.1027731,17.0770028 C20.0999505,17.1301855 20.0999505,17.1833683 20.1027731,17.236551 C20.1468939,18.0497416 20.8418347,18.6733759 21.6550253,18.629255 L47.6551386,18.629255 C47.7083214,18.6320776 47.7615041,18.6320776 47.8146868,18.629255 C48.6278774,18.5851342 49.2515117,17.8901934 49.2073909,17.0770028 L49.2073909,1.55448055 C49.2102134,1.50129783 49.2102134,1.4481151 49.2073909,1.39493238 C49.16327,0.581741766 48.4683292,-0.0418925378 47.6551386,0.00222832648 L21.6550253,0.00222832648 C21.6018426,-0.000594220394 21.5486598,-0.000594220394 21.4954771,0.00222832648 C20.6822865,0.0463491908 20.0586522,0.741289942 20.1027731,1.55448055 L20.1027731,17.0770028 Z M23.2072775,3.10673278 L46.1028864,3.10673278 L46.1028864,15.5247506 L23.2072775,15.5247506 L23.2072775,3.10673278 Z" id="Shape"></path>
                    <path d="M56.9688005,41.9128899 L56.9688005,26.3903676 C56.9716231,26.3371849 56.9716231,26.2840022 56.9688005,26.2308194 C56.9246797,25.4176288 56.2297389,24.7939945 55.4165483,24.8381154 L21.6550253,24.8381154 C21.6018426,24.8352928 21.5486598,24.8352928 21.4954771,24.8381154 C20.6822865,24.8822362 20.0586522,25.577177 20.1027731,26.3903676 L20.1027731,41.9128899 C20.0999505,41.9660726 20.0999505,42.0192553 20.1027731,42.072438 C20.1468939,42.8856286 20.8418347,43.5092629 21.6550253,43.4651421 L55.4163998,43.4651421 C55.4695825,43.4679646 55.5227652,43.4679646 55.5759479,43.4651421 C56.3892871,43.4211698 57.0127729,42.7260805 56.9688005,41.9128899 Z M53.8642961,40.3606376 L23.2072775,40.3606376 L23.2072775,27.9426198 L53.8642961,27.9426198 L53.8642961,40.3606376 Z" id="Shape"></path>
                    <path d="M49.2075394,51.2264032 C49.210362,51.1732205 49.210362,51.1200378 49.2075394,51.066855 C49.1634186,50.2536644 48.4684778,49.6300301 47.6552872,49.674151 L21.6551738,49.674151 C21.6019911,49.6713284 21.5488084,49.6713284 21.4956257,49.674151 C20.682435,49.7182718 20.0588007,50.4132126 20.1029216,51.2264032 L20.1029216,66.7489255 C20.1000991,66.8021082 20.1000991,66.8552909 20.1029216,66.9084736 C20.1470425,67.7216642 20.8419832,68.3452985 21.6551738,68.3011777 L47.6552872,68.3011777 C47.7084699,68.3040002 47.7616526,68.3040002 47.8148354,68.3011777 C48.628026,68.2570568 49.2516603,67.5621161 49.2075394,66.7489255 L49.2075394,51.2264032 Z M46.103035,65.1966732 L23.2072775,65.1966732 L23.2072775,52.7786554 L46.103035,52.7786554 L46.103035,65.1966732 Z" id="Shape"></path>
                    <path d="M13.5755591,6.91746817 C12.7611801,3.27831392 9.15084552,0.988337071 5.51169127,1.80286468 C2.42976719,2.49245744 0.237688158,5.22631692 0.23397428,8.38430121 C0.154794413,11.5217849 2.29710749,14.2807502 5.35645119,14.981336 L5.35645119,27.5545939 C1.71298884,28.3496608 -0.596151611,31.9476653 0.198915277,35.5911276 C0.761790546,38.1707869 2.7767919,40.1857883 5.35645119,40.7486635 L5.35645119,53.3219214 C2.29710749,54.0225073 0.154794413,56.7814726 0.23397428,59.9189562 C0.238282378,63.6481349 3.2647954,66.6678144 6.99397404,66.6635063 C10.7231527,66.6591982 13.7428322,63.6326852 13.7385241,59.9035065 C13.7349588,56.7453737 11.5427312,54.0116628 8.46095564,53.3219214 L8.46095564,40.7486635 C11.5342635,40.0528315 13.7021281,37.3023338 13.6609783,34.1516287 C13.7021281,31.0007751 11.5342635,28.250426 8.46095564,27.5545939 L8.46095564,14.981336 C12.1001099,14.166957 14.3900867,10.5566224 13.5755591,6.91746817 Z M10.7117139,59.9189562 C10.6695243,61.9459906 9.01387772,63.5671724 6.98624918,63.5667267 C4.97169349,63.5667267 3.33847873,61.9335119 3.33847873,59.9189562 C3.33847873,57.9044006 4.97169349,56.2711858 6.98624918,56.2711858 C9.01387772,56.2707401 10.6695243,57.8919219 10.7117139,59.9189562 Z M10.6363965,34.1494004 C10.6377335,36.1639561 9.00555863,37.7982107 6.99100294,37.7995477 C6.98951739,37.7995477 6.98788328,37.7995477 6.98639773,37.7995477 C5.00214728,37.7573581 3.41572738,36.1364734 3.41617305,34.1517773 C3.41572738,32.1670812 5.00214728,30.5461965 6.98639773,30.5040068 C9.00095342,30.5026698 10.6352081,32.1346962 10.6363965,34.1494004 Z M6.98624918,12.0320717 C5.00199873,11.989882 3.41572738,10.3689973 3.41617305,8.38430121 C3.41572738,6.39960509 5.00214728,4.77872041 6.98639773,4.73653076 C9.01387772,4.7360851 10.6695243,6.35726689 10.7118625,8.38430121 C10.6695243,10.4114841 9.01387772,12.0325173 6.98624918,12.0320717 Z" id="Shape"></path>
                    <path d="M26.311782,8.53954129 L35.2372694,8.53954129 C36.0945809,8.53954129 36.7895216,7.84460054 36.7895216,6.98728906 C36.7895216,6.12997759 36.0945809,5.43503684 35.2372694,5.43503684 L26.311782,5.43503684 C25.4544705,5.43503684 24.7595297,6.12997759 24.7595297,6.98728906 C24.7595297,7.84460054 25.4544705,8.53954129 26.311782,8.53954129 Z" id="Shape"></path>
                    <path d="M42.9985305,10.0917935 L26.311782,10.0917935 C25.4544705,10.0917935 24.7595297,10.7867343 24.7595297,11.6440457 C24.7595297,12.5013572 25.4544705,13.196298 26.311782,13.196298 L42.9985305,13.196298 C43.855842,13.196298 44.5507827,12.5013572 44.5507827,11.6440457 C44.5507827,10.7867343 43.855842,10.0917935 42.9985305,10.0917935 Z" id="Shape"></path>
                    <path d="M26.311782,33.3755769 L35.2372694,33.3755769 C36.0945809,33.3755769 36.7895216,32.6806361 36.7895216,31.8233247 C36.7895216,30.9660132 36.0945809,30.2710724 35.2372694,30.2710724 L26.311782,30.2710724 C25.4544705,30.2710724 24.7595297,30.9660132 24.7595297,31.8233247 C24.7595297,32.6806361 25.4544705,33.3755769 26.311782,33.3755769 Z" id="Shape"></path>
                    <path d="M26.311782,38.0323336 L42.9985305,38.0323336 C43.855842,38.0323336 44.5507827,37.3373928 44.5507827,36.4800813 C44.5507827,35.6227699 43.855842,34.9278291 42.9985305,34.9278291 L26.311782,34.9278291 C25.4544705,34.9278291 24.7595297,35.6227699 24.7595297,36.4800813 C24.7595297,37.3373928 25.4544705,38.0323336 26.311782,38.0323336 Z" id="Shape"></path>
                    <path d="M26.311782,58.2116125 L35.2372694,58.2116125 C36.0945809,58.2116125 36.7895216,57.5166717 36.7895216,56.6593603 C36.7895216,55.8020488 36.0945809,55.107108 35.2372694,55.107108 L26.311782,55.107108 C25.4544705,55.107108 24.7595297,55.8020488 24.7595297,56.6593603 C24.7595297,57.5166717 25.4544705,58.2116125 26.311782,58.2116125 Z" id="Shape"></path>
                    <path d="M26.311782,62.8682206 L42.9985305,62.8682206 C43.855842,62.8682206 44.5507827,62.1732799 44.5507827,61.3159684 C44.5507827,60.4586569 43.855842,59.7637162 42.9985305,59.7637162 L26.311782,59.7637162 C25.4544705,59.7637162 24.7595297,60.4586569 24.7595297,61.3159684 C24.7595297,62.1732799 25.4544705,62.8682206 26.311782,62.8682206 Z" id="Shape"></path>
                </g>
            </g>
        </g>
    </g>
</svg>