<?xml version="1.0" encoding="UTF-8"?>
<svg width="110px" height="110px" viewBox="0 0 110 110" version="1.1" xmlns="http://www.w3.org/2000/svg" xmlns:xlink="http://www.w3.org/1999/xlink">
    <!-- Generator: Sketch 51.2 (57519) - http://www.bohemiancoding.com/sketch -->
    <title>dental-care-2</title>
    <desc>Created with Sketch.</desc>
    <defs></defs>
    <g id="Page-1" stroke="none" stroke-width="1" fill="none" fill-rule="evenodd">
        <g id="Услуги" transform="translate(-186.000000, -293.000000)" fill="#73C7FF" fill-rule="nonzero">
            <g id="services" transform="translate(0.000000, 145.000000)">
                <g id="dental-care-2" transform="translate(186.000000, 148.000000)">
                    <path d="M0,25.8375706 L6.06380697,30.991402 C6.80160858,31.6071252 7.88525469,31.5615161 8.5538874,30.8773792 L9.08418231,30.3300696 L15.1479893,36.3276699 C15.8627346,37.0346113 17.0386059,37.0346113 17.7533512,36.3276699 L20.1512064,34.0016044 L28.9817694,42.7357523 L27.7136729,45.2442543 C25.8691689,48.915789 27.3678284,53.3854835 31.0798928,55.2098486 C32.9935657,56.1676402 35.2300268,56.2588585 37.2359249,55.4606988 L43,53.1802424 L41.616622,49.805167 L35.8756032,52.0856233 C33.9158177,52.8609785 31.6793566,51.9031868 30.8954424,49.9647989 C30.5034853,48.9613981 30.5495979,47.8439745 31.0107239,46.8861828 L32.2788204,44.3776808 C32.9935657,42.9637979 32.7168901,41.2762602 31.5871314,40.1588366 L22.7565684,31.4246887 L25.1313673,29.0758186 C25.8461126,28.3688772 25.8461126,27.2058444 25.1313673,26.4989029 L19.0675603,20.4784981 L19.5978552,19.9539932 C20.3126005,19.2470517 20.3126005,18.1296281 19.6439678,17.3998821 L3.04343164,0 L0.484182306,2.62252482 L15.7243968,18.6085239 L15.1479893,19.178638 L7.76997319,26.4760984 L7.12439678,27.1146262 L2.12117962,22.9641956 L0,25.8375706 Z M16.4621984,32.4736986 L11.6895442,27.7531539 L16.4621984,23.0554138 L21.2348525,27.7759585 L16.4621984,32.4736986 Z" id="Shape"></path>
                    <path d="M66.5169856,106.364621 C60.6286607,106.364621 55.6462319,103.00361 55.6462319,99.0481348 C55.6462319,95.0926594 60.6286607,91.7316486 66.5169856,91.7316486 C72.4053104,91.7316486 77.3877392,95.0926594 77.3877392,99.0481348 C77.3877392,103.00361 72.4053104,106.364621 66.5169856,106.364621 Z M106.376415,65.3694344 L88.2584928,83.6606498 L85.3822725,80.7569194 L106.376415,59.5619735 L110,55.7665463 L107.757907,53 C107.757907,53 107.418196,53.3200963 106.897306,53.8459687 L81.532214,79.4536703 C80.8301445,80.1624549 80.8301445,81.3285199 81.532214,82.0373045 L82.9590004,83.4777377 L75.8477157,90.6570397 C73.0394377,88.9193742 69.800859,88.0048135 66.4943381,88.0505415 C58.4998048,88.0505415 52,92.9663057 52,99.0252708 C52,105.084236 58.4998048,110 66.4943381,110 C74.4888715,110 80.9886763,105.084236 80.9886763,99.0252708 C80.9433815,96.8074609 80.1054276,94.6582431 78.6106989,93.0348977 L85.518157,86.0613718 L86.9449434,87.5018051 C87.6470129,88.2105897 88.8020305,88.2105897 89.5041,87.5018051 L109.954705,66.8327316 L107.508786,64.0890493 L106.376415,65.3694344 Z" id="Shape"></path>
                    <path d="M64.2783784,62.2157355 C63.5202703,57.672358 59.2243243,54.5975469 54.6756757,55.3777228 C51.1608108,55.974328 48.4040541,58.7049438 47.8297297,62.2157355 L42.2702703,95.487945 C41.8567568,97.9661509 39.4905405,99.6641809 37.0094595,99.2511466 C35.0337838,98.9298977 33.4945946,97.3465995 33.2418919,95.3732132 L28.4864865,60.5177055 C28.4635135,60.2652957 28.3716216,60.0128858 28.2337838,59.7834223 L27.222973,58.1542313 C24.1216216,53.1748731 21.8702703,47.7136415 20.5837838,42 L17,42.8031223 C18.3783784,48.9297981 20.7675676,54.7811177 24.1216216,60.1046712 L24.9256757,61.4126132 L29.6351351,95.878033 C30.2554054,100.375518 34.4135135,103.542114 38.9162162,102.922563 C42.5,102.440689 45.3486486,99.6641809 45.9459459,96.1074965 L51.4594595,62.835287 C51.827027,60.5865446 53.7797297,58.9344073 56.0540541,58.9344073 C58.3513514,58.9344073 60.2810811,60.5865446 60.6716216,62.835287 L64.3702703,84.9326234 L68,84.3360182 L64.2783784,62.2157355 Z" id="Shape"></path>
                    <path d="M71.0892912,7 C67.978521,7 64.9131635,7.63749555 62.0521632,8.86695126 C56.9205278,11.0526503 51.1304081,11.0526503 46.021479,8.86695126 C37.0070574,4.99644255 26.5621356,7.27321238 20,14.5588758 L22.6793495,17.0177873 C26.3350721,12.965137 31.5348266,10.6428317 36.984351,10.6428317 C39.5955815,10.6428317 42.1841056,11.1664888 44.5682725,12.2138029 C50.608162,14.7865528 57.4427739,14.7865528 63.459957,12.2138029 C73.2463946,8.00177873 84.5768641,12.5553184 88.7775391,22.3681964 C89.7993249,24.7815724 90.3442774,27.3543223 90.3442774,29.9726076 C90.3442774,39.603344 87.6422215,49.0519388 82.5559988,57.2255425 L81.5569193,58.8420491 C81.4206812,59.0697261 81.3298558,59.3201708 81.3071494,59.5706154 L79.8312366,70.4991106 L83.4188401,71 L84.8493403,60.4585557 L85.6440626,59.1607969 C91.093587,50.4180007 94,40.286375 94,29.9726076 C94,17.2909996 83.7367291,7 71.0892912,7 Z" id="Shape"></path>
                </g>
            </g>
        </g>
    </g>
</svg>