<?xml version="1.0" encoding="UTF-8"?>
<svg width="106px" height="38px" viewBox="0 0 106 38" version="1.1" xmlns="http://www.w3.org/2000/svg" xmlns:xlink="http://www.w3.org/1999/xlink">
    <!-- Generator: Sketch 51.2 (57519) - http://www.bohemiancoding.com/sketch -->
    <title>DepZdravMos</title>
    <desc>Created with Sketch.</desc>
    <defs></defs>
    <g id="Page-1-Copy" stroke="none" stroke-width="1" fill="none" fill-rule="evenodd">
        <g id="О-клинике" transform="translate(-136.000000, -909.000000)" fill-rule="nonzero">
            <g id="DepZdravMos" transform="translate(136.000000, 909.900857)">
                <path d="M3.15028441,15.7402619 L3.15028441,3.15028441 L17.3265642,3.15028441 C17.3265642,3.15028441 6.9420912,5.7223366 4.64080025,15.4351032 C4.59985201,15.6007608 4.4770073,15.7402619 4.31321435,15.7489808 C4.07571457,15.7576996 3.69080114,15.7402619 3.15028441,15.7402619 Z" id="Shape" fill="#7B7B7B"></path>
                <path d="M28.3525597,1.5751422 C28.3525597,1.5751422 22.3747142,4.58414856 26.8882094,14.7168393 C26.8882094,14.7168393 27.5284664,15.7435344 28.3525597,15.7435344 C28.3525597,16.1384171 28.3525597,1.5751422 28.3525597,1.5751422 Z" id="Shape" fill="#7B7B7B"></path>
                <g id="Group" transform="translate(7.875711, 3.150284)" fill="#7B7B7B">
                    <path d="M7.4446975,17.4413097 C7.4446975,17.4655427 7.4446975,17.4655427 7.4446975,17.4897756 C7.4446975,17.4655427 7.4446975,17.4655427 7.4446975,17.4413097 Z" id="Shape"></path>
                    <path d="M19.038006,0.0708938894 C18.9905401,0.0466609325 18.8956083,0.0951268464 18.7532107,0.167825717 C18.9905401,0.119359803 19.0854719,0.0951268464 19.038006,0.0708938894 Z" id="Shape"></path>
                    <path d="M16.7107818,2.82899712 C15.4464211,3.02093498 5.57910229,4.18925238 1.80370343,10.3980248 C-3.51014835,19.1186797 4.67725057,20.2703068 4.73030067,20.3203776 C6.92303818,24.3677628 8.7886334,25.1271691 8.7886334,25.1271691 C0.866484983,16.3063728 8.82400013,8.23663764 8.85936686,8.23663764 C6.33948707,13.7277294 7.63037286,16.5316912 7.63037286,16.7653546 C8.3023408,13.8529063 11.9893228,11.7248996 11.9893228,11.7248996 C11.9893228,11.7248996 5.09280969,20.5790764 12.2192066,22.2147208 C17.5772668,23.441454 17.4446415,17.0323986 15.2165373,11.7582801 C12.6082407,5.59957838 15.9592387,3.1294216 16.7107818,2.82899712 Z M9.56670154,12.9182523 C9.35450114,13.4356501 8.85936686,13.7360745 8.47033279,13.5942074 C8.07245703,13.4523403 7.9309901,12.9099072 8.1431905,12.3925095 C8.3553909,11.8751118 8.85052518,11.5746873 9.23955925,11.7165545 C9.63743501,11.8667667 9.77890195,12.4008546 9.56670154,12.9182523 Z" id="Shape"></path>
                </g>
                <path d="M18.9017064,27.0428874 C18.9017064,27.0428874 19.7595901,27.6421565 20.2457241,27.7155364 C20.7318582,27.7889163 24.0204121,27.4525918 24.0204121,27.4525918 C24.0204121,27.4525918 23.3817654,27.8378362 23.3817654,27.9295611 C23.3817654,28.0212859 24.0585402,28.4309903 24.2777771,28.3392654 C24.5065461,28.2414256 27.3375621,27.5932366 28.7959642,27.5748916 L28.0524651,27.2385671 C28.0524651,27.2385671 28.7292399,27.1407273 29.1772458,27.2141072 C29.6252517,27.287487 30.0732576,25.7281644 29.8826168,25.2022753 C29.8921489,25.2022753 22.114004,25.9177292 18.9017064,27.0428874 Z" id="Shape" fill="#7B7B7B"></path>
                <path d="M14.1762798,29.9418923 C14.1762798,29.9418923 13.6010105,29.7087632 13.278511,29.1816886 C13.23493,29.1816886 13.5661457,28.9485594 13.8886452,29.1310083 C13.8886452,29.1310083 11.7270271,27.3774716 10.9077041,24.5292415 C10.9077041,24.5292415 9.478247,24.7218265 8.65892402,25.0968603 C8.5804782,25.1475406 8.17081671,24.2454321 8.04878988,23.627133 C8.00520887,23.627133 4.57974152,24.3873368 3.72555373,25.6239349 C3.76913474,25.6239349 4.0131884,26.4753632 4.33568787,26.6679481 C4.29210686,26.5260434 5.15501085,26.3334585 5.3990645,26.4753632 C5.35548349,26.4246829 3.60352691,27.3267914 3.15028441,28.5127093 C3.15028441,28.5127093 3.84758056,30.2662459 4.37055267,30.2662459 C4.37055267,30.1750215 8.24926253,29.4553619 9.43466599,29.5060422 C9.43466599,29.5060422 8.65892402,30.0331168 8.33642455,30.6007356 C8.29284354,30.6514158 9.0337207,31.1278102 9.15574753,31.5028441 C9.23419334,31.5028441 13.3569568,29.9418923 14.1762798,29.9418923 Z" id="Shape" fill="#7B7B7B"></path>
                <path d="M29.5505551,1.89767132 L29.5505551,29.5260406 C29.5505551,30.7336496 29.1068531,31.3288284 27.9177317,31.7256142 C26.5067592,32.1914062 24.501226,32.1914062 22.735292,32.1914062 C19.4430229,32.1914062 17.1268983,33.1229903 15.7869182,33.8906846 C14.4646861,33.1143646 12.1840577,32.1914062 8.77642614,32.1914062 C6.79751509,32.1914062 4.8984704,32.1569031 3.54961623,31.6824853 C2.38711692,31.2856995 1.95228893,30.7077723 1.95228893,29.5260406 L1.95228893,1.89767132 L15.751422,1.89767132 L29.5505551,1.89767132 Z M31.5028441,0 L15.751422,0 L0,0 C0,0 0,25.4891762 0,29.5260406 C0,33.9683166 4.78310787,34.0890775 8.76755209,34.0890775 C13.6216523,34.0890775 15.7070518,36.1851418 15.751422,36.2282707 C15.7957922,36.1851418 18.1207909,34.0890775 22.735292,34.0890775 C26.5600035,34.0890775 31.5028441,34.0890775 31.5028441,29.5260406 C31.5028441,25.4891762 31.5028441,0 31.5028441,0 Z" id="Shape" fill="#7B7B7B"></path>
                <g id="Group" transform="translate(36.228271, 1.575142)">
                    <path d="M5.86846084,6.89175199 C5.86846084,6.91749951 5.85960946,6.94324703 5.85075809,6.96041204 C5.83305534,6.97757705 5.80650122,6.99474206 5.77109572,7.01190707 C5.73569023,7.02048958 5.68258199,7.03765459 5.62062237,7.03765459 C5.55866275,7.04623709 5.47014902,7.04623709 5.3727839,7.04623709 C5.27541879,7.04623709 5.18690505,7.04623709 5.12494544,7.03765459 C5.06298582,7.02907208 5.00987758,7.02048958 4.97447208,7.01190707 C4.93906659,7.00332457 4.90366109,6.98615955 4.89480972,6.96041204 C4.87710697,6.94324703 4.8682556,6.91749951 4.8682556,6.89175199 L4.8682556,5.58721114 L1.06216486,5.58721114 L1.06216486,6.89175199 C1.06216486,6.91749951 1.05331348,6.94324703 1.03561074,6.96041204 C1.01790799,6.97757705 0.991353867,6.99474206 0.955948372,7.01190707 C0.920542876,7.02048958 0.867434634,7.03765459 0.796623643,7.03765459 C0.734664026,7.04623709 0.646150288,7.04623709 0.548785176,7.04623709 C0.451420064,7.04623709 0.362906326,7.04623709 0.30094671,7.03765459 C0.238987093,7.02907208 0.18587885,7.02048958 0.141621981,7.01190707 C0.106216486,7.00332457 0.0708109905,6.98615955 0.0619596167,6.96041204 C0.0442568691,6.94324703 0.0442568691,6.91749951 0.0442568691,6.89175199 L0.0442568691,4.90061069 C0.0354054952,4.81478564 0.0531082429,4.7547081 0.0885137381,4.72037808 C0.123919233,4.68604805 0.177027476,4.66888304 0.256689841,4.66888304 L0.522231055,4.66888304 C0.593042045,4.57447548 0.663853036,4.47148541 0.725812653,4.36849535 C0.787772269,4.26550528 0.849731886,4.1453502 0.911691503,3.99944761 C0.973651119,3.86212752 1.02675936,3.69047741 1.08871898,3.49307978 C1.1506786,3.29568215 1.20378684,3.05537199 1.25689508,2.77214931 C1.31000332,2.48892662 1.37196294,2.1542089 1.42507118,1.76799615 C1.47817943,1.3817834 1.54013904,0.926910604 1.60209866,0.403377763 C1.61980141,0.274640179 1.6552069,0.180232617 1.69946377,0.120155078 C1.75257201,0.0600775392 1.82338301,0.0343300224 1.92959949,0.0343300224 L4.85055285,0.0343300224 C4.95676933,0.0343300224 5.0364317,0.0600775392 5.08953994,0.120155078 C5.15149956,0.180232617 5.17805368,0.266057673 5.17805368,0.386212752 L5.17805368,4.65171803 L5.66487924,4.65171803 C5.7445416,4.65171803 5.79764985,4.66888304 5.83305534,4.71179557 C5.86846084,4.7547081 5.87731221,4.81478564 5.87731221,4.88344568 L5.87731221,6.89175199 L5.86846084,6.89175199 Z M4.00967234,0.952658121 L2.67311489,0.952658121 C2.62000665,1.39036591 2.56689841,1.76799615 2.51379016,2.09413137 C2.46068192,2.42026658 2.40757368,2.71207177 2.36331681,2.96096443 C2.31020856,3.20985709 2.25710032,3.42441973 2.20399208,3.60465235 C2.15088384,3.78488497 2.09777559,3.93937007 2.04466735,4.06810765 C1.99155911,4.19684524 1.92959949,4.30841781 1.87649125,4.40282537 C1.81453163,4.49723293 1.76142339,4.58305799 1.69946377,4.66030054 L4.00967234,4.66030054 L4.00967234,0.952658121 Z" id="Shape" fill="#7B7B7B"></path>
                    <path d="M10.1967826,3.42441973 C10.1967826,3.55315732 10.1702285,3.65614738 10.1082689,3.71622492 C10.0463093,3.77630246 9.96664691,3.81063248 9.86043043,3.81063248 L7.46170812,3.81063248 C7.46170812,3.97370009 7.47941087,4.11960269 7.52366774,4.25692277 C7.55907323,4.38566036 7.62988423,4.50581544 7.70954659,4.59164049 C7.79806033,4.68604805 7.90427681,4.7547081 8.04589879,4.80620313 C8.1786694,4.85769817 8.3468455,4.87486318 8.54157573,4.87486318 C8.73630595,4.87486318 8.90448205,4.85769817 9.05495541,4.83195065 C9.20542876,4.80620313 9.329348,4.77187311 9.43556448,4.74612559 C9.54178097,4.71179557 9.63029471,4.68604805 9.7011057,4.66030054 C9.77191669,4.63455302 9.82502493,4.61738801 9.8692818,4.61738801 C9.89583592,4.61738801 9.91353867,4.62597052 9.93124142,4.63455302 C9.94894416,4.64313553 9.96664691,4.66030054 9.97549829,4.68604805 C9.98434966,4.71179557 9.99320103,4.74612559 10.0020524,4.79762063 C10.0109038,4.84911566 10.0109038,4.90061069 10.0109038,4.97785324 C10.0109038,5.03793078 10.0109038,5.09800832 10.0109038,5.14092085 C10.0109038,5.18383338 10.0020524,5.22674591 10.0020524,5.25249342 C9.99320103,5.28682345 9.98434966,5.31257096 9.97549829,5.32973597 C9.96664691,5.34690099 9.94894416,5.3726485 9.93124142,5.38981351 C9.91353867,5.40697852 9.86043043,5.43272604 9.77191669,5.46705606 C9.68340295,5.50138609 9.57718646,5.53571611 9.44441586,5.57004613 C9.31164525,5.60437615 9.16117189,5.63012367 8.99299579,5.65587119 C8.82481969,5.6816187 8.63894084,5.69020121 8.44421062,5.69020121 C8.09015566,5.69020121 7.78920895,5.64728868 7.52366774,5.56146363 C7.25812653,5.47563857 7.03684218,5.34690099 6.8598147,5.17525087 C6.68278723,5.00360076 6.55001662,4.78045562 6.46150288,4.51439794 C6.37298914,4.24834027 6.32873228,3.93937007 6.32873228,3.57890483 C6.32873228,3.23560461 6.37298914,2.93521691 6.46150288,2.66057673 C6.55001662,2.38593656 6.68278723,2.1542089 6.8598147,1.96539378 C7.03684218,1.77657866 7.24042378,1.63067606 7.49711362,1.527686 C7.74495208,1.42469593 8.02819605,1.3817834 8.33799413,1.3817834 C8.66549496,1.3817834 8.94873892,1.42469593 9.18772602,1.51910349 C9.42671311,1.61351105 9.61259196,1.74224864 9.76306531,1.91389875 C9.91353867,2.08554886 10.0197552,2.27436398 10.0905661,2.50609163 C10.1613771,2.73781928 10.1967826,2.98671195 10.1967826,3.25276962 L10.1967826,3.42441973 Z M9.11691503,3.11544953 C9.1257664,2.81506184 9.06380678,2.57475168 8.93103618,2.40310157 C8.79826557,2.23145145 8.5858326,2.1456264 8.31144001,2.1456264 C8.16981803,2.1456264 8.04589879,2.17137392 7.93968231,2.22286895 C7.83346582,2.27436398 7.74495208,2.34302403 7.68299247,2.42884908 C7.61218148,2.51467414 7.55907323,2.61766421 7.52366774,2.73781928 C7.48826224,2.85797436 7.46170812,2.98671195 7.46170812,3.11544953 L9.11691503,3.11544953 Z" id="Shape" fill="#7B7B7B"></path>
                    <path d="M14.8260511,5.44130855 C14.8260511,5.46705606 14.8171998,5.49280358 14.799497,5.5185511 C14.7817943,5.54429861 14.7552401,5.56146363 14.7109833,5.57004613 C14.6667264,5.58721114 14.6136182,5.59579365 14.5428072,5.60437615 C14.4719962,5.61295866 14.3834824,5.61295866 14.277266,5.61295866 C14.1710495,5.61295866 14.0825357,5.61295866 14.0117247,5.60437615 C13.9409138,5.59579365 13.8789541,5.58721114 13.8346973,5.57004613 C13.7904404,5.55288112 13.7638863,5.53571611 13.7461835,5.5185511 C13.7284808,5.50138609 13.7196294,5.47563857 13.7196294,5.44130855 L13.7196294,2.36877154 L12.2325986,2.36877154 L12.2325986,5.44130855 C12.2325986,5.46705606 12.2237472,5.49280358 12.2060445,5.5185511 C12.1883417,5.53571611 12.1529362,5.56146363 12.1175307,5.57004613 C12.0732739,5.58721114 12.0201656,5.59579365 11.9493546,5.60437615 C11.8785437,5.61295866 11.7900299,5.61295866 11.6838134,5.61295866 C11.5775969,5.61295866 11.4890832,5.61295866 11.4182722,5.60437615 C11.3474612,5.59579365 11.294353,5.58721114 11.2500961,5.57004613 C11.2058392,5.55288112 11.1792851,5.53571611 11.1615824,5.5185511 C11.1438796,5.50138609 11.1350283,5.47563857 11.1350283,5.44130855 L11.1350283,1.82807369 C11.1350283,1.71650112 11.1615824,1.63067606 11.2058392,1.57059852 C11.2589475,1.51052098 11.3297585,1.48477347 11.435975,1.48477347 L14.5339558,1.48477347 C14.6401723,1.48477347 14.7109833,1.51052098 14.7640915,1.57059852 C14.8171998,1.63067606 14.8349025,1.71650112 14.8349025,1.82807369 L14.8349025,5.44130855 L14.8260511,5.44130855 Z" id="Shape" fill="#7B7B7B"></path>
                    <path d="M19.2959949,5.45847356 C19.2959949,5.50138609 19.2782922,5.5271336 19.251738,5.55288112 C19.2251839,5.57862864 19.1720757,5.59579365 19.1101161,5.60437615 C19.0481564,5.61295866 18.9507913,5.62154116 18.8268721,5.62154116 C18.6941015,5.62154116 18.5967364,5.61295866 18.5347768,5.60437615 C18.4728171,5.59579365 18.4285603,5.57862864 18.4108575,5.55288112 C18.3843034,5.5271336 18.375452,5.50138609 18.375452,5.45847356 L18.375452,5.14950336 C18.2161273,5.32115347 18.0302485,5.44989105 17.8178155,5.54429861 C17.6142339,5.63870618 17.3840982,5.6816187 17.1274083,5.6816187 C16.9149754,5.6816187 16.7290965,5.65587119 16.552069,5.60437615 C16.3750416,5.55288112 16.2245682,5.47563857 16.100649,5.3726485 C15.9767297,5.26965844 15.8705132,5.14092085 15.7997023,4.98643575 C15.7288913,4.83195065 15.6934858,4.65171803 15.6934858,4.4457379 C15.6934858,4.22259275 15.7377426,4.03377763 15.8262564,3.86212752 C15.9147701,3.69905991 16.0475407,3.56173982 16.2245682,3.45874975 C16.4015957,3.35575969 16.62288,3.26993463 16.8884212,3.2184396 C17.1539624,3.16694456 17.4637605,3.14119705 17.8089641,3.14119705 L18.1895732,3.14119705 L18.1895732,2.9094694 C18.1895732,2.78931432 18.1807218,2.68632425 18.1541677,2.59191669 C18.1276136,2.50609163 18.0922081,2.42884908 18.0302485,2.36877154 C17.9771402,2.308694 17.8974778,2.26578148 17.8001127,2.24003396 C17.7027476,2.21428644 17.5876798,2.19712143 17.4460578,2.19712143 C17.2601789,2.19712143 17.0920028,2.21428644 16.9503808,2.25719897 C16.8087589,2.3001115 16.6759883,2.34302403 16.5609204,2.38593656 C16.4458525,2.43743159 16.3573388,2.48034412 16.2776764,2.51467414 C16.2068654,2.55758667 16.1449058,2.57475168 16.0917976,2.57475168 C16.0563921,2.57475168 16.029838,2.56616917 16.0032839,2.54900416 C15.9767297,2.53183915 15.959027,2.49750913 15.9413242,2.46317911 C15.9236215,2.42884908 15.9147701,2.37735405 15.9059187,2.32585902 C15.8970674,2.27436398 15.8970674,2.21428644 15.8970674,2.1456264 C15.8970674,2.05980134 15.9059187,1.9911413 15.9147701,1.93964626 C15.9324729,1.88815123 15.959027,1.8452387 15.9944325,1.80232617 C16.0386893,1.75941365 16.1095003,1.71650112 16.2068654,1.66500609 C16.3130819,1.61351105 16.4281498,1.57059852 16.5697718,1.527686 C16.7113938,1.48477347 16.8618671,1.45044345 17.0211918,1.42469593 C17.1805166,1.39894841 17.3486927,1.3817834 17.5257201,1.3817834 C17.8355182,1.3817834 18.1010594,1.40753092 18.3223438,1.46760846 C18.5436281,1.527686 18.7206556,1.61351105 18.8622776,1.73366613 C19.0038996,1.85382121 19.1101161,2.00830631 19.1720757,2.20570394 C19.2340353,2.39451906 19.2694408,2.62624671 19.2694408,2.88372188 L19.2694408,5.45847356 L19.2959949,5.45847356 Z M18.2072759,3.81921499 L17.78241,3.81921499 C17.6053825,3.81921499 17.4460578,3.8277975 17.3221385,3.85354501 C17.1982193,3.87929253 17.0920028,3.91362255 17.0123405,3.96511758 C16.9326781,4.01661262 16.8707185,4.07669016 16.835313,4.15393271 C16.7999075,4.22259275 16.7822047,4.30841781 16.7822047,4.40282537 C16.7822047,4.56589298 16.835313,4.68604805 16.9415295,4.78045562 C17.047746,4.87486318 17.1893679,4.91777571 17.3752468,4.91777571 C17.5345715,4.91777571 17.6761935,4.88344568 17.8089641,4.80620313 C17.9417347,4.72896058 18.0745053,4.61738801 18.2072759,4.47148541 L18.2072759,3.81921499 Z" id="Shape" fill="#7B7B7B"></path>
                    <path d="M24.3766835,3.47591477 C24.3766835,3.81921499 24.341278,4.11960269 24.2616156,4.39424286 C24.1908046,4.66888304 24.0757368,4.90061069 23.9341148,5.08942582 C23.7924928,5.27824094 23.606614,5.42414354 23.394181,5.5271336 C23.181748,5.63012367 22.9339095,5.6816187 22.659517,5.6816187 C22.5444491,5.6816187 22.4382326,5.6730362 22.3408675,5.64728868 C22.2435024,5.63012367 22.1549886,5.59579365 22.0664749,5.55288112 C21.9779612,5.50996859 21.8894474,5.44989105 21.8009337,5.38981351 C21.71242,5.32115347 21.6239062,5.24391092 21.5265411,5.15808586 L21.5265411,6.96041204 C21.5265411,6.98615955 21.5176897,7.01190707 21.499987,7.03765459 C21.4822842,7.0634021 21.4557301,7.08056712 21.4114732,7.09773213 C21.3672164,7.11489714 21.3141081,7.12347964 21.2432971,7.13206215 C21.1724862,7.14064465 21.0839724,7.14064465 20.9777559,7.14064465 C20.8715394,7.14064465 20.7830257,7.14064465 20.7122147,7.13206215 C20.6414037,7.12347964 20.5882955,7.11489714 20.5440386,7.09773213 C20.4997817,7.08056712 20.4732276,7.0634021 20.4555249,7.03765459 C20.4378221,7.01190707 20.4289708,6.98615955 20.4289708,6.96041204 L20.4289708,1.62209356 C20.4289708,1.59634604 20.4378221,1.57059852 20.4466735,1.54485101 C20.4643763,1.527686 20.4909304,1.50193848 20.5263359,1.49335597 C20.5617414,1.47619096 20.6148496,1.46760846 20.6679578,1.45902595 C20.7299175,1.45044345 20.8007285,1.45044345 20.8980936,1.45044345 C20.9866073,1.45044345 21.0574183,1.45044345 21.1193779,1.45902595 C21.1813375,1.46760846 21.2255944,1.47619096 21.2609999,1.49335597 C21.2964054,1.51052098 21.3229595,1.527686 21.3406623,1.54485101 C21.358365,1.56201602 21.358365,1.58776353 21.358365,1.62209356 L21.358365,2.06838385 C21.4734329,1.95681128 21.5885007,1.85382121 21.6947172,1.76799615 C21.8009337,1.6821711 21.9160016,1.60492855 22.0310694,1.55343351 C22.1461373,1.49335597 22.2612051,1.45044345 22.3851244,1.42469593 C22.5090436,1.39894841 22.6418142,1.3817834 22.7745848,1.3817834 C23.0666802,1.3817834 23.3056672,1.43327843 23.5092488,1.54485101 C23.7128304,1.65642358 23.8810065,1.80232617 24.0049258,1.9997238 C24.128845,2.18853893 24.2262101,2.41168407 24.2881697,2.66915924 C24.341278,2.9180519 24.3766835,3.19269208 24.3766835,3.47591477 Z M23.2171535,3.55315732 C23.2171535,3.39008971 23.2083021,3.23560461 23.181748,3.08111951 C23.1551939,2.93521691 23.110937,2.79789682 23.0578288,2.67774175 C22.9958692,2.55758667 22.9162068,2.46317911 22.8188417,2.39451906 C22.7214766,2.32585902 22.5975573,2.29152899 22.447084,2.29152899 C22.376273,2.29152899 22.2966106,2.3001115 22.2257996,2.32585902 C22.1549886,2.34302403 22.0841777,2.38593656 22.0045153,2.42884908 C21.9337043,2.48034412 21.8540419,2.54042166 21.7743796,2.61766421 C21.6947172,2.69490676 21.6150548,2.78931432 21.5265411,2.90088689 L21.5265411,4.16251521 C21.6858658,4.35133034 21.8274878,4.50581544 21.9691098,4.6088055 C22.1107318,4.71179557 22.2612051,4.7632906 22.4116785,4.7632906 C22.5533005,4.7632906 22.6772197,4.72896058 22.7834362,4.66030054 C22.8808013,4.59164049 22.969315,4.49723293 23.0312747,4.37707785 C23.0932343,4.25692277 23.1463425,4.12818519 23.1728966,3.9822826 C23.1994508,3.84496251 23.2171535,3.69905991 23.2171535,3.55315732 Z" id="Shape" fill="#7B7B7B"></path>
                    <path d="M28.1827742,1.95681128 C28.1827742,2.05121884 28.1827742,2.12846139 28.1739228,2.18853893 C28.1650715,2.24861647 28.1562201,2.3001115 28.1385173,2.33444152 C28.1208146,2.36877154 28.1031119,2.39451906 28.0854091,2.41168407 C28.0677064,2.42884908 28.0411522,2.42884908 28.0145981,2.42884908 L27.0232442,2.42884908 L27.0232442,5.43272604 C27.0232442,5.45847356 27.0143929,5.48422107 26.9966901,5.50996859 C26.9789874,5.53571611 26.9524333,5.55288112 26.9081764,5.56146363 C26.8639195,5.57862864 26.8108113,5.58721114 26.7400003,5.59579365 C26.6691893,5.60437615 26.5806756,5.60437615 26.4656077,5.60437615 C26.3593912,5.60437615 26.2708775,5.60437615 26.2000665,5.59579365 C26.1292555,5.58721114 26.0761472,5.57862864 26.0318904,5.56146363 C25.9876335,5.54429861 25.9610794,5.5271336 25.9433766,5.50996859 C25.9256739,5.49280358 25.9168225,5.46705606 25.9168225,5.43272604 L25.9168225,2.42884908 L24.9254687,2.42884908 C24.8989145,2.42884908 24.8723604,2.42026658 24.8458063,2.40310157 C24.8281035,2.38593656 24.8015494,2.36018904 24.792698,2.32585902 C24.7749953,2.29152899 24.7661439,2.24003396 24.7572926,2.17137392 C24.7484412,2.10271387 24.7484412,2.02547132 24.7484412,1.93106376 C24.7484412,1.8452387 24.7484412,1.77657866 24.7572926,1.71650112 C24.7661439,1.65642358 24.7749953,1.61351105 24.792698,1.57059852 C24.8104008,1.5362685 24.8281035,1.51052098 24.8458063,1.49335597 C24.863509,1.47619096 24.8900632,1.46760846 24.9166173,1.46760846 L28.0057467,1.46760846 C28.0323009,1.46760846 28.058855,1.47619096 28.0765577,1.49335597 C28.0942605,1.51052098 28.1208146,1.5362685 28.129666,1.57059852 C28.1473687,1.60492855 28.1562201,1.65642358 28.1650715,1.71650112 C28.1827742,1.79374367 28.1827742,1.86240371 28.1827742,1.95681128 Z" id="Shape" fill="#7B7B7B"></path>
                    <path d="M32.1393383,5.45847356 C32.1393383,5.50138609 32.1216356,5.5271336 32.0950814,5.55288112 C32.0685273,5.57862864 32.0154191,5.59579365 31.9534595,5.60437615 C31.8914998,5.61295866 31.7941347,5.62154116 31.6702155,5.62154116 C31.5374449,5.62154116 31.4400798,5.61295866 31.3781202,5.60437615 C31.3161605,5.59579365 31.2719037,5.57862864 31.2542009,5.55288112 C31.2276468,5.5271336 31.2187954,5.50138609 31.2187954,5.45847356 L31.2187954,5.14950336 C31.0594707,5.32115347 30.8735919,5.44989105 30.6611589,5.54429861 C30.4575773,5.63870618 30.2274416,5.6816187 29.9707517,5.6816187 C29.7583188,5.6816187 29.5724399,5.65587119 29.3954124,5.60437615 C29.218385,5.55288112 29.0679116,5.47563857 28.9439924,5.3726485 C28.8200731,5.26965844 28.7138566,5.14092085 28.6430457,4.98643575 C28.5722347,4.83195065 28.5368292,4.65171803 28.5368292,4.4457379 C28.5368292,4.22259275 28.581086,4.03377763 28.6695998,3.86212752 C28.7581135,3.69905991 28.8908841,3.56173982 29.0679116,3.45874975 C29.2449391,3.35575969 29.4662234,3.26993463 29.7317646,3.2184396 C29.9973058,3.16694456 30.3071039,3.14119705 30.6523075,3.14119705 L31.0329166,3.14119705 L31.0329166,2.9094694 C31.0329166,2.78931432 31.0240652,2.68632425 30.9975111,2.59191669 C30.970957,2.50609163 30.9355515,2.42884908 30.8735919,2.36877154 C30.8204836,2.308694 30.7408212,2.26578148 30.6434561,2.24003396 C30.546091,2.21428644 30.4310232,2.19712143 30.2894012,2.19712143 C30.1035223,2.19712143 29.9353462,2.21428644 29.7937242,2.25719897 C29.6521023,2.3001115 29.5193317,2.34302403 29.4042638,2.38593656 C29.2891959,2.43743159 29.2006822,2.48034412 29.1210198,2.51467414 C29.0502088,2.55758667 28.9882492,2.57475168 28.935141,2.57475168 C28.8997355,2.57475168 28.8731814,2.56616917 28.8466273,2.54900416 C28.8200731,2.53183915 28.8023704,2.49750913 28.7846676,2.46317911 C28.7669649,2.42884908 28.7581135,2.37735405 28.7492621,2.32585902 C28.7404108,2.27436398 28.7404108,2.21428644 28.7404108,2.1456264 C28.7404108,2.05980134 28.7492621,1.9911413 28.7581135,1.93964626 C28.7758163,1.88815123 28.8023704,1.8452387 28.8377759,1.80232617 C28.8820327,1.75941365 28.9528437,1.71650112 29.0502088,1.66500609 C29.1564253,1.61351105 29.2714932,1.57059852 29.4131152,1.527686 C29.5547372,1.48477347 29.7052105,1.45044345 29.8645352,1.42469593 C30.02386,1.39894841 30.1920361,1.3817834 30.3690635,1.3817834 C30.6788616,1.3817834 30.9444028,1.40753092 31.1656872,1.46760846 C31.3869715,1.527686 31.563999,1.61351105 31.705621,1.73366613 C31.847243,1.85382121 31.9534595,2.00830631 32.0154191,2.20570394 C32.0773787,2.39451906 32.1127842,2.62624671 32.1127842,2.88372188 L32.1127842,5.45847356 L32.1393383,5.45847356 Z M31.0506193,3.81921499 L30.6257534,3.81921499 C30.4487259,3.81921499 30.2894012,3.8277975 30.1654819,3.85354501 C30.0415627,3.87929253 29.9353462,3.91362255 29.8556839,3.96511758 C29.7760215,4.01661262 29.7140619,4.07669016 29.6786564,4.15393271 C29.6432509,4.22259275 29.6255481,4.30841781 29.6255481,4.40282537 C29.6255481,4.56589298 29.6786564,4.68604805 29.7848729,4.78045562 C29.8910894,4.87486318 30.0327113,4.91777571 30.2185902,4.91777571 C30.3779149,4.91777571 30.5195369,4.88344568 30.6523075,4.80620313 C30.7850781,4.72896058 30.9178487,4.61738801 31.0506193,4.47148541 L31.0506193,3.81921499 Z" id="Shape" fill="#7B7B7B"></path>
                    <path d="M38.8044228,5.42414354 C38.8132742,5.49280358 38.7778687,5.54429861 38.7070577,5.57004613 C38.6362467,5.59579365 38.5034761,5.61295866 38.3175972,5.61295866 C38.2025294,5.61295866 38.1140156,5.61295866 38.0432046,5.61295866 C37.9723937,5.61295866 37.9192854,5.60437615 37.8838799,5.59579365 C37.8484744,5.58721114 37.8219203,5.57004613 37.8130689,5.54429861 C37.8042175,5.5271336 37.7953662,5.49280358 37.7865148,5.45847356 L37.5563791,3.40725472 C37.5475277,3.33001217 37.5386763,3.25276962 37.529825,3.15836206 C37.5209736,3.0639545 37.5121222,2.97812944 37.5121222,2.88372188 C37.5121222,2.78931432 37.4944195,2.69490676 37.4944195,2.6004992 C37.4855681,2.50609163 37.4855681,2.42026658 37.4767167,2.35160653 L37.4767167,2.24861647 C37.459014,2.32585902 37.4324598,2.41168407 37.4059057,2.49750913 C37.3793516,2.59191669 37.3527975,2.67774175 37.3262434,2.77214931 C37.2996892,2.86655687 37.2731351,2.96096443 37.246581,3.05537199 C37.2200269,3.14977955 37.1934728,3.23560461 37.17577,3.30426465 L36.4853629,5.41556103 C36.4765115,5.44989105 36.4588087,5.47563857 36.4322546,5.50138609 C36.4057005,5.5271336 36.3791464,5.54429861 36.3348895,5.56146363 C36.2906326,5.57862864 36.2375244,5.58721114 36.1755648,5.59579365 C36.1136051,5.60437615 36.0250914,5.60437615 35.9277263,5.60437615 C35.8392126,5.60437615 35.7595502,5.60437615 35.6975906,5.59579365 C35.635631,5.58721114 35.5825227,5.57862864 35.5382659,5.56146363 C35.494009,5.54429861 35.4586035,5.5271336 35.4409007,5.50138609 C35.4143466,5.47563857 35.4054952,5.44130855 35.3966439,5.40697852 L34.7239395,3.29568215 C34.6973853,3.2184396 34.6708312,3.14119705 34.6442771,3.04678949 C34.617723,2.95238192 34.5911689,2.86655687 34.5646147,2.77214931 C34.5380606,2.67774175 34.5115065,2.58333418 34.4849524,2.48892662 C34.4583982,2.39451906 34.4406955,2.308694 34.4229928,2.23145145 L34.4318441,2.33444152 C34.4229928,2.41168407 34.4229928,2.48892662 34.4141414,2.58333418 C34.40529,2.67774175 34.40529,2.77214931 34.3964386,2.86655687 C34.3875873,2.96096443 34.3787359,3.05537199 34.3698845,3.14119705 C34.3610331,3.23560461 34.3521818,3.31284716 34.3521818,3.39008971 L34.1308974,5.41556103 C34.122046,5.44989105 34.1131947,5.48422107 34.1043433,5.50996859 C34.0866405,5.53571611 34.0600864,5.55288112 34.0246809,5.57004613 C33.9804241,5.58721114 33.9273158,5.59579365 33.8565048,5.59579365 C33.7856938,5.59579365 33.6971801,5.60437615 33.5821122,5.60437615 C33.4758958,5.60437615 33.3962334,5.60437615 33.3342738,5.59579365 C33.2723142,5.58721114 33.2280573,5.57862864 33.1926518,5.56146363 C33.1572463,5.54429861 33.1395435,5.5271336 33.1306922,5.50138609 C33.1218408,5.47563857 33.1129894,5.44989105 33.1218408,5.40697852 L33.5113012,1.82807369 C33.529004,1.70791861 33.5644095,1.61351105 33.6352205,1.55343351 C33.7060315,1.49335597 33.8033966,1.45902595 33.9450186,1.45902595 L34.5026551,1.45902595 C34.617723,1.45902595 34.7239395,1.46760846 34.8036018,1.48477347 C34.8832642,1.50193848 34.9540752,1.527686 35.0160348,1.57059852 C35.0779944,1.61351105 35.1311027,1.67358859 35.1665082,1.74224864 C35.210765,1.81949119 35.2461705,1.90531624 35.2727246,2.01688881 L35.7152933,3.33001217 C35.7418474,3.41583723 35.7684016,3.50166228 35.7949557,3.59606984 C35.8215098,3.69047741 35.8480639,3.78488497 35.8746181,3.87071002 C35.9011722,3.96511758 35.9277263,4.05094264 35.945429,4.1367677 C35.9631318,4.22259275 35.9896859,4.30841781 36.0073887,4.38566036 L36.01624,4.38566036 C36.0339428,4.30841781 36.0516455,4.22259275 36.0781997,4.1367677 C36.1047538,4.04236014 36.1224565,3.95653508 36.1490106,3.86212752 C36.1755648,3.76771996 36.2021189,3.67331239 36.228673,3.58748734 C36.2552271,3.49307978 36.2817813,3.40725472 36.3083354,3.33001217 L36.7509041,2.02547132 C36.7774582,1.92248125 36.8128637,1.8366562 36.8482692,1.75941365 C36.8836747,1.6907536 36.9279315,1.63067606 36.9810398,1.58776353 C37.034148,1.54485101 37.104959,1.51052098 37.1846214,1.49335597 C37.2642837,1.47619096 37.3705002,1.45902595 37.4855681,1.45902595 L38.0432046,1.45902595 C38.1848266,1.45902595 38.2910431,1.49335597 38.3618541,1.55343351 C38.4326651,1.61351105 38.4680706,1.70791861 38.4857733,1.82807369 L38.8044228,5.42414354 Z" id="Shape" fill="#7B7B7B"></path>
                    <path d="M43.3451776,3.42441973 C43.3451776,3.55315732 43.3186234,3.65614738 43.2566638,3.71622492 C43.1947042,3.77630246 43.1150418,3.81063248 43.0088253,3.81063248 L40.610103,3.81063248 C40.610103,3.97370009 40.6278058,4.11960269 40.6720627,4.25692277 C40.7074682,4.38566036 40.7782791,4.50581544 40.8579415,4.59164049 C40.9464553,4.68604805 41.0526717,4.7547081 41.1942937,4.80620313 C41.3270643,4.85769817 41.4952404,4.87486318 41.6899707,4.87486318 C41.8847009,4.87486318 42.052877,4.85769817 42.2033503,4.83195065 C42.3538237,4.80620313 42.4777429,4.77187311 42.5839594,4.74612559 C42.6901759,4.71179557 42.7786896,4.68604805 42.8495006,4.66030054 C42.9203116,4.63455302 42.9734199,4.61738801 43.0176767,4.61738801 C43.0442308,4.61738801 43.0619336,4.62597052 43.0796363,4.63455302 C43.0973391,4.64313553 43.1150418,4.66030054 43.1238932,4.68604805 C43.1327446,4.71179557 43.141596,4.74612559 43.1504473,4.79762063 C43.1592987,4.84911566 43.1592987,4.90061069 43.1592987,4.97785324 C43.1592987,5.03793078 43.1592987,5.09800832 43.1592987,5.14092085 C43.1592987,5.18383338 43.1504473,5.22674591 43.1504473,5.25249342 C43.141596,5.28682345 43.1327446,5.31257096 43.1238932,5.32973597 C43.1150418,5.34690099 43.0973391,5.3726485 43.0796363,5.38981351 C43.0619336,5.40697852 43.0088253,5.43272604 42.9203116,5.46705606 C42.8317979,5.50138609 42.7255814,5.53571611 42.5928108,5.57004613 C42.4600402,5.60437615 42.3095668,5.63012367 42.1413907,5.65587119 C41.9732146,5.6816187 41.7873358,5.69020121 41.5926055,5.69020121 C41.2385506,5.69020121 40.9376039,5.64728868 40.6720627,5.56146363 C40.4065214,5.47563857 40.1852371,5.34690099 40.0082096,5.17525087 C39.8311822,5.00360076 39.6984115,4.78045562 39.6098978,4.51439794 C39.5213841,4.24834027 39.4771272,3.93937007 39.4771272,3.57890483 C39.4771272,3.23560461 39.5213841,2.93521691 39.6098978,2.66057673 C39.6984115,2.38593656 39.8311822,2.1542089 40.0082096,1.96539378 C40.1852371,1.77657866 40.3888187,1.63067606 40.6455085,1.527686 C40.893347,1.42469593 41.176591,1.3817834 41.4863891,1.3817834 C41.8138899,1.3817834 42.0971338,1.42469593 42.3361209,1.51910349 C42.575108,1.61351105 42.7609869,1.74224864 42.9114602,1.91389875 C43.0619336,2.08554886 43.1681501,2.27436398 43.2389611,2.50609163 C43.3097721,2.73781928 43.3451776,2.98671195 43.3451776,3.25276962 L43.3451776,3.42441973 Z M42.2653099,3.11544953 C42.2741613,2.81506184 42.2122017,2.57475168 42.0794311,2.40310157 C41.9466605,2.23145145 41.7342275,2.1456264 41.4598349,2.1456264 C41.318213,2.1456264 41.1942937,2.17137392 41.0880772,2.22286895 C40.9818607,2.27436398 40.893347,2.34302403 40.8313874,2.42884908 C40.7605764,2.51467414 40.7074682,2.61766421 40.6720627,2.73781928 C40.6366572,2.85797436 40.610103,2.98671195 40.610103,3.11544953 L42.2653099,3.11544953 Z" id="Shape" fill="#606060"></path>
                    <path d="M48.0718112,5.44130855 C48.0718112,5.46705606 48.0629598,5.49280358 48.045257,5.5185511 C48.0275543,5.53571611 48.0010002,5.56146363 47.9567433,5.57004613 C47.9124864,5.58721114 47.8593782,5.59579365 47.7885672,5.60437615 C47.7177562,5.61295866 47.6292425,5.61295866 47.523026,5.61295866 C47.4168095,5.61295866 47.3194444,5.61295866 47.2486334,5.60437615 C47.1778224,5.59579365 47.1158628,5.58721114 47.0804573,5.57004613 C47.0362004,5.55288112 47.0096463,5.53571611 46.9919436,5.5185511 C46.9742408,5.50138609 46.9653894,5.47563857 46.9653894,5.44130855 L46.9653894,3.93937007 L45.3721422,3.93937007 L45.3721422,5.44130855 C45.3721422,5.46705606 45.3632908,5.49280358 45.345588,5.5185511 C45.3278853,5.53571611 45.3013312,5.56146363 45.2570743,5.57004613 C45.2128174,5.58721114 45.1597092,5.59579365 45.0888982,5.60437615 C45.0180872,5.61295866 44.9295735,5.61295866 44.823357,5.61295866 C44.7171405,5.61295866 44.6286268,5.61295866 44.5578158,5.60437615 C44.4870048,5.59579365 44.4338965,5.58721114 44.3896397,5.57004613 C44.3453828,5.55288112 44.3188287,5.53571611 44.3011259,5.5185511 C44.2834232,5.50138609 44.2745718,5.47563857 44.2745718,5.44130855 L44.2745718,1.62209356 C44.2745718,1.59634604 44.2834232,1.57059852 44.3011259,1.54485101 C44.3188287,1.51910349 44.3453828,1.50193848 44.3896397,1.49335597 C44.4338965,1.47619096 44.4870048,1.46760846 44.5578158,1.45902595 C44.6286268,1.45044345 44.7171405,1.45044345 44.823357,1.45044345 C44.9295735,1.45044345 45.0180872,1.45044345 45.0888982,1.45902595 C45.1597092,1.46760846 45.2128174,1.47619096 45.2570743,1.49335597 C45.3013312,1.51052098 45.3278853,1.527686 45.345588,1.54485101 C45.3632908,1.56201602 45.3721422,1.58776353 45.3721422,1.62209356 L45.3721422,3.05537199 L46.9653894,3.05537199 L46.9653894,1.62209356 C46.9653894,1.59634604 46.9742408,1.57059852 46.9919436,1.54485101 C47.0096463,1.527686 47.0362004,1.50193848 47.0804573,1.49335597 C47.1247142,1.47619096 47.1778224,1.46760846 47.2486334,1.45902595 C47.3194444,1.45044345 47.4079581,1.45044345 47.523026,1.45044345 C47.6292425,1.45044345 47.7177562,1.45044345 47.7885672,1.45902595 C47.8593782,1.46760846 47.9213378,1.47619096 47.9567433,1.49335597 C48.0010002,1.51052098 48.0275543,1.527686 48.045257,1.54485101 C48.0629598,1.56201602 48.0718112,1.58776353 48.0718112,1.62209356 L48.0718112,5.44130855 Z" id="Shape" fill="#606060"></path>
                    <path d="M52.1080376,1.95681128 C52.1080376,2.05121884 52.1080376,2.12846139 52.0991863,2.18853893 C52.0903349,2.24861647 52.0814835,2.3001115 52.0637808,2.33444152 C52.046078,2.36877154 52.0283753,2.39451906 52.0106725,2.41168407 C51.9929698,2.42884908 51.9664156,2.42884908 51.9398615,2.42884908 L50.9485077,2.42884908 L50.9485077,5.43272604 C50.9485077,5.45847356 50.9396563,5.48422107 50.9219535,5.50996859 C50.9042508,5.53571611 50.8776967,5.55288112 50.8334398,5.56146363 C50.7891829,5.57862864 50.7360747,5.58721114 50.6652637,5.59579365 C50.5944527,5.60437615 50.505939,5.60437615 50.3908711,5.60437615 C50.2846546,5.60437615 50.1961409,5.60437615 50.1253299,5.59579365 C50.0545189,5.58721114 50.0014107,5.57862864 49.9571538,5.56146363 C49.9128969,5.54429861 49.8863428,5.5271336 49.8686401,5.50996859 C49.8509373,5.49280358 49.8420859,5.46705606 49.8420859,5.43272604 L49.8420859,2.42884908 L48.8507321,2.42884908 C48.8241779,2.42884908 48.7976238,2.42026658 48.7710697,2.40310157 C48.753367,2.38593656 48.7268128,2.36018904 48.7179615,2.32585902 C48.7002587,2.29152899 48.6914073,2.24003396 48.682556,2.17137392 C48.6737046,2.10271387 48.6737046,2.02547132 48.6737046,1.93106376 C48.6737046,1.8452387 48.6737046,1.77657866 48.682556,1.71650112 C48.6914073,1.65642358 48.7002587,1.61351105 48.7179615,1.57059852 C48.7356642,1.5362685 48.753367,1.51052098 48.7710697,1.49335597 C48.7887724,1.47619096 48.8153266,1.46760846 48.8418807,1.46760846 L51.9310102,1.46760846 C51.9575643,1.46760846 51.9841184,1.47619096 52.0018211,1.49335597 C52.0195239,1.51052098 52.046078,1.5362685 52.0549294,1.57059852 C52.0726321,1.60492855 52.0814835,1.65642358 52.0903349,1.71650112 C52.1080376,1.79374367 52.1080376,1.86240371 52.1080376,1.95681128 Z" id="Shape" fill="#606060"></path>
                    <path d="M3.54054952,14.9078122 C3.54054952,15.1223749 3.49629266,15.3026075 3.40777892,15.4656751 C3.31926518,15.6287427 3.18649457,15.7660628 3.02716984,15.8776353 C2.85899374,15.9892079 2.66426352,16.075033 2.42527642,16.126528 C2.19514071,16.178023 1.92959949,16.2123531 1.63750416,16.2123531 C1.4870308,16.2123531 1.34540882,16.2037706 1.20378684,16.178023 C1.06216486,16.1522755 0.938245624,16.126528 0.823177764,16.1007805 C0.708109905,16.0664505 0.610744793,16.0321205 0.531082429,15.9977904 C0.451420064,15.9634604 0.398311822,15.9291304 0.362906326,15.9033829 C0.327500831,15.8776353 0.30094671,15.8518878 0.292095336,15.8261403 C0.274392588,15.8003928 0.265541214,15.7660628 0.256689841,15.7317328 C0.247838467,15.6974027 0.238987093,15.6544902 0.238987093,15.6029952 C0.238987093,15.5515001 0.238987093,15.4914226 0.238987093,15.4227626 C0.238987093,15.3541025 0.238987093,15.3026075 0.247838467,15.2682775 C0.256689841,15.2253649 0.265541214,15.1996174 0.274392588,15.1738699 C0.283243962,15.1481224 0.30094671,15.1309574 0.309798083,15.1223749 C0.327500831,15.1137924 0.345203579,15.1052098 0.362906326,15.1052098 C0.398311822,15.1052098 0.451420064,15.1223749 0.513379681,15.1567049 C0.575339298,15.1910349 0.646150288,15.2339474 0.7435154,15.2682775 C0.832029138,15.31119 0.947096998,15.34552 1.0798676,15.3884325 C1.21263821,15.4227626 1.37196294,15.4399276 1.56669316,15.4399276 C1.69946377,15.4399276 1.81453163,15.4313451 1.91189674,15.4055975 C2.00926186,15.37985 2.08892422,15.34552 2.15973521,15.294025 C2.2305462,15.2425299 2.27480307,15.1910349 2.31020856,15.1223749 C2.34561406,15.0537148 2.36331681,14.9764723 2.36331681,14.8906472 C2.36331681,14.8134047 2.34561406,14.7361621 2.31905994,14.6760846 C2.28365444,14.616007 2.2305462,14.5559295 2.15973521,14.513017 C2.08892422,14.4701044 1.98270773,14.4357744 1.86763987,14.4100269 C1.74372064,14.3842794 1.59324729,14.3756969 1.41621981,14.3756969 L0.991353867,14.3756969 C0.955948372,14.3756969 0.920542876,14.3671144 0.902840129,14.3585319 C0.876286007,14.3499494 0.85858326,14.3242018 0.849731886,14.2984543 C0.832029138,14.2727068 0.823177764,14.2297943 0.823177764,14.1868817 C0.823177764,14.1353867 0.814326391,14.0838917 0.814326391,14.0152316 C0.814326391,13.9465716 0.814326391,13.8950766 0.823177764,13.852164 C0.832029138,13.8092515 0.840880512,13.7749215 0.849731886,13.749174 C0.85858326,13.7234264 0.876286007,13.7062614 0.902840129,13.6976789 C0.920542876,13.6890964 0.955948372,13.6805139 0.982502493,13.6805139 L1.38966569,13.6805139 C1.54899042,13.6805139 1.68176102,13.6719314 1.79682888,13.6461839 C1.91189674,13.6204364 2.00926186,13.5861064 2.08007285,13.5431938 C2.15088384,13.5002813 2.20399208,13.4487863 2.23939757,13.3801262 C2.27480307,13.3200487 2.29250582,13.2428061 2.29250582,13.1569811 C2.29250582,13.0797385 2.27480307,13.019661 2.24824895,12.9595834 C2.21284345,12.8995059 2.16858658,12.8565934 2.11547834,12.8136809 C2.05351872,12.7793508 1.98270773,12.7450208 1.90304537,12.7278558 C1.82338301,12.7106908 1.72601789,12.7021083 1.62865278,12.7021083 C1.46047668,12.7021083 1.31000332,12.7192733 1.17723272,12.7536033 C1.04446211,12.7879333 0.92939425,12.8308459 0.832029138,12.8737584 C0.734664026,12.9166709 0.655001662,12.9510009 0.593042045,12.985331 C0.531082429,13.019661 0.477974186,13.036826 0.451420064,13.036826 C0.433717317,13.036826 0.416014569,13.036826 0.407163195,13.0282435 C0.389460448,13.019661 0.380609074,13.002496 0.362906326,12.985331 C0.354054952,12.9595834 0.336352205,12.9252534 0.336352205,12.8823409 C0.336352205,12.8394284 0.327500831,12.7793508 0.327500831,12.7106908 C0.327500831,12.5991182 0.336352205,12.5132932 0.354054952,12.4446331 C0.3717577,12.3759731 0.398311822,12.324478 0.433717317,12.290148 C0.469122812,12.255818 0.531082429,12.2129055 0.628447541,12.1699929 C0.716961279,12.1270804 0.832029138,12.0841679 0.955948372,12.0498379 C1.0798676,12.0155078 1.22148959,11.9811778 1.36311157,11.9640128 C1.51358492,11.9382653 1.66405828,11.9296828 1.82338301,11.9296828 C2.0623701,11.9296828 2.28365444,11.9554303 2.48723604,11.9983428 C2.69081764,12.0412553 2.85899374,12.1099154 3.00061572,12.204323 C3.1422377,12.2987305 3.24845419,12.4103031 3.31926518,12.5476232 C3.39007617,12.6849433 3.43433304,12.8394284 3.43433304,13.019661 C3.43433304,13.1312336 3.41663029,13.2342236 3.3812248,13.3286312 C3.3458193,13.4316213 3.29271106,13.5174463 3.23075144,13.6032714 C3.16879182,13.6805139 3.08912946,13.7577565 2.99176435,13.817834 C2.90325061,13.8779115 2.78818275,13.9294066 2.67311489,13.9637366 L2.67311489,13.9723191 C2.79703412,13.9894841 2.92095336,14.0238141 3.02716984,14.0753092 C3.13338633,14.1268042 3.23075144,14.1954643 3.31926518,14.2812893 C3.39892754,14.3671144 3.46973853,14.4615219 3.5139954,14.5730945 C3.5139954,14.6589196 3.54054952,14.7790746 3.54054952,14.9078122 Z" id="Shape" fill="#7B7B7B"></path>
                    <path d="M4.85940422,17.3624088 C4.85940422,17.3881563 4.85055285,17.4139039 4.84170147,17.4310689 C4.82399873,17.4482339 4.79744461,17.4653989 4.76203911,17.4739814 C4.72663362,17.4825639 4.67352537,17.4997289 4.61156576,17.4997289 C4.54960614,17.4997289 4.47879515,17.5083114 4.38143004,17.5083114 C4.28406492,17.5083114 4.21325393,17.5083114 4.15129432,17.4997289 C4.0893347,17.4911464 4.03622646,17.4825639 4.00082096,17.4739814 C3.96541547,17.4568164 3.93886135,17.4482339 3.9211586,17.4310689 C3.90345585,17.4139039 3.90345585,17.3881563 3.90345585,17.3624088 L3.90345585,15.4485101 C3.90345585,15.362685 3.9211586,15.3026075 3.94771272,15.27686 C3.97426684,15.2511124 4.03622646,15.2339474 4.11588882,15.2339474 L4.32832179,15.2339474 C4.42568691,15.1137924 4.51420064,14.9764723 4.59386301,14.8305697 C4.67352537,14.6760846 4.75318774,14.4958519 4.82399873,14.2641243 C4.89480972,14.0409792 4.96562071,13.7749215 5.01872895,13.4573688 C5.08068857,13.1483986 5.13379681,12.7707683 5.18690505,12.3330605 C5.19575643,12.2815655 5.2046078,12.238653 5.21345917,12.1957404 C5.22231055,12.1528279 5.24886467,12.1184979 5.26656742,12.0927504 C5.29312154,12.0670029 5.31967566,12.0412553 5.35508116,12.0326728 C5.39048665,12.0155078 5.43474352,12.0155078 5.48785176,12.0155078 L7.92197956,12.0155078 C8.02819605,12.0155078 8.10785841,12.0412553 8.15211528,12.1013329 C8.20522352,12.1614104 8.22292627,12.2472355 8.22292627,12.3588081 L8.22292627,15.2425299 L8.67434634,15.2425299 C8.7540087,15.2425299 8.80711694,15.2596949 8.84252244,15.2854425 C8.87792793,15.31119 8.89563068,15.3712675 8.89563068,15.4570926 L8.89563068,17.3709913 C8.89563068,17.3967388 8.88677931,17.4224864 8.87792793,17.4396514 C8.86022519,17.4568164 8.83367106,17.4739814 8.79826557,17.4825639 C8.76286007,17.4911464 8.70975183,17.5083114 8.64779221,17.5083114 C8.5858326,17.5083114 8.50617023,17.5168939 8.41765649,17.5168939 C8.32914276,17.5168939 8.24948039,17.5168939 8.18752078,17.5083114 C8.12556116,17.4997289 8.07245292,17.4911464 8.03704742,17.4825639 C8.00164193,17.4653989 7.9750878,17.4568164 7.95738506,17.4396514 C7.93968231,17.4224864 7.93083093,17.3967388 7.93083093,17.3709913 L7.93083093,16.1179455 L4.84170147,16.1179455 L4.84170147,17.3624088 L4.85940422,17.3624088 Z M7.13420729,12.8651759 L6.19596167,12.8651759 C6.14285343,13.2256411 6.08974518,13.5346113 6.03663694,13.7920865 C5.97467732,14.0495617 5.91271771,14.2727068 5.85075809,14.4615219 C5.78879847,14.650337 5.71798748,14.7962396 5.64717649,14.9163947 C5.5763655,15.0365498 5.50555451,15.1395399 5.43474352,15.2339474 L7.14305867,15.2339474 L7.14305867,12.8651759 L7.13420729,12.8651759 Z" id="Shape" fill="#7B7B7B"></path>
                    <path d="M13.5780074,14.0066491 C13.5780074,14.3499494 13.5426019,14.650337 13.4629396,14.9249772 C13.3921286,15.1996174 13.2770607,15.4313451 13.1354387,15.6201602 C12.9938168,15.8089753 12.8079379,15.9548779 12.5955049,16.057868 C12.383072,16.160858 12.1352335,16.2123531 11.8608409,16.2123531 C11.745773,16.2123531 11.6395566,16.2037706 11.5421914,16.178023 C11.4448263,16.160858 11.3563126,16.126528 11.2677989,16.0836155 C11.1792851,16.040703 11.0907714,15.9806254 11.0022576,15.9205479 C10.9137439,15.8518878 10.8252302,15.7746453 10.7278651,15.6888202 L10.7278651,17.4911464 C10.7278651,17.5168939 10.7190137,17.5426414 10.7013109,17.568389 C10.6836082,17.5941365 10.6570541,17.6113015 10.6127972,17.6284665 C10.5685403,17.6456315 10.5154321,17.654214 10.4446211,17.6627965 C10.3738101,17.671379 10.2852964,17.671379 10.1790799,17.671379 C10.0728634,17.671379 9.98434966,17.671379 9.91353867,17.6627965 C9.84272768,17.654214 9.78961944,17.6456315 9.74536257,17.6284665 C9.7011057,17.6113015 9.67455158,17.5941365 9.65684883,17.568389 C9.63914608,17.5426414 9.63029471,17.5168939 9.63029471,17.4911464 L9.63029471,12.1528279 C9.63029471,12.1270804 9.63914608,12.1013329 9.64799745,12.0755854 C9.6657002,12.0584204 9.69225432,12.0326728 9.72765982,12.0240903 C9.76306531,12.0069253 9.81617356,11.9983428 9.8692818,11.9897603 C9.93124142,11.9811778 10.0020524,11.9811778 10.0994175,11.9811778 C10.1879313,11.9811778 10.2587422,11.9811778 10.3207019,11.9897603 C10.3826615,11.9983428 10.4269183,12.0069253 10.4623238,12.0240903 C10.4977293,12.0412553 10.5242835,12.0584204 10.5419862,12.0755854 C10.559689,12.0927504 10.559689,12.1184979 10.559689,12.1528279 L10.559689,12.5991182 C10.6747568,12.4875456 10.7898247,12.3845556 10.8960412,12.2987305 C11.0022576,12.2129055 11.1173255,12.1356629 11.2323934,12.0841679 C11.3474612,12.0240903 11.4625291,11.9811778 11.5864483,11.9554303 C11.7103676,11.9296828 11.8431382,11.9125178 11.9759088,11.9125178 C12.2680041,11.9125178 12.5069912,11.9640128 12.7105728,12.0755854 C12.9141544,12.1871579 13.0823305,12.3330605 13.2062497,12.5304582 C13.330169,12.7192733 13.4275341,12.9424184 13.4894937,13.1998936 C13.5426019,13.4402038 13.5780074,13.7148439 13.5780074,14.0066491 Z M12.4184775,14.0753092 C12.4184775,13.9122416 12.4096261,13.7577565 12.383072,13.6032714 C12.3565178,13.4573688 12.312261,13.3200487 12.2591527,13.1998936 C12.1971931,13.0797385 12.1175307,12.985331 12.0201656,12.9166709 C11.9228005,12.8480109 11.7988813,12.8136809 11.6484079,12.8136809 C11.5775969,12.8136809 11.4979346,12.8222634 11.4271236,12.8480109 C11.3563126,12.8651759 11.2855016,12.9080884 11.2058392,12.9510009 C11.1350283,13.002496 11.0553659,13.0625735 10.9757035,13.1398161 C10.8960412,13.2170586 10.8163788,13.3114662 10.7278651,13.4230387 L10.7278651,14.6846671 C10.8871898,14.8734822 11.0288118,15.0279673 11.1704337,15.1309574 C11.3120557,15.2339474 11.4625291,15.2854425 11.6130024,15.2854425 C11.7546244,15.2854425 11.8785437,15.2511124 11.9847601,15.1824524 C12.0821253,15.1137924 12.170639,15.0193848 12.2325986,14.8992297 C12.2945582,14.7790746 12.3476665,14.650337 12.3742206,14.5044345 C12.4007747,14.3671144 12.4184775,14.2212118 12.4184775,14.0753092 Z" id="Shape" fill="#7B7B7B"></path>
                    <path d="M17.8178155,15.9806254 C17.8178155,16.0235379 17.8001127,16.0492855 17.7735586,16.075033 C17.7470045,16.1007805 17.6938962,16.1179455 17.6319366,16.126528 C17.569977,16.1351105 17.4726119,16.143693 17.3486927,16.143693 C17.2159221,16.143693 17.118557,16.1351105 17.0565973,16.126528 C16.9946377,16.1179455 16.9503808,16.1007805 16.9326781,16.075033 C16.906124,16.0492855 16.8972726,16.0235379 16.8972726,15.9806254 L16.8972726,15.6802377 C16.7379479,15.8518878 16.552069,15.9806254 16.3396361,16.075033 C16.1360545,16.1694405 15.9059187,16.2123531 15.6492289,16.2123531 C15.4367959,16.2123531 15.2509171,16.1866056 15.0738896,16.1351105 C14.8968621,16.0836155 14.7463888,16.0063729 14.6224695,15.9033829 C14.4985503,15.8003928 14.3923338,15.6716552 14.3215228,15.5171701 C14.2507118,15.362685 14.2153063,15.1824524 14.2153063,14.9764723 C14.2153063,14.7533271 14.2595632,14.564512 14.3480769,14.3928619 C14.4365907,14.2297943 14.5693613,14.0924742 14.7463888,13.9894841 C14.9234162,13.8864941 15.1447006,13.800669 15.4102418,13.749174 C15.675783,13.6976789 15.9855811,13.6719314 16.3307847,13.6719314 L16.7113938,13.6719314 L16.7113938,13.4402038 C16.7113938,13.3200487 16.7025424,13.2170586 16.6759883,13.1226511 C16.6494341,13.036826 16.6140286,12.9595834 16.552069,12.8995059 C16.4989608,12.8394284 16.4192984,12.7965158 16.3219333,12.7707683 C16.2245682,12.7450208 16.1095003,12.7278558 15.9678784,12.7278558 C15.7819995,12.7278558 15.6138234,12.7450208 15.4722014,12.7879333 C15.3305794,12.8308459 15.1978088,12.8737584 15.082741,12.9166709 C14.9676731,12.968166 14.8791594,13.0110785 14.799497,13.0454085 C14.728686,13.088321 14.6667264,13.105486 14.6136182,13.105486 C14.5782127,13.105486 14.5516585,13.0969035 14.5251044,13.0797385 C14.4985503,13.0625735 14.4808476,13.0282435 14.4631448,12.9939135 C14.4454421,12.9595834 14.4365907,12.9080884 14.4277393,12.8565934 C14.4188879,12.8050983 14.4188879,12.7450208 14.4188879,12.6763608 C14.4188879,12.5905357 14.4277393,12.5218757 14.4365907,12.4703806 C14.4542934,12.4188856 14.4808476,12.3759731 14.5162531,12.3330605 C14.5605099,12.290148 14.6313209,12.2472355 14.728686,12.1957404 C14.8349025,12.1442454 14.9499704,12.1013329 15.0915923,12.0584204 C15.2332143,12.0155078 15.3836877,11.9811778 15.5430124,11.9554303 C15.7023371,11.9296828 15.8705132,11.9125178 16.0475407,11.9125178 C16.3573388,11.9125178 16.62288,11.9382653 16.8441644,11.9983428 C17.0654487,12.0584204 17.2424762,12.1442454 17.3840982,12.2644005 C17.5257201,12.3845556 17.6319366,12.5390407 17.6938962,12.7364383 C17.7558559,12.9252534 17.7912614,13.1569811 17.7912614,13.4144562 L17.7912614,15.9806254 L17.8178155,15.9806254 Z M16.7290965,14.3413668 L16.3042306,14.3413668 C16.1272031,14.3413668 15.9678784,14.3499494 15.8439591,14.3756969 C15.7200399,14.4014444 15.6138234,14.4357744 15.534161,14.4872694 C15.4544987,14.5387645 15.3925391,14.598842 15.3571336,14.6760846 C15.3217281,14.7447446 15.3040253,14.8305697 15.3040253,14.9249772 C15.3040253,15.0880448 15.3571336,15.2081999 15.46335,15.3026075 C15.5695665,15.397015 15.7111885,15.4399276 15.8970674,15.4399276 C16.0563921,15.4399276 16.1980141,15.4055975 16.3307847,15.328355 C16.4635553,15.2511124 16.5963259,15.1395399 16.7290965,14.9936373 L16.7290965,14.3413668 Z" id="Shape" fill="#7B7B7B"></path>
                    <path d="M22.5533005,14.8477347 C22.5533005,15.0708798 22.5090436,15.2596949 22.4293812,15.4227626 C22.3497189,15.5858302 22.2169483,15.7231502 22.0487722,15.8347228 C21.8805961,15.9462954 21.6681631,16.0321205 21.4114732,16.0836155 C21.1547834,16.1351105 20.8538367,16.1694405 20.5086331,16.1694405 C20.3935653,16.1694405 20.2873488,16.1694405 20.1899837,16.1694405 C20.0926186,16.1694405 19.9952534,16.1694405 19.9067397,16.160858 C19.818226,16.160858 19.7208609,16.1522755 19.6323471,16.1522755 C19.5438334,16.143693 19.4376169,16.1351105 19.3314004,16.126528 C19.1897784,16.1179455 19.0924133,16.075033 19.0393051,16.0063729 C18.9773455,15.9377129 18.9507913,15.8347228 18.9507913,15.6974027 L18.9507913,12.4017206 C18.9507913,12.272983 18.9773455,12.1699929 19.0304537,12.1013329 C19.0835619,12.0326728 19.1720757,11.9897603 19.2871435,11.9811778 C19.3579545,11.9725953 19.4464683,11.9725953 19.5438334,11.9640128 C19.6411985,11.9554303 19.747415,11.9554303 19.8536315,11.9468478 C19.9686993,11.9468478 20.0837672,11.9382653 20.198835,11.9382653 C20.3227543,11.9382653 20.4378221,11.9382653 20.5617414,11.9382653 C20.8803908,11.9382653 21.145932,11.9554303 21.3760678,11.9983428 C21.6062035,12.0412553 21.7920823,12.1099154 21.9425557,12.1957404 C22.093029,12.2815655 22.1992455,12.3931381 22.2700565,12.5132932 C22.3408675,12.6420307 22.376273,12.7879333 22.376273,12.9595834 C22.376273,13.1913111 22.3143134,13.3801262 22.1815428,13.5346113 C22.0576235,13.6890964 21.8717447,13.7920865 21.6327576,13.8435815 C21.9337043,13.8950766 22.1549886,14.0066491 22.3143134,14.1782992 C22.4736381,14.3499494 22.5533005,14.581677 22.5533005,14.8477347 Z M21.3318109,13.1569811 C21.3318109,13.0797385 21.3141081,13.0110785 21.287554,12.9510009 C21.2609999,12.8909234 21.216743,12.8394284 21.1547834,12.7965158 C21.0928238,12.7536033 21.0131614,12.7278558 20.9069449,12.7021083 C20.8095798,12.6849433 20.6856606,12.6677783 20.5351872,12.6677783 C20.4201194,12.6677783 20.3139029,12.6677783 20.2165378,12.6763608 C20.1191727,12.6849433 20.0306589,12.6849433 19.9598479,12.6935258 L19.9598479,13.6547664 L20.55289,13.6547664 C20.8007285,13.6547664 20.9954587,13.6118539 21.1282293,13.5260288 C21.2609999,13.4487863 21.3318109,13.3286312 21.3318109,13.1569811 Z M21.4468787,14.8391522 C21.4468787,14.7447446 21.429176,14.6675021 21.4026219,14.598842 C21.3760678,14.530182 21.3229595,14.4701044 21.2521485,14.4271919 C21.1813375,14.3842794 21.0839724,14.3499494 20.9689046,14.3242018 C20.8538367,14.3070368 20.7122147,14.2898718 20.55289,14.2898718 L19.9775507,14.2898718 L19.9775507,15.3884325 C20.0218076,15.397015 20.0749158,15.397015 20.128024,15.4055975 C20.1811323,15.41418 20.2342405,15.41418 20.2873488,15.41418 C20.340457,15.41418 20.3935653,15.4227626 20.4466735,15.4227626 C20.4997817,15.4227626 20.5440386,15.4227626 20.5882955,15.4227626 C20.7476202,15.4227626 20.8803908,15.4055975 20.9866073,15.37985 C21.1016752,15.3541025 21.1901889,15.31119 21.2609999,15.2596949 C21.3318109,15.2081999 21.3849191,15.1481224 21.4114732,15.0708798 C21.429176,15.0108023 21.4468787,14.9335597 21.4468787,14.8391522 Z" id="Shape" fill="#7B7B7B"></path>
                    <path d="M27.3861506,14.0238141 C27.3861506,14.3499494 27.3418937,14.650337 27.25338,14.9163947 C27.1648662,15.1824524 27.0320956,15.41418 26.8550681,15.6115777 C26.6780407,15.8089753 26.4479049,15.9548779 26.1823637,16.057868 C25.9079711,16.160858 25.5981731,16.2123531 25.2352667,16.2123531 C24.8812118,16.2123531 24.5802651,16.1694405 24.3235752,16.075033 C24.0668854,15.9806254 23.845601,15.8433053 23.6774249,15.6630727 C23.5092488,15.4828401 23.3764782,15.2596949 23.2968159,15.0022198 C23.2171535,14.7361621 23.1728966,14.4357744 23.1728966,14.1010567 C23.1728966,13.7749215 23.2171535,13.4745338 23.3056672,13.2084761 C23.394181,12.9424184 23.5269516,12.7106908 23.7128304,12.5132932 C23.8898579,12.324478 24.1199936,12.1699929 24.3855349,12.0670029 C24.6510761,11.9640128 24.9697255,11.9125178 25.3326318,11.9125178 C25.6866868,11.9125178 25.9964849,11.9554303 26.2531747,12.0498379 C26.5098646,12.1442454 26.7222975,12.2815655 26.899325,12.4617981 C27.0763525,12.6420307 27.1914203,12.8651759 27.2799341,13.1226511 C27.3418937,13.3801262 27.3861506,13.6805139 27.3861506,14.0238141 Z M26.2443234,14.0667267 C26.2443234,13.8779115 26.2266206,13.7062614 26.2000665,13.5431938 C26.1735124,13.3887087 26.1204041,13.2428061 26.0407418,13.1312336 C25.9699308,13.0110785 25.8725657,12.9252534 25.7486464,12.8565934 C25.6247272,12.7879333 25.4742538,12.7621858 25.288375,12.7621858 C25.1201989,12.7621858 24.9785769,12.7879333 24.8546577,12.8480109 C24.7307384,12.9080884 24.6333733,12.9939135 24.553711,13.105486 C24.4740486,13.2170586 24.412089,13.3543787 24.3766835,13.5088638 C24.341278,13.6633489 24.3147239,13.852164 24.3147239,14.0495617 C24.3147239,14.2383768 24.3324266,14.4100269 24.3589807,14.5730945 C24.3943862,14.7275796 24.4474945,14.8734822 24.5183055,14.9850548 C24.5891164,15.1052098 24.6864816,15.1910349 24.8104008,15.2596949 C24.93432,15.3197725 25.0847934,15.3541025 25.2706722,15.3541025 C25.4388483,15.3541025 25.5804703,15.328355 25.7043895,15.2682775 C25.8283088,15.2081999 25.9256739,15.1223749 26.0053363,15.0108023 C26.0849986,14.8992297 26.1469582,14.7619096 26.1823637,14.6074245 C26.2266206,14.4443569 26.2443234,14.2641243 26.2443234,14.0667267 Z" id="Shape" fill="#7B7B7B"></path>
                    <path d="M32.2455548,14.0238141 C32.2455548,14.3499494 32.2012979,14.650337 32.1127842,14.9163947 C32.0242704,15.1824524 31.8914998,15.41418 31.7144724,15.6115777 C31.5374449,15.8089753 31.3073092,15.9548779 31.041768,16.057868 C30.7673754,16.160858 30.4575773,16.2123531 30.094671,16.2123531 C29.740616,16.2123531 29.4396693,16.1694405 29.1829795,16.075033 C28.9262896,15.9806254 28.7050053,15.8433053 28.5368292,15.6630727 C28.3686531,15.4828401 28.2358825,15.2596949 28.1562201,15.0022198 C28.0765577,14.7361621 28.0323009,14.4357744 28.0323009,14.1010567 C28.0323009,13.7749215 28.0765577,13.4745338 28.1650715,13.2084761 C28.2535852,12.9424184 28.3863558,12.7106908 28.5722347,12.5132932 C28.7492621,12.324478 28.9793979,12.1699929 29.2449391,12.0670029 C29.5104803,11.9640128 29.8291297,11.9125178 30.1920361,11.9125178 C30.546091,11.9125178 30.8558891,11.9554303 31.1125789,12.0498379 C31.3692688,12.1442454 31.5817018,12.2815655 31.7587292,12.4617981 C31.9357567,12.6420307 32.0508246,12.8651759 32.1393383,13.1226511 C32.2101493,13.3801262 32.2455548,13.6805139 32.2455548,14.0238141 Z M31.1037276,14.0667267 C31.1037276,13.8779115 31.0860248,13.7062614 31.0594707,13.5431938 C31.0329166,13.3887087 30.9798083,13.2428061 30.900146,13.1312336 C30.829335,13.0110785 30.7319699,12.9252534 30.6080506,12.8565934 C30.4841314,12.7879333 30.3336581,12.7621858 30.1477792,12.7621858 C29.9796031,12.7621858 29.8379811,12.7879333 29.7140619,12.8480109 C29.5901427,12.9080884 29.4927775,12.9939135 29.4131152,13.105486 C29.3334528,13.2170586 29.2714932,13.3543787 29.2360877,13.5088638 C29.2006822,13.6633489 29.1741281,13.852164 29.1741281,14.0495617 C29.1741281,14.2383768 29.1918308,14.4100269 29.218385,14.5730945 C29.2537904,14.7275796 29.3068987,14.8734822 29.3777097,14.9850548 C29.4485207,15.1052098 29.5458858,15.1910349 29.669805,15.2596949 C29.7937242,15.3197725 29.9441976,15.3541025 30.1300765,15.3541025 C30.2982526,15.3541025 30.4398745,15.328355 30.5637938,15.2682775 C30.687713,15.2081999 30.7850781,15.1223749 30.8647405,15.0108023 C30.9444028,14.8992297 31.0063625,14.7619096 31.041768,14.6074245 C31.0860248,14.4443569 31.1037276,14.2641243 31.1037276,14.0667267 Z" id="Shape" fill="#7B7B7B"></path>
                    <path d="M36.3968491,15.8948004 C36.4234032,15.9462954 36.4322546,15.9806254 36.4322546,16.0149554 C36.4322546,16.0492855 36.4057005,16.075033 36.370295,16.092198 C36.3260381,16.109363 36.2640785,16.126528 36.1844161,16.1351105 C36.0959024,16.143693 35.9896859,16.143693 35.8480639,16.143693 C35.7152933,16.143693 35.6090768,16.143693 35.5294145,16.1351105 C35.4497521,16.1351105 35.3877925,16.126528 35.3435356,16.109363 C35.2992788,16.1007805 35.2638733,16.0836155 35.2461705,16.0664505 C35.2284678,16.0492855 35.210765,16.0235379 35.1930623,15.9977904 L34.4672496,14.6417545 L33.741437,15.9977904 C33.7325856,16.0235379 33.7148828,16.0492855 33.6971801,16.0664505 C33.6794774,16.0836155 33.6440719,16.1007805 33.599815,16.109363 C33.5555581,16.1179455 33.4935985,16.126528 33.4227875,16.1351105 C33.3431251,16.1351105 33.24576,16.143693 33.1218408,16.143693 C32.9890702,16.143693 32.8917051,16.143693 32.8120427,16.1351105 C32.7323804,16.126528 32.6792721,16.1179455 32.6438666,16.092198 C32.6084611,16.075033 32.5907584,16.0492855 32.5907584,16.0149554 C32.5907584,15.9806254 32.5996097,15.9462954 32.6261639,15.8948004 L33.7148828,14.0152316 L32.7058262,12.2472355 C32.6792721,12.1957404 32.6615694,12.1528279 32.6615694,12.1184979 C32.6615694,12.0841679 32.6792721,12.0584204 32.7146776,12.0326728 C32.7500831,12.0155078 32.8120427,11.9983428 32.9005565,11.9897603 C32.9802188,11.9811778 33.0952867,11.9811778 33.24576,11.9811778 C33.3785306,11.9811778 33.4758958,11.9811778 33.5555581,11.9897603 C33.6352205,11.9983428 33.6971801,11.9983428 33.741437,12.0069253 C33.7856938,12.0155078 33.8210993,12.0326728 33.8388021,12.0498379 C33.8565048,12.0670029 33.8742076,12.0927504 33.8919103,12.1184979 L34.5911689,13.3972912 L35.2904274,12.1184979 C35.2992788,12.0927504 35.3081301,12.0755854 35.3258329,12.0584204 C35.3435356,12.0412553 35.3700897,12.0240903 35.4054952,12.0155078 C35.4409007,12.0069253 35.494009,11.9983428 35.56482,11.9897603 C35.6267796,11.9811778 35.7241447,11.9811778 35.8392126,11.9811778 C35.9719832,11.9811778 36.0693483,11.9811778 36.1490106,11.9897603 C36.228673,11.9983428 36.2817813,12.0069253 36.3171867,12.0240903 C36.3525922,12.0412553 36.370295,12.0755854 36.3614436,12.1099154 C36.3614436,12.1442454 36.3437409,12.1957404 36.3083354,12.2472355 L35.3169815,13.9809016 L36.3968491,15.8948004 Z" id="Shape" fill="#7B7B7B"></path>
                    <path d="M41.0969286,14.0066491 C41.0969286,14.3499494 41.0615231,14.650337 40.9818607,14.9249772 C40.9110498,15.1996174 40.7959819,15.4313451 40.6543599,15.6201602 C40.5127379,15.8089753 40.3268591,15.9548779 40.1144261,16.057868 C39.9019931,16.160858 39.6541547,16.2123531 39.3797621,16.2123531 C39.2646942,16.2123531 39.1584777,16.2037706 39.0611126,16.178023 C38.9637475,16.160858 38.8752338,16.126528 38.78672,16.0836155 C38.6982063,16.040703 38.6096926,15.9806254 38.5211788,15.9205479 C38.4326651,15.8518878 38.3441514,15.7746453 38.2467862,15.6888202 L38.2467862,17.4911464 C38.2467862,17.5168939 38.2379349,17.5426414 38.2202321,17.568389 C38.2025294,17.5941365 38.1759752,17.6113015 38.1317184,17.6284665 C38.0874615,17.6456315 38.0343533,17.654214 37.9635423,17.6627965 C37.8927313,17.671379 37.8042175,17.671379 37.6980011,17.671379 C37.5917846,17.671379 37.5032708,17.671379 37.4324598,17.6627965 C37.3616489,17.654214 37.3085406,17.6456315 37.2642837,17.6284665 C37.2200269,17.6113015 37.1934728,17.5941365 37.17577,17.568389 C37.1580673,17.5426414 37.1492159,17.5168939 37.1492159,17.4911464 L37.1492159,12.1528279 C37.1492159,12.1270804 37.1580673,12.1013329 37.1669186,12.0755854 C37.1846214,12.0584204 37.2111755,12.0326728 37.246581,12.0240903 C37.2819865,12.0069253 37.3350947,11.9983428 37.388203,11.9897603 C37.4501626,11.9811778 37.5209736,11.9811778 37.6183387,11.9811778 C37.7068524,11.9811778 37.7776634,11.9811778 37.839623,11.9897603 C37.9015827,11.9983428 37.9458395,12.0069253 37.981245,12.0240903 C38.0166505,12.0412553 38.0432046,12.0584204 38.0609074,12.0755854 C38.0786101,12.0927504 38.0786101,12.1184979 38.0786101,12.1528279 L38.0786101,12.5991182 C38.193678,12.4875456 38.3087459,12.3845556 38.4149623,12.2987305 C38.5211788,12.2129055 38.6362467,12.1356629 38.7513145,12.0841679 C38.8663824,12.0240903 38.9814503,11.9811778 39.1053695,11.9554303 C39.2292887,11.9296828 39.3620593,11.9125178 39.4948299,11.9125178 C39.7869253,11.9125178 40.0259124,11.9640128 40.229494,12.0755854 C40.4330756,12.1871579 40.6012517,12.3330605 40.7251709,12.5304582 C40.8490901,12.7192733 40.9464553,12.9424184 41.0084149,13.1998936 C41.0703745,13.4402038 41.0969286,13.7148439 41.0969286,14.0066491 Z M39.9373986,14.0753092 C39.9373986,13.9122416 39.9285473,13.7577565 39.9019931,13.6032714 C39.875439,13.4573688 39.8311822,13.3200487 39.7780739,13.1998936 C39.7161143,13.0797385 39.6364519,12.985331 39.5390868,12.9166709 C39.4417217,12.8480109 39.3178025,12.8136809 39.1673291,12.8136809 C39.0965181,12.8136809 39.0168558,12.8222634 38.9460448,12.8480109 C38.8752338,12.8651759 38.8044228,12.9080884 38.7247604,12.9510009 C38.6539494,13.002496 38.5742871,13.0625735 38.4946247,13.1398161 C38.4149623,13.2170586 38.3353,13.3114662 38.2467862,13.4230387 L38.2467862,14.6846671 C38.406111,14.8734822 38.5477329,15.0279673 38.6893549,15.1309574 C38.8309769,15.2339474 38.9814503,15.2854425 39.1319236,15.2854425 C39.2735456,15.2854425 39.3974648,15.2511124 39.5036813,15.1824524 C39.6010464,15.1137924 39.6895602,15.0193848 39.7515198,14.8992297 C39.8134794,14.7790746 39.8665876,14.650337 39.8931418,14.5044345 C39.9285473,14.3671144 39.9373986,14.2212118 39.9373986,14.0753092 Z" id="Shape" fill="#606060"></path>
                    <path d="M45.345588,15.9806254 C45.345588,16.0235379 45.3278853,16.0492855 45.3013312,16.075033 C45.274777,16.1007805 45.2216688,16.1179455 45.1597092,16.126528 C45.0977496,16.1351105 45.0003845,16.143693 44.8764652,16.143693 C44.7436946,16.143693 44.6463295,16.1351105 44.5843699,16.126528 C44.5224103,16.1179455 44.4781534,16.1007805 44.4604507,16.075033 C44.4338965,16.0492855 44.4250452,16.0235379 44.4250452,15.9806254 L44.4250452,15.6802377 C44.2657204,15.8518878 44.0798416,15.9806254 43.8674086,16.075033 C43.663827,16.1694405 43.4336913,16.2123531 43.1770015,16.2123531 C42.9645685,16.2123531 42.7786896,16.1866056 42.6016622,16.1351105 C42.4246347,16.0836155 42.2741613,16.0063729 42.1502421,15.9033829 C42.0263229,15.8003928 41.9201064,15.6716552 41.8492954,15.5171701 C41.7784844,15.362685 41.7430789,15.1824524 41.7430789,14.9764723 C41.7430789,14.7533271 41.7873358,14.564512 41.8758495,14.3928619 C41.9643632,14.2297943 42.0971338,14.0924742 42.2741613,13.9894841 C42.4511888,13.8864941 42.6724731,13.800669 42.9380144,13.749174 C43.2035556,13.6976789 43.5133537,13.6719314 43.8585572,13.6719314 L44.2391663,13.6719314 L44.2391663,13.4402038 C44.2391663,13.3200487 44.2303149,13.2170586 44.2037608,13.1226511 C44.1772067,13.036826 44.1418012,12.9595834 44.0798416,12.8995059 C44.0267333,12.8394284 43.947071,12.7965158 43.8497059,12.7707683 C43.7523407,12.7450208 43.6372729,12.7278558 43.4956509,12.7278558 C43.3097721,12.7278558 43.141596,12.7450208 42.999974,12.7879333 C42.858352,12.8308459 42.7255814,12.8737584 42.6105135,12.9166709 C42.4954457,12.968166 42.4069319,13.0110785 42.3272696,13.0454085 C42.2564586,13.088321 42.194499,13.105486 42.1413907,13.105486 C42.1059852,13.105486 42.0794311,13.0969035 42.052877,13.0797385 C42.0263229,13.0625735 42.0086201,13.0282435 41.9909174,12.9939135 C41.9732146,12.9595834 41.9643632,12.9080884 41.9555119,12.8565934 C41.9466605,12.8050983 41.9466605,12.7450208 41.9466605,12.6763608 C41.9466605,12.5905357 41.9555119,12.5218757 41.9643632,12.4703806 C41.982066,12.4188856 42.0086201,12.3759731 42.0440256,12.3330605 C42.0882825,12.290148 42.1590935,12.2472355 42.2564586,12.1957404 C42.3626751,12.1442454 42.4777429,12.1013329 42.6193649,12.0584204 C42.7609869,12.0155078 42.9114602,11.9811778 43.070785,11.9554303 C43.2301097,11.9296828 43.3982858,11.9125178 43.5753133,11.9125178 C43.8851114,11.9125178 44.1506526,11.9382653 44.3719369,11.9983428 C44.5932213,12.0584204 44.7702487,12.1442454 44.9118707,12.2644005 C45.0534927,12.3845556 45.1597092,12.5390407 45.2216688,12.7364383 C45.2836284,12.9252534 45.3190339,13.1569811 45.3190339,13.4144562 L45.3190339,15.9806254 L45.345588,15.9806254 Z M44.2480177,14.3413668 L43.8231517,14.3413668 C43.6461243,14.3413668 43.4867995,14.3499494 43.3628803,14.3756969 C43.2389611,14.4014444 43.1327446,14.4357744 43.0530822,14.4872694 C42.9734199,14.5387645 42.9114602,14.598842 42.8760547,14.6760846 C42.8406492,14.7447446 42.8229465,14.8305697 42.8229465,14.9249772 C42.8229465,15.0880448 42.8760547,15.2081999 42.9822712,15.3026075 C43.0884877,15.397015 43.2301097,15.4399276 43.4159885,15.4399276 C43.5753133,15.4399276 43.7169353,15.4055975 43.8497059,15.328355 C43.9824765,15.2511124 44.1152471,15.1395399 44.2480177,14.9936373 L44.2480177,14.3413668 Z" id="Shape" fill="#606060"></path>
                    <path d="M50.2669519,15.9720429 C50.2669519,15.9977904 50.2581005,16.0235379 50.2403978,16.0492855 C50.222695,16.0664505 50.1961409,16.092198 50.151884,16.1007805 C50.1076271,16.1179455 50.0545189,16.126528 49.9837079,16.1351105 C49.9128969,16.143693 49.8243832,16.143693 49.7181667,16.143693 C49.6119502,16.143693 49.5145851,16.143693 49.4437741,16.1351105 C49.3729631,16.126528 49.3110035,16.1179455 49.275598,16.1007805 C49.2313411,16.0836155 49.204787,16.0664505 49.1870843,16.0492855 C49.1693815,16.0321205 49.1605301,16.0063729 49.1605301,15.9720429 L49.1605301,14.4701044 L47.5672829,14.4701044 L47.5672829,15.9720429 C47.5672829,15.9977904 47.5584315,16.0235379 47.5407287,16.0492855 C47.523026,16.0664505 47.4964719,16.092198 47.452215,16.1007805 C47.4079581,16.1179455 47.3548499,16.126528 47.2840389,16.1351105 C47.2132279,16.143693 47.1247142,16.143693 47.0184977,16.143693 C46.9122812,16.143693 46.8237675,16.143693 46.7529565,16.1351105 C46.6821455,16.126528 46.6290372,16.1179455 46.5847804,16.1007805 C46.5405235,16.0836155 46.5139694,16.0664505 46.4962666,16.0492855 C46.4785639,16.0321205 46.4697125,16.0063729 46.4697125,15.9720429 L46.4697125,12.1528279 C46.4697125,12.1270804 46.4785639,12.1013329 46.4962666,12.0755854 C46.5139694,12.0498379 46.5405235,12.0326728 46.5847804,12.0240903 C46.6290372,12.0069253 46.6821455,11.9983428 46.7529565,11.9897603 C46.8237675,11.9811778 46.9122812,11.9811778 47.0184977,11.9811778 C47.1247142,11.9811778 47.2132279,11.9811778 47.2840389,11.9897603 C47.3548499,11.9983428 47.4079581,12.0069253 47.452215,12.0240903 C47.4964719,12.0412553 47.523026,12.0584204 47.5407287,12.0755854 C47.5584315,12.0927504 47.5672829,12.1184979 47.5672829,12.1528279 L47.5672829,13.5861064 L49.1605301,13.5861064 L49.1605301,12.1528279 C49.1605301,12.1270804 49.1693815,12.1013329 49.1870843,12.0755854 C49.204787,12.0584204 49.2313411,12.0326728 49.275598,12.0240903 C49.3198549,12.0069253 49.3729631,11.9983428 49.4437741,11.9897603 C49.5145851,11.9811778 49.6030988,11.9811778 49.7181667,11.9811778 C49.8243832,11.9811778 49.9128969,11.9811778 49.9837079,11.9897603 C50.0545189,11.9983428 50.1164785,12.0069253 50.151884,12.0240903 C50.1961409,12.0412553 50.222695,12.0584204 50.2403978,12.0755854 C50.2581005,12.0927504 50.2669519,12.1184979 50.2669519,12.1528279 L50.2669519,15.9720429 Z" id="Shape" fill="#606060"></path>
                    <path d="M55.0201396,13.9465716 C55.0201396,14.0753092 54.9935855,14.1782992 54.9316259,14.2383768 C54.8696663,14.2984543 54.7900039,14.3327843 54.6837874,14.3327843 L52.2850651,14.3327843 C52.2850651,14.4958519 52.3027679,14.6417545 52.3470247,14.7790746 C52.3824302,14.9078122 52.4532412,15.0279673 52.5329036,15.1137924 C52.6214173,15.2081999 52.7276338,15.27686 52.8692558,15.328355 C53.0020264,15.37985 53.1702025,15.397015 53.3649327,15.397015 C53.5596629,15.397015 53.727839,15.37985 53.8783124,15.3541025 C54.0287857,15.328355 54.152705,15.294025 54.2589215,15.2682775 C54.3651379,15.2339474 54.4536517,15.2081999 54.5244627,15.1824524 C54.5952737,15.1567049 54.6483819,15.1395399 54.6926388,15.1395399 C54.7191929,15.1395399 54.7368956,15.1481224 54.7545984,15.1567049 C54.7723011,15.1652874 54.7900039,15.1824524 54.7988553,15.2081999 C54.8077066,15.2339474 54.816558,15.2682775 54.8254094,15.3197725 C54.8342608,15.3712675 54.8342608,15.4227626 54.8342608,15.5000051 C54.8342608,15.5600826 54.8342608,15.6201602 54.8342608,15.6630727 C54.8342608,15.7059852 54.8254094,15.7488978 54.8254094,15.7746453 C54.816558,15.8089753 54.8077066,15.8347228 54.7988553,15.8518878 C54.7900039,15.8690528 54.7723011,15.8948004 54.7545984,15.9119654 C54.7368956,15.9291304 54.6837874,15.9548779 54.5952737,15.9892079 C54.5067599,16.0235379 54.4005434,16.057868 54.2677728,16.092198 C54.1350022,16.126528 53.9845289,16.1522755 53.8163528,16.178023 C53.6481767,16.2037706 53.4622978,16.2123531 53.2675676,16.2123531 C52.9135126,16.2123531 52.6125659,16.1694405 52.3470247,16.0836155 C52.0814835,15.9977904 51.8601992,15.8690528 51.6831717,15.6974027 C51.5061442,15.5257526 51.3733736,15.3026075 51.2848599,15.0365498 C51.1963461,14.7704921 51.1520893,14.4615219 51.1520893,14.1010567 C51.1520893,13.7577565 51.1963461,13.4573688 51.2848599,13.1827286 C51.3733736,12.9080884 51.5061442,12.6763608 51.6831717,12.4875456 C51.8601992,12.2987305 52.0637808,12.1528279 52.3204706,12.0498379 C52.5683091,11.9468478 52.851553,11.9039353 53.1613511,11.9039353 C53.4888519,11.9039353 53.7720959,11.9468478 54.011083,12.0412553 C54.2500701,12.1356629 54.4359489,12.2644005 54.5864223,12.4360506 C54.7368956,12.6077007 54.8431121,12.7965158 54.9139231,13.0282435 C54.9847341,13.2599711 55.0201396,13.5088638 55.0201396,13.7749215 L55.0201396,13.9465716 Z M53.940272,13.6376014 C53.9491234,13.3372137 53.8871638,13.0969035 53.7543932,12.9252534 C53.6216225,12.7536033 53.4091896,12.6677783 53.134797,12.6677783 C52.993175,12.6677783 52.8692558,12.6935258 52.7630393,12.7450208 C52.6568228,12.7965158 52.5683091,12.8651759 52.5063494,12.9510009 C52.4355385,13.036826 52.3824302,13.1398161 52.3470247,13.2599711 C52.3116192,13.3801262 52.2850651,13.5088638 52.2850651,13.6376014 L53.940272,13.6376014 Z" id="Shape" fill="#606060"></path>
                    <path d="M59.7556246,15.9720429 C59.7556246,15.9977904 59.7467732,16.0235379 59.7290705,16.0492855 C59.7113677,16.0664505 59.6848136,16.092198 59.6405567,16.1007805 C59.5962999,16.1179455 59.5431916,16.126528 59.4723806,16.1351105 C59.4015696,16.143693 59.3130559,16.143693 59.2068394,16.143693 C59.1006229,16.143693 59.0032578,16.143693 58.9324468,16.1351105 C58.8616358,16.126528 58.7996762,16.1179455 58.7642707,16.1007805 C58.7200139,16.0836155 58.6934597,16.0664505 58.675757,16.0492855 C58.6580542,16.0321205 58.6492029,16.0063729 58.6492029,15.9720429 L58.6492029,14.4701044 L57.0559556,14.4701044 L57.0559556,15.9720429 C57.0559556,15.9977904 57.0471042,16.0235379 57.0294015,16.0492855 C57.0116987,16.0664505 56.9851446,16.092198 56.9408877,16.1007805 C56.8966309,16.1179455 56.8435226,16.126528 56.7727116,16.1351105 C56.7019006,16.143693 56.6133869,16.143693 56.5071704,16.143693 C56.4009539,16.143693 56.3124402,16.143693 56.2416292,16.1351105 C56.1708182,16.126528 56.11771,16.1179455 56.0734531,16.1007805 C56.0291962,16.0836155 56.0026421,16.0664505 55.9849394,16.0492855 C55.9672366,16.0321205 55.9583852,16.0063729 55.9583852,15.9720429 L55.9583852,12.1528279 C55.9583852,12.1270804 55.9672366,12.1013329 55.9849394,12.0755854 C56.0026421,12.0498379 56.0291962,12.0326728 56.0734531,12.0240903 C56.11771,12.0069253 56.1708182,11.9983428 56.2416292,11.9897603 C56.3124402,11.9811778 56.4009539,11.9811778 56.5071704,11.9811778 C56.6133869,11.9811778 56.7019006,11.9811778 56.7727116,11.9897603 C56.8435226,11.9983428 56.8966309,12.0069253 56.9408877,12.0240903 C56.9851446,12.0412553 57.0116987,12.0584204 57.0294015,12.0755854 C57.0471042,12.0927504 57.0559556,12.1184979 57.0559556,12.1528279 L57.0559556,13.5861064 L58.6492029,13.5861064 L58.6492029,12.1528279 C58.6492029,12.1270804 58.6580542,12.1013329 58.675757,12.0755854 C58.6934597,12.0584204 58.7200139,12.0326728 58.7642707,12.0240903 C58.8085276,12.0069253 58.8616358,11.9983428 58.9324468,11.9897603 C59.0032578,11.9811778 59.0917716,11.9811778 59.2068394,11.9811778 C59.3130559,11.9811778 59.4015696,11.9811778 59.4723806,11.9897603 C59.5431916,11.9983428 59.6051512,12.0069253 59.6405567,12.0240903 C59.6848136,12.0412553 59.7113677,12.0584204 59.7290705,12.0755854 C59.7467732,12.0927504 59.7556246,12.1184979 59.7556246,12.1528279 L59.7556246,15.9720429 Z" id="Shape" fill="#606060"></path>
                    <path d="M64.7920563,15.9806254 C64.7920563,16.0063729 64.7832049,16.0321205 64.7655022,16.0492855 C64.7477994,16.0664505 64.7212453,16.0836155 64.6769884,16.1007805 C64.6327316,16.109363 64.5796233,16.126528 64.5088123,16.126528 C64.4380013,16.1351105 64.3494876,16.1351105 64.2432711,16.1351105 C64.1370546,16.1351105 64.0485409,16.1351105 63.9777299,16.126528 C63.9069189,16.1179455 63.8449593,16.109363 63.8007024,16.1007805 C63.7564456,16.092198 63.7210401,16.075033 63.7033373,16.0492855 C63.6856346,16.0321205 63.6767832,16.0063729 63.6767832,15.9806254 L63.6767832,14.2727068 C63.6767832,14.1525517 63.6767832,14.0323966 63.6856346,13.9036591 C63.6944859,13.7749215 63.7033373,13.6461839 63.7210401,13.5260288 C63.6502291,13.6461839 63.5705667,13.766339 63.4909043,13.8779115 C63.411242,13.9894841 63.3227282,14.1096392 63.2430659,14.2212118 L61.9153598,15.9720429 C61.8888057,16.0063729 61.8622516,16.0321205 61.8445488,16.0492855 C61.8179947,16.0664505 61.7914406,16.0836155 61.7560351,16.1007805 C61.7206296,16.109363 61.6763727,16.1179455 61.6144131,16.126528 C61.5613049,16.126528 61.4904939,16.1351105 61.4019801,16.1351105 C61.2957636,16.1351105 61.2072499,16.1351105 61.1452903,16.126528 C61.0833307,16.1179455 61.0302224,16.109363 60.9859656,16.1007805 C60.9505601,16.092198 60.9151546,16.075033 60.9063032,16.0492855 C60.8974518,16.0235379 60.8797491,16.0063729 60.8797491,15.9720429 L60.8797491,12.1356629 C60.8797491,12.1099154 60.8886004,12.0841679 60.9063032,12.0670029 C60.9240059,12.0498379 60.9505601,12.0240903 60.9948169,12.0155078 C61.0390738,11.9983428 61.092182,11.9897603 61.162993,11.9811778 C61.233804,11.9725953 61.3223178,11.9725953 61.4285343,11.9725953 C61.6409672,11.9725953 61.7825892,11.9897603 61.8711029,12.0155078 C61.9596167,12.0412553 61.9950222,12.0841679 61.9950222,12.1356629 L61.9950222,13.834999 C61.9950222,13.9551541 61.9950222,14.0753092 61.9861708,14.1954643 C61.9773194,14.3242018 61.9684681,14.4443569 61.9507653,14.5559295 C62.0215763,14.4443569 62.0923873,14.3242018 62.1631983,14.2126293 C62.2340093,14.1010567 62.3136716,13.9894841 62.393334,13.8864941 L63.7387428,12.1270804 C63.7652969,12.0927504 63.7829997,12.0670029 63.8095538,12.0498379 C63.8361079,12.0326728 63.8715134,12.0155078 63.9069189,11.9983428 C63.9423244,11.9897603 63.9954327,11.9725953 64.0485409,11.9725953 C64.1016491,11.9640128 64.1813115,11.9640128 64.2698252,11.9640128 C64.3760417,11.9640128 64.4557041,11.9640128 64.5265151,11.9725953 C64.5973261,11.9811778 64.6504343,11.9897603 64.6858398,11.9983428 C64.7212453,12.0069253 64.7566508,12.0326728 64.7655022,12.0498379 C64.7832049,12.0755854 64.7832049,12.1013329 64.7832049,12.1270804 L64.7832049,15.9806254 L64.7920563,15.9806254 Z" id="Shape" fill="#606060"></path>
                    <path d="M69.2885542,15.9720429 C69.2885542,16.0063729 69.2797028,16.0321205 69.2708514,16.0492855 C69.2620001,16.0664505 69.235446,16.092198 69.1911891,16.1007805 C69.1557836,16.1179455 69.093824,16.126528 69.023013,16.126528 C68.952202,16.1351105 68.8548369,16.1351105 68.739769,16.1351105 C68.6335525,16.1351105 68.5450388,16.1351105 68.4742278,16.126528 C68.4034168,16.1179455 68.3503086,16.109363 68.3060517,16.1007805 C68.2617948,16.0836155 68.2352407,16.0664505 68.217538,16.0492855 C68.1998352,16.0321205 68.1909838,15.9977904 68.1909838,15.9720429 L68.1909838,14.530182 L67.8988885,14.530182 C67.7661179,14.530182 67.6599014,14.5387645 67.580239,14.564512 C67.5005767,14.5902595 67.4297657,14.633172 67.3589547,14.6846671 C67.2969951,14.7447446 67.2350355,14.8219872 67.1730759,14.9163947 C67.1199676,15.0108023 67.058008,15.1309574 67.0048998,15.27686 L66.7482099,15.9291304 C66.7305072,15.9720429 66.7128044,16.0063729 66.6862503,16.0321205 C66.6596962,16.057868 66.6242907,16.0836155 66.5800338,16.092198 C66.5357769,16.109363 66.4649659,16.1179455 66.394155,16.1179455 C66.3144926,16.126528 66.2171275,16.126528 66.1020596,16.126528 C65.9958431,16.126528 65.9161808,16.126528 65.8453698,16.126528 C65.7745588,16.126528 65.7214505,16.1179455 65.6771937,16.109363 C65.6329368,16.1007805 65.5975313,16.092198 65.5798286,16.075033 C65.5621258,16.057868 65.5532744,16.0321205 65.5532744,16.0063729 C65.5532744,15.9720429 65.5621258,15.9291304 65.5886799,15.8690528 C65.6063827,15.8089753 65.6506396,15.7145677 65.7125992,15.5858302 L65.9781404,14.9850548 C66.0578028,14.8048222 66.1551679,14.6589196 66.2702357,14.5387645 C66.3853036,14.4186094 66.5180742,14.3242018 66.6596962,14.2727068 C66.3853036,14.2126293 66.1640192,14.0924742 66.0046945,13.9208241 C65.8453698,13.749174 65.7657074,13.5260288 65.7657074,13.2513886 C65.7657074,13.0454085 65.8099643,12.8651759 65.8896267,12.7021083 C65.969289,12.5390407 66.1020596,12.4017206 66.2613844,12.290148 C66.4295605,12.1785754 66.6331421,12.0927504 66.8809805,12.0326728 C67.128819,11.9725953 67.4120629,11.9468478 67.7395638,11.9468478 C67.8280775,11.9468478 67.934294,11.9468478 68.0405105,11.9468478 C68.146727,11.9468478 68.2617948,11.9554303 68.3768627,11.9554303 C68.4919306,11.9640128 68.598147,11.9640128 68.7132149,11.9725953 C68.8194314,11.9811778 68.9256479,11.9897603 69.0053102,11.9983428 C69.1026753,12.0069253 69.1734863,12.0326728 69.2177432,12.0927504 C69.2620001,12.1528279 69.2885542,12.2300705 69.2885542,12.324478 L69.2885542,15.9720429 Z M68.1909838,12.7278558 C68.1113215,12.7106908 68.0228077,12.7021083 67.934294,12.7021083 C67.8457803,12.6935258 67.7661179,12.6935258 67.6864555,12.6935258 C67.5271308,12.6935258 67.4032116,12.7106908 67.2969951,12.7364383 C67.1907786,12.7621858 67.1111162,12.8050983 67.0403052,12.8565934 C66.9783456,12.9080884 66.9252374,12.968166 66.8986833,13.036826 C66.8721291,13.105486 66.8544264,13.1827286 66.8544264,13.2685536 C66.8544264,13.3543787 66.8721291,13.4402038 66.8986833,13.5088638 C66.9252374,13.5775239 66.9783456,13.6376014 67.0403052,13.6805139 C67.1022649,13.7234264 67.1907786,13.766339 67.2881437,13.783504 C67.3855088,13.8092515 67.5271308,13.817834 67.6953069,13.817834 L68.1732811,13.817834 L68.1732811,12.7278558 L68.1909838,12.7278558 Z" id="Shape" fill="#606060"></path>
                    <path d="M7.25812653,26.4856123 C7.25812653,26.5113598 7.24927515,26.5371073 7.2315724,26.5628548 C7.21386966,26.5886023 7.18731553,26.6057673 7.14305867,26.6143498 C7.0988018,26.6315149 7.04569355,26.6400974 6.97488256,26.6486799 C6.90407157,26.6572624 6.81555783,26.6658449 6.70934135,26.6658449 C6.60312486,26.6658449 6.51461113,26.6572624 6.44380013,26.6486799 C6.37298914,26.6400974 6.3198809,26.6315149 6.27562403,26.6143498 C6.23136716,26.5971848 6.20481304,26.5800198 6.18711029,26.5628548 C6.16940755,26.5371073 6.16055617,26.5113598 6.16055617,26.4856123 L6.16055617,21.9712143 L6.1517048,21.9712143 L4.4964979,26.4770298 C4.48764652,26.5113598 4.46994377,26.5456898 4.44338965,26.5714373 C4.41683553,26.5971848 4.38143004,26.6143498 4.33717317,26.6315149 C4.2929163,26.6486799 4.23095668,26.6572624 4.16014569,26.6572624 C4.0893347,26.6572624 4.00082096,26.6658449 3.90345585,26.6658449 C3.80609074,26.6658449 3.717577,26.6658449 3.64676601,26.6572624 C3.57595502,26.6486799 3.5139954,26.6400974 3.46973853,26.6229324 C3.42548166,26.6057673 3.39007617,26.5886023 3.36352205,26.5628548 C3.33696793,26.5371073 3.31926518,26.5113598 3.31041381,26.4856123 L1.70831515,21.9712143 L1.69946377,21.9712143 L1.69946377,26.4770298 C1.69946377,26.5027773 1.6906124,26.5285248 1.67290965,26.5542723 C1.6552069,26.5800198 1.62865278,26.5971848 1.58439591,26.6057673 C1.54013904,26.6143498 1.4870308,26.6315149 1.41621981,26.6400974 C1.34540882,26.6486799 1.25689508,26.6572624 1.1506786,26.6572624 C1.04446211,26.6572624 0.955948372,26.6486799 0.885137381,26.6400974 C0.814326391,26.6315149 0.761218148,26.6229324 0.716961279,26.6057673 C0.67270441,26.5886023 0.646150288,26.5714373 0.628447541,26.5542723 C0.610744793,26.5285248 0.601893419,26.5027773 0.601893419,26.4770298 L0.601893419,21.542089 C0.601893419,21.3961864 0.637298914,21.2846139 0.716961279,21.2073713 C0.796623643,21.1301288 0.902840129,21.0957988 1.03561074,21.0957988 L1.79682888,21.0957988 C1.92959949,21.0957988 2.04466735,21.1043813 2.14203246,21.1301288 C2.23939757,21.1472938 2.31905994,21.1902063 2.38987093,21.2331188 C2.46068192,21.2846139 2.52264154,21.3446914 2.56689841,21.4305165 C2.61115527,21.507759 2.65541214,21.6107491 2.69081764,21.7309042 L3.93000997,25.0351688 L3.94771272,25.0351688 L5.23116192,21.7394867 C5.26656742,21.6193316 5.31082429,21.5163415 5.35508116,21.439099 C5.39933802,21.3532739 5.45244627,21.2931964 5.51440588,21.2417013 C5.5763655,21.1902063 5.64717649,21.1558763 5.72683886,21.1301288 C5.80650122,21.1129638 5.90386633,21.0957988 6.01008282,21.0957988 L6.78900371,21.0957988 C6.86866608,21.0957988 6.93947707,21.1043813 6.99258531,21.1215463 C7.04569355,21.1387113 7.0988018,21.1730413 7.13420729,21.2073713 C7.16961279,21.2417013 7.19616691,21.2931964 7.21386966,21.3446914 C7.2315724,21.3961864 7.24042378,21.4648465 7.24042378,21.5335065 L7.24042378,26.4856123 L7.25812653,26.4856123 Z" id="Shape" fill="#7B7B7B"></path>
                    <path d="M12.4184775,24.545966 C12.4184775,24.8721012 12.3742206,25.1724889 12.2857069,25.4385466 C12.1971931,25.7046043 12.0644225,25.9363319 11.887395,26.1337295 C11.7103676,26.3311272 11.4802318,26.4770298 11.2146906,26.5800198 C10.940298,26.6830099 10.6304999,26.7345049 10.2675936,26.7345049 C9.91353867,26.7345049 9.61259196,26.6915924 9.35590212,26.5971848 C9.09921228,26.5027773 8.87792793,26.3654572 8.70975183,26.1852246 C8.54157573,26.004992 8.40880512,25.7818468 8.32914276,25.5243716 C8.24948039,25.258314 8.20522352,24.9579263 8.20522352,24.6232086 C8.20522352,24.2970733 8.24948039,23.9966856 8.33799413,23.730628 C8.42650787,23.4645703 8.55927848,23.2328426 8.74515733,23.035445 C8.9221848,22.8466299 9.15232052,22.6921448 9.41786174,22.5891547 C9.68340295,22.4861647 10.0020524,22.4346696 10.3649587,22.4346696 C10.7190137,22.4346696 11.0288118,22.4775822 11.2855016,22.5719897 C11.5421914,22.6663973 11.7546244,22.8037174 11.9316519,22.98395 C12.099828,23.1641826 12.2237472,23.3873277 12.312261,23.6448029 C12.3742206,23.9022781 12.4184775,24.2026658 12.4184775,24.545966 Z M11.2766502,24.5888785 C11.2766502,24.4000634 11.2589475,24.2284133 11.2323934,24.0653457 C11.2058392,23.9108606 11.152731,23.764958 11.0730686,23.6533854 C11.0022576,23.5332303 10.9048925,23.4474053 10.7809733,23.3787452 C10.6570541,23.3100852 10.5065807,23.2843377 10.3207019,23.2843377 C10.1525258,23.2843377 10.0109038,23.3100852 9.88698455,23.3701627 C9.76306531,23.4302403 9.6657002,23.5160653 9.58603784,23.6276379 C9.50637547,23.7392105 9.44441586,23.8765306 9.40901036,24.0310157 C9.37360487,24.1855008 9.34705074,24.3743159 9.34705074,24.5717135 C9.34705074,24.7605286 9.36475349,24.9321788 9.39130761,25.0952464 C9.42671311,25.2497315 9.47982135,25.3956341 9.55063234,25.5072066 C9.62144333,25.6273617 9.71880844,25.7131868 9.84272768,25.7818468 C9.96664691,25.8419243 10.1171203,25.8762544 10.3029991,25.8762544 C10.4711752,25.8762544 10.6127972,25.8505069 10.7367164,25.7904293 C10.8606357,25.7303518 10.9580008,25.6445267 11.0376631,25.5329541 C11.1173255,25.4213816 11.1792851,25.2840615 11.2146906,25.1295764 C11.2589475,24.9665088 11.2766502,24.7862762 11.2766502,24.5888785 Z" id="Shape" fill="#7B7B7B"></path>
                    <path d="M16.2776764,25.8848369 C16.2776764,25.9620794 16.2776764,26.022157 16.2688251,26.073652 C16.2688251,26.125147 16.2599737,26.1680596 16.2511223,26.2023896 C16.2422709,26.2367196 16.2334196,26.2624671 16.2245682,26.2882146 C16.2157168,26.3053796 16.1891627,26.3397097 16.1537572,26.3654572 C16.1183517,26.3912047 16.0563921,26.4341172 15.9767297,26.4856123 C15.8970674,26.5371073 15.7908509,26.5714373 15.6846344,26.6143498 C15.5784179,26.6486799 15.4544987,26.6830099 15.3305794,26.7001749 C15.2066602,26.7259224 15.0738896,26.7345049 14.9322676,26.7345049 C14.6313209,26.7345049 14.3569283,26.6915924 14.1267926,26.5971848 C13.8966569,26.5027773 13.6930753,26.3740397 13.5337506,26.1938071 C13.3744258,26.0135745 13.2505066,25.7990118 13.1708442,25.5415366 C13.0911819,25.2840615 13.046925,24.9922563 13.046925,24.6575386 C13.046925,24.2713258 13.1000332,23.9451906 13.1973984,23.6705504 C13.2947635,23.3959103 13.4363854,23.1641826 13.6134129,22.9753675 C13.7904404,22.7951349 14.0028734,22.6578148 14.2418605,22.5719897 C14.4808476,22.4861647 14.7463888,22.4432521 15.0384841,22.4432521 C15.153552,22.4432521 15.2686198,22.4518346 15.3836877,22.4689996 C15.4987555,22.4861647 15.604972,22.5119122 15.7023371,22.5462422 C15.7997023,22.5805722 15.888216,22.6149022 15.9678784,22.6578148 C16.0475407,22.7007273 16.100649,22.7350573 16.1360545,22.7693873 C16.17146,22.8037174 16.1891627,22.8294649 16.2068654,22.8466299 C16.2157168,22.8637949 16.2334196,22.8981249 16.2334196,22.9324549 C16.2422709,22.966785 16.2511223,23.0096975 16.2511223,23.0611925 C16.2511223,23.1126876 16.2599737,23.1727651 16.2599737,23.2414252 C16.2599737,23.4044928 16.2422709,23.5246478 16.2157168,23.5933079 C16.1891627,23.6619679 16.1449058,23.6962979 16.100649,23.6962979 C16.0475407,23.6962979 15.9944325,23.6791329 15.9413242,23.6362204 C15.888216,23.5933079 15.817405,23.5503954 15.746594,23.5074828 C15.6669316,23.4559878 15.5784179,23.4130753 15.4722014,23.3787452 C15.3659849,23.3444152 15.2420657,23.3186677 15.0915923,23.3186677 C14.799497,23.3186677 14.5782127,23.4302403 14.4277393,23.6448029 C14.277266,23.8593656 14.1976036,24.1769183 14.1976036,24.597461 C14.1976036,24.8034412 14.2153063,24.9836738 14.2507118,25.1381589 C14.2861173,25.292644 14.3480769,25.4299641 14.4188879,25.5329541 C14.4896989,25.6359442 14.587064,25.7217693 14.7021319,25.7732643 C14.8171998,25.8247593 14.9499704,25.8505069 15.1004437,25.8505069 C15.2509171,25.8505069 15.3836877,25.8247593 15.4987555,25.7818468 C15.604972,25.7389343 15.7023371,25.6874392 15.7908509,25.6359442 C15.8705132,25.5844492 15.9413242,25.5329541 15.9944325,25.4900416 C16.0475407,25.4471291 16.100649,25.4213816 16.1360545,25.4213816 C16.1626086,25.4213816 16.1803113,25.4299641 16.1980141,25.4385466 C16.2157168,25.4557116 16.2334196,25.4814591 16.2422709,25.5157891 C16.2511223,25.5501192 16.2599737,25.6016142 16.2688251,25.6616917 C16.2776764,25.7217693 16.2776764,25.7904293 16.2776764,25.8848369 Z" id="Shape" fill="#7B7B7B"></path>
                    <path d="M20.7830257,26.5371073 C20.7830257,26.5628548 20.7741743,26.5800198 20.7564716,26.5971848 C20.7387688,26.6143498 20.7122147,26.6229324 20.6679578,26.6315149 C20.623701,26.6400974 20.5705927,26.6486799 20.4997817,26.6572624 C20.4289708,26.6658449 20.340457,26.6658449 20.2253892,26.6658449 C20.1014699,26.6658449 20.0041048,26.6658449 19.9244424,26.6572624 C19.8447801,26.6486799 19.7828205,26.6400974 19.7385636,26.6315149 C19.6943067,26.6229324 19.6589012,26.6057673 19.6411985,26.5886023 C19.6234957,26.5714373 19.605793,26.5456898 19.5969416,26.5199423 L19.2340353,25.6101967 C19.1897784,25.4900416 19.1455216,25.3870515 19.0924133,25.3012265 C19.0393051,25.2154014 18.9861968,25.1553239 18.9242372,25.1038289 C18.8622776,25.0523338 18.7914666,25.0180038 18.7118042,25.0008388 C18.6321419,24.9836738 18.5436281,24.9665088 18.4374116,24.9665088 L18.2161273,24.9665088 L18.2161273,26.5285248 C18.2161273,26.5456898 18.2072759,26.5714373 18.1895732,26.5886023 C18.1718704,26.6057673 18.1364649,26.6229324 18.0922081,26.6400974 C18.0479512,26.6572624 17.994843,26.6658449 17.924032,26.6744274 C17.853221,26.6830099 17.7647072,26.6830099 17.6673421,26.6830099 C17.5611256,26.6830099 17.4814633,26.6830099 17.4106523,26.6744274 C17.3398413,26.6658449 17.2867331,26.6572624 17.2424762,26.6400974 C17.1982193,26.6229324 17.1628138,26.6057673 17.1451111,26.5886023 C17.1274083,26.5714373 17.118557,26.5542723 17.118557,26.5285248 L17.118557,22.6578148 C17.118557,22.6406498 17.1274083,22.6149022 17.1451111,22.5977372 C17.1628138,22.5805722 17.1982193,22.5634072 17.2424762,22.5548247 C17.2867331,22.5462422 17.3398413,22.5290772 17.4106523,22.5290772 C17.4814633,22.5204947 17.569977,22.5204947 17.6673421,22.5204947 C17.7647072,22.5204947 17.853221,22.5204947 17.924032,22.5290772 C17.994843,22.5376597 18.0479512,22.5462422 18.0922081,22.5548247 C18.1364649,22.5634072 18.1718704,22.5805722 18.1895732,22.5977372 C18.2072759,22.6149022 18.2161273,22.6320673 18.2161273,22.6578148 L18.2161273,24.1425882 L18.4374116,24.1425882 C18.5259254,24.1425882 18.6144391,24.1340057 18.6852501,24.1082582 C18.7560611,24.0910932 18.8268721,24.0481807 18.8888317,24.0052681 C18.9507913,23.9537731 19.0038996,23.8851131 19.0570078,23.8078705 C19.1101161,23.730628 19.1543729,23.6190554 19.2074812,23.4989003 L19.534982,22.6749798 C19.5438334,22.6492323 19.5615361,22.6234847 19.5792389,22.5977372 C19.5969416,22.5805722 19.6323471,22.5634072 19.676604,22.5462422 C19.7208609,22.5290772 19.7739691,22.5204947 19.8536315,22.5204947 C19.9244424,22.5119122 20.0306589,22.5119122 20.1545782,22.5119122 C20.2607947,22.5119122 20.3493084,22.5119122 20.4201194,22.5204947 C20.4909304,22.5290772 20.5440386,22.5376597 20.5794441,22.5462422 C20.6148496,22.5548247 20.6502551,22.5719897 20.6591065,22.5891547 C20.6768092,22.6063197 20.6768092,22.6234847 20.6768092,22.6492323 C20.6768092,22.6749798 20.6679578,22.7093098 20.6591065,22.7522223 C20.6502551,22.7951349 20.623701,22.8466299 20.5971469,22.9152899 L20.2873488,23.6448029 C20.2253892,23.7907055 20.1634295,23.9108606 20.0926186,24.0138507 C20.0218076,24.1168407 19.9509966,24.2026658 19.8801856,24.2627433 C19.8093746,24.3314034 19.7385636,24.3828984 19.6589012,24.4172284 C19.5880902,24.4601409 19.5172793,24.4858885 19.4464683,24.511636 L19.4464683,24.5202185 C19.534982,24.5545485 19.6234957,24.597461 19.7031581,24.6403736 C19.7828205,24.6832861 19.8624828,24.7347811 19.9332938,24.8034412 C20.0041048,24.8721012 20.0749158,24.9579263 20.1368754,25.0609163 C20.198835,25.1639064 20.269646,25.2840615 20.3316056,25.4299641 L20.7122147,26.2882146 C20.7299175,26.3225447 20.7476202,26.3568747 20.7564716,26.3826222 C20.765323,26.4083697 20.7741743,26.4341172 20.7830257,26.4512822 C20.7918771,26.4684473 20.7918771,26.4941948 20.7918771,26.5027773 C20.7830257,26.5113598 20.7830257,26.5199423 20.7830257,26.5371073 Z" id="Shape" fill="#7B7B7B"></path>
                    <path d="M25.1733071,25.3698865 C25.1733071,25.5930317 25.1290503,25.7818468 25.0493879,25.9449144 C24.9697255,26.107982 24.8369549,26.2453021 24.6687788,26.3568747 C24.5006027,26.4684473 24.2881697,26.5542723 24.0314799,26.6057673 C23.7747901,26.6658449 23.4738433,26.6915924 23.1286398,26.6915924 C23.0135719,26.6915924 22.9073554,26.6915924 22.8099903,26.6915924 C22.7126252,26.6915924 22.6152601,26.6915924 22.5267463,26.6830099 C22.4382326,26.6744274 22.3408675,26.6744274 22.2523538,26.6744274 C22.16384,26.6658449 22.0576235,26.6572624 21.9514071,26.6486799 C21.8097851,26.6400974 21.71242,26.5971848 21.6593117,26.5285248 C21.5973521,26.4598647 21.570798,26.3568747 21.570798,26.2195546 L21.570798,22.9238724 C21.570798,22.7951349 21.5973521,22.6921448 21.6504603,22.6234847 C21.7035686,22.5548247 21.7920823,22.5119122 21.9071502,22.5033297 C21.9779612,22.4947472 22.0664749,22.4947472 22.16384,22.4861647 C22.2612051,22.4775822 22.3674216,22.4775822 22.4736381,22.4689996 C22.588706,22.4689996 22.7037738,22.4604171 22.8188417,22.4604171 C22.9427609,22.4604171 23.0578288,22.4604171 23.181748,22.4604171 C23.5003975,22.4604171 23.7659387,22.4775822 23.9960744,22.5204947 C24.2262101,22.5634072 24.412089,22.6320673 24.5625623,22.7178923 C24.7130357,22.8037174 24.8192522,22.9152899 24.8900632,23.035445 C24.9608741,23.1641826 24.9962796,23.3100852 24.9962796,23.4817353 C24.9962796,23.713463 24.93432,23.9022781 24.8015494,24.0567632 C24.6776302,24.2112483 24.4917513,24.3142383 24.2527642,24.3657334 C24.553711,24.4172284 24.7749953,24.528801 24.93432,24.7004511 C25.0936448,24.8806837 25.1733071,25.1038289 25.1733071,25.3698865 Z M23.9606689,23.6791329 C23.9606689,23.6018904 23.9429662,23.5332303 23.916412,23.4731528 C23.8898579,23.4130753 23.845601,23.3615802 23.7836414,23.3186677 C23.7216818,23.2757552 23.6420194,23.2500077 23.535803,23.2242601 C23.4384379,23.2070951 23.3145186,23.1899301 23.1640453,23.1899301 C23.0489774,23.1899301 22.9427609,23.1899301 22.8453958,23.1985126 C22.7480307,23.2070951 22.659517,23.2156776 22.588706,23.2156776 L22.588706,24.1769183 L23.181748,24.1769183 C23.4295865,24.1769183 23.6243167,24.1340057 23.7570873,24.0481807 C23.8898579,23.9709381 23.9606689,23.850783 23.9606689,23.6791329 Z M24.0757368,25.361304 C24.0757368,25.2668965 24.058034,25.1896539 24.0314799,25.1209939 C24.0049258,25.0523338 23.9518175,24.9922563 23.8810065,24.9493438 C23.8101956,24.9064312 23.7128304,24.8721012 23.5977626,24.8463537 C23.4826947,24.8291887 23.3410727,24.8120237 23.181748,24.8120237 L22.6064087,24.8120237 L22.6064087,25.9191669 C22.6506656,25.9277494 22.7037738,25.9277494 22.7568821,25.9363319 C22.8099903,25.9363319 22.8630986,25.9449144 22.9162068,25.9449144 C22.969315,25.9449144 23.0224233,25.9534969 23.0755315,25.9534969 C23.1286398,25.9534969 23.1728966,25.9534969 23.2171535,25.9534969 C23.3764782,25.9534969 23.5092488,25.9363319 23.6154653,25.9105844 C23.7305332,25.8848369 23.8190469,25.8419243 23.8898579,25.7904293 C23.9606689,25.7389343 24.0137771,25.6788567 24.0403313,25.6016142 C24.058034,25.5329541 24.0757368,25.4557116 24.0757368,25.361304 Z" id="Shape" fill="#7B7B7B"></path>
                    <path d="M27.1383121,23.850783 C27.2356772,23.8422005 27.3418937,23.833618 27.4392588,23.833618 C27.5454753,23.8250355 27.6605432,23.8250355 27.7844624,23.8250355 C28.1119632,23.8250355 28.3863558,23.8593656 28.6253429,23.9194431 C28.86433,23.9795206 29.0590602,24.0739282 29.2095336,24.1940833 C29.3600069,24.3142383 29.4750748,24.4601409 29.5547372,24.6317911 C29.6255481,24.8034412 29.669805,24.9922563 29.669805,25.2154014 C29.669805,25.4385466 29.6255481,25.6445267 29.5458858,25.8333418 C29.4662234,26.022157 29.3334528,26.1766421 29.1652767,26.3139622 C28.9971006,26.4426997 28.7758163,26.5456898 28.510275,26.6229324 C28.2447338,26.6915924 27.9260844,26.7345049 27.563178,26.7345049 C27.4658129,26.7345049 27.3684478,26.7345049 27.2710827,26.7345049 C27.1737176,26.7345049 27.0763525,26.7345049 26.9789874,26.7259224 C26.8816223,26.7173399 26.7931085,26.7173399 26.6957434,26.7087574 C26.6072297,26.7001749 26.5187159,26.7001749 26.4390536,26.6915924 C26.2974316,26.6744274 26.1912151,26.6400974 26.1292555,26.5714373 C26.0672959,26.5027773 26.0318904,26.3997872 26.0318904,26.2624671 L26.0318904,22.6921448 C26.0318904,22.6663973 26.0407418,22.6406498 26.0584445,22.6149022 C26.0761472,22.5891547 26.1027014,22.5719897 26.1469582,22.5634072 C26.1912151,22.5462422 26.2443234,22.5376597 26.306283,22.5290772 C26.377094,22.5204947 26.4567563,22.5204947 26.5541214,22.5204947 C26.7665544,22.5204947 26.9170278,22.5376597 27.0055415,22.5634072 C27.0940552,22.5891547 27.1383121,22.6320673 27.1383121,22.6921448 L27.1383121,23.850783 Z M28.5368292,25.2668965 C28.5368292,25.1639064 28.5191264,25.0780813 28.4925723,25.0008388 C28.4660182,24.9235962 28.4129099,24.8549362 28.3420989,24.8034412 C28.271288,24.7519461 28.1827742,24.7090336 28.0677064,24.6747036 C27.9526385,24.6489561 27.8198679,24.6317911 27.6605432,24.6317911 C27.563178,24.6317911 27.4658129,24.6317911 27.3861506,24.6403736 C27.3064882,24.6403736 27.2268258,24.6489561 27.1471635,24.6575386 L27.1471635,25.8934194 C27.2356772,25.9020019 27.3153396,25.9105844 27.3950019,25.9105844 C27.4746643,25.9105844 27.5720294,25.9191669 27.6782459,25.9191669 C27.9703412,25.9191669 28.1916256,25.8590894 28.3243962,25.7475168 C28.4660182,25.6273617 28.5368292,25.4728766 28.5368292,25.2668965 Z M31.351566,26.4941948 C31.351566,26.5199423 31.3427147,26.5456898 31.3250119,26.5714373 C31.3073092,26.5971848 31.280755,26.6143498 31.2364982,26.6229324 C31.1922413,26.6315149 31.1391331,26.6486799 31.0683221,26.6572624 C30.9975111,26.6658449 30.9089973,26.6658449 30.7939295,26.6658449 C30.687713,26.6658449 30.5991993,26.6658449 30.5283883,26.6572624 C30.4575773,26.6486799 30.404469,26.6400974 30.3602122,26.6229324 C30.3159553,26.6057673 30.2894012,26.5886023 30.2716984,26.5714373 C30.2539957,26.5542723 30.2451443,26.5285248 30.2451443,26.4941948 L30.2451443,22.6749798 C30.2451443,22.6492323 30.2539957,22.6234847 30.2716984,22.5977372 C30.2894012,22.5805722 30.3159553,22.5548247 30.3602122,22.5462422 C30.404469,22.5290772 30.4575773,22.5204947 30.5283883,22.5119122 C30.5991993,22.5033297 30.687713,22.5033297 30.7939295,22.5033297 C30.9089973,22.5033297 30.9975111,22.5033297 31.0683221,22.5119122 C31.1391331,22.5204947 31.1922413,22.5290772 31.2364982,22.5462422 C31.280755,22.5634072 31.3073092,22.5805722 31.3250119,22.5977372 C31.3427147,22.6149022 31.351566,22.6406498 31.351566,22.6749798 L31.351566,26.4941948 Z" id="Shape" fill="#7B7B7B"></path>
                </g>
            </g>
        </g>
    </g>
</svg>