<?xml version="1.0" encoding="UTF-8"?>
<svg width="30px" height="31px" viewBox="0 0 30 31" version="1.1" xmlns="http://www.w3.org/2000/svg" xmlns:xlink="http://www.w3.org/1999/xlink">
    <!-- Generator: Sketch 51.2 (57519) - http://www.bohemiancoding.com/sketch -->
    <title>percentage (1)</title>
    <desc>Created with Sketch.</desc>
    <defs></defs>
    <g id="Page-1" stroke="none" stroke-width="1" fill="none" fill-rule="evenodd">
        <g id="Цены" transform="translate(-1168.000000, -657.000000)" fill="$main-color" fill-rule="nonzero">
            <g id="news-blocks" transform="translate(1000.000000, 530.000000)">
                <g id="percentage-(1)" transform="translate(168.136581, 127.329294)">
                    <circle id="Oval" cx="10.669423" cy="12.3383953" r="1.2425925"></circle>
                    <circle id="Oval" cx="18.5635401" cy="17.381859" r="1.2425925"></circle>
                    <path d="M28.8088371,16.5047349 L28.3580927,15.8895298 C27.8708016,15.2195044 27.8586193,14.3119246 28.3398193,13.6297169 L28.7783814,13.0084207 C29.4484067,12.0582029 29.1377586,10.7364256 28.108356,10.1821319 L27.4383306,9.82275462 C26.7073939,9.43292168 26.3053786,8.61670896 26.4454749,7.7944051 L26.5733888,7.04519491 C26.7683053,5.90006065 25.9094546,4.84020234 24.7460469,4.79147322 L23.9846544,4.76101752 C23.1562594,4.72447069 22.4375049,4.16408583 22.2060416,3.36614653 L21.9928517,2.63520977 C21.6700213,1.51444006 20.4396111,0.935781792 19.3675705,1.39870841 L18.6670895,1.69717425 C17.905697,2.0260958 17.0163906,1.83117933 16.4620969,1.20988308 L15.9565323,0.643407087 C15.1829576,-0.221534751 13.8246334,-0.215443611 13.0571498,0.667771645 L12.5576763,1.24033878 C12.0094738,1.86772617 11.1262585,2.07482492 10.3587749,1.75808565 L9.6522027,1.46571095 C8.57407098,1.02105775 7.35584304,1.62408058 7.04519491,2.74485028 L6.8441873,3.48187819 C6.62490627,4.28590863 5.91833407,4.85847576 5.08993907,4.90111374 L4.32854661,4.94375172 C3.16513892,5.01075425 2.32456164,6.08279484 2.53775153,7.2279291 L2.67784775,7.97713929 C2.83012624,8.79335201 2.4402933,9.61565587 1.71544767,10.0176711 L1.05151345,10.3892306 C0.0342931165,10.9557066 -0.258081589,12.2835751 0.430217197,13.2216106 L0.880961535,13.8368157 C1.36825271,14.506841 1.38043499,15.4144209 0.899234954,16.0966285 L0.460672896,16.7179248 C-0.209352472,17.6681426 0.101295653,18.9899199 1.13069826,19.5442136 L1.80072363,19.9035908 C2.53166039,20.2934238 2.93367561,21.1096365 2.7935794,21.9319403 L2.66566547,22.6811505 C2.470749,23.8262848 3.32959969,24.8861431 4.49300738,24.9348722 L5.25439984,24.9653279 C6.08279484,25.0018748 6.80154932,25.5622596 7.03301263,26.3601989 L7.24620252,27.0911357 C7.56903293,28.2119054 8.79944315,28.7905636 9.87148373,28.327637 L10.5719648,28.0291712 C11.3333573,27.7002496 12.2226637,27.8951661 12.7769574,28.5164624 L13.282522,29.0829384 C14.0621878,29.9478802 15.420512,29.941789 16.1819045,29.0585738 L16.6813779,28.4860067 C17.2295805,27.8586193 18.1127957,27.6515205 18.8802794,27.9682598 L19.5868516,28.2606345 C20.6649833,28.7052877 21.8832112,28.1022649 22.1938593,26.9814952 L22.394867,26.2444673 C22.614148,25.4404368 23.3207202,24.8678697 24.1491152,24.8252317 L24.9105077,24.7825937 C26.0739153,24.7155912 26.9144926,23.6435506 26.7013027,22.4984163 L26.5612065,21.7492062 C26.408928,20.9329934 26.798761,20.1106896 27.5236066,19.7086744 L28.1875408,19.3371148 C29.2047611,18.77673 29.4971359,17.4488615 28.8088371,16.5047349 Z M7.66649116,12.3383953 C7.66649116,10.6816053 9.0065419,9.34155458 10.6633319,9.34155458 C12.3201219,9.34155458 13.6601726,10.6816053 13.6601726,12.3383953 C13.6601726,13.9951853 12.3201219,15.335236 10.6633319,15.335236 C9.0065419,15.335236 7.66649116,13.9890942 7.66649116,12.3383953 Z M11.2419902,20.0680516 C10.9861623,20.3786997 10.5232357,20.4213377 10.2125876,20.1655098 C9.90193943,19.909682 9.85930145,19.4467553 10.1151293,19.1361072 L17.9787907,9.66438498 C18.2346185,9.35373686 18.6975452,9.31109888 19.0081933,9.56692675 C19.3188414,9.82275462 19.3614794,10.2856812 19.1056515,10.5963294 L11.2419902,20.0680516 Z M18.5635401,20.3786997 C16.9067501,20.3786997 15.5666994,19.038649 15.5666994,17.381859 C15.5666994,15.725069 16.9067501,14.3850183 18.5635401,14.3850183 C20.2203301,14.3850183 21.5603808,15.725069 21.5603808,17.381859 C21.5603808,19.038649 20.2203301,20.3786997 18.5635401,20.3786997 Z" id="Shape"></path>
                </g>
            </g>
        </g>
    </g>
</svg>