<?xml version="1.0" encoding="UTF-8"?>
<svg width="30px" height="34px" viewBox="0 0 30 34" version="1.1" xmlns="http://www.w3.org/2000/svg" xmlns:xlink="http://www.w3.org/1999/xlink">
    <!-- Generator: Sketch 51.2 (57519) - http://www.bohemiancoding.com/sketch -->
    <title>pdf</title>
    <desc>Created with Sketch.</desc>
    <defs></defs>
    <g id="Layout.Desktop" stroke="none" stroke-width="1" fill="none" fill-rule="evenodd">
        <g id="Главная" transform="translate(-1048.000000, -3827.000000)" fill-rule="nonzero">
            <g id="Contacts" transform="translate(90.000000, 3329.000000)">
                <g id="pdf" transform="translate(958.000000, 498.000000)">
                    <path d="M6.16666667,0 C4.975,0 4,0.95625 4,2.125 L4,31.875 C4,33.04375 4.975,34 6.16666667,34 L27.8333333,34 C29.025,34 30,33.04375 30,31.875 L30,8.5 L21.3333333,0 L6.16666667,0 Z" id="Shape" fill="#E2E5E7"></path>
                    <path d="M23.25,8 L30,8 L21,0 L21,6 C21,7.1 22.0125,8 23.25,8 Z" id="Shape" fill="#B0B7BD"></path>
                    <polygon id="Shape" fill="#CAD1D8" points="30 14 24 8 30 8"></polygon>
                    <path d="M26,27.9166667 C26,28.5125 25.5125,29 24.9166667,29 L1.08333333,29 C0.4875,29 0,28.5125 0,27.9166667 L0,17.0833333 C0,16.4875 0.4875,16 1.08333333,16 L24.9166667,16 C25.5125,16 26,16.4875 26,17.0833333 L26,27.9166667 Z" id="Shape" fill="#7B7B7B"></path>
                    <g id="Group" transform="translate(5.000000, 20.000000)" fill="#FFFFFF">
                        <path d="M0.050592,0.610133333 C0.050592,0.328533333 0.276896,0.0213333333 0.641376,0.0213333333 L2.650912,0.0213333333 C3.782432,0.0213333333 4.8008,0.763733333 4.8008,2.18666667 C4.8008,3.53493333 3.782432,4.28586667 2.650912,4.28586667 L1.198432,4.28586667 L1.198432,5.41226667 C1.198432,5.78773333 0.95472,6 0.641376,6 C0.354144,6 0.050592,5.78773333 0.050592,5.41226667 L0.050592,0.610133333 Z M1.198432,1.09546667 L1.198432,3.22026667 L2.650912,3.22026667 C3.23408,3.22026667 3.695392,2.71573333 3.695392,2.18666667 C3.695392,1.5904 3.23408,1.09546667 2.650912,1.09546667 L1.198432,1.09546667 Z" id="Shape"></path>
                        <path d="M6.504608,6 C6.217376,6 5.904032,5.8464 5.904032,5.472 L5.904032,0.6272 C5.904032,0.321066667 6.217376,0.0981333333 6.504608,0.0981333333 L8.496736,0.0981333333 C12.472288,0.0981333333 12.385248,6 8.575072,6 L6.504608,6 Z M7.05296,1.1392 L7.05296,4.96 L8.496736,4.96 C10.845728,4.96 10.950176,1.1392 8.496736,1.1392 L7.05296,1.1392 Z" id="Shape"></path>
                        <path d="M13.795296,1.20746667 L13.795296,2.5632 L16.013728,2.5632 C16.327072,2.5632 16.640416,2.8704 16.640416,3.168 C16.640416,3.4496 16.327072,3.68 16.013728,3.68 L13.795296,3.68 L13.795296,5.47093333 C13.795296,5.7696 13.578784,5.99893333 13.274144,5.99893333 C12.891168,5.99893333 12.657248,5.7696 12.657248,5.47093333 L12.657248,0.626133333 C12.657248,0.32 12.892256,0.0970666667 13.274144,0.0970666667 L16.32816,0.0970666667 C16.711136,0.0970666667 16.93744,0.32 16.93744,0.626133333 C16.93744,0.8992 16.711136,1.2064 16.32816,1.2064 L13.795296,1.2064 L13.795296,1.20746667 Z" id="Shape"></path>
                    </g>
                    <path d="M23.95,29 L4,29 L4,30 L23.95,30 C24.5275,30 25,29.55 25,29 L25,28 C25,28.55 24.5275,29 23.95,29 Z" id="Shape" fill="#CAD1D8"></path>
                </g>
            </g>
        </g>
    </g>
</svg>