<?xml version="1.0" encoding="UTF-8"?>
<svg width="32px" height="32px" viewBox="0 0 32 32" version="1.1" xmlns="http://www.w3.org/2000/svg" xmlns:xlink="http://www.w3.org/1999/xlink">
    <!-- Generator: Sketch 51.2 (57519) - http://www.bohemiancoding.com/sketch -->
    <title>icon_instagram</title>
    <desc>Created with Sketch.</desc>
    <defs>
        <linearGradient x1="36.39%" y1="-2.64%" x2="67.92%" y2="119.31%" id="linearGradient-1">
            <stop stop-color="#4E5FD3" offset="0%"></stop>
            <stop stop-color="#913BAF" offset="14.28%"></stop>
            <stop stop-color="#D52D88" offset="76.15%"></stop>
            <stop stop-color="#F26D4F" offset="100%"></stop>
        </linearGradient>
        <radialGradient cx="30.3054082%" cy="100.024014%" fx="30.3054082%" fy="100.024014%" r="2.9184375%" id="radialGradient-2">
            <stop stop-color="#FED276" offset="0%"></stop>
            <stop stop-color="#FDBD61" stop-opacity="0.975" offset="17.02%"></stop>
            <stop stop-color="#F6804D" offset="45.41%"></stop>
            <stop stop-color="#E83D5C" stop-opacity="0" offset="100%"></stop>
        </radialGradient>
    </defs>
    <g id="Layout.Desktop" stroke="none" stroke-width="1" fill="none" fill-rule="evenodd">
        <g id="Главная" transform="translate(-822.000000, -3756.000000)" fill-rule="nonzero">
            <g id="Contacts" transform="translate(90.000000, 3329.000000)">
                <g id="icon_instagram" transform="translate(732.000000, 427.000000)">
                    <path d="M16,0 C24.8,0 32,7.2 32,16 C32,24.8 24.8,32 16,32 C7.2,32 0,24.8 0,16 C0,7.2 7.2,0 16,0 Z" id="icon-social-instagram-b" fill="url(#linearGradient-1)"></path>
                    <path d="M16,0 C24.8,0 32,7.2 32,16 C32,24.8 24.8,32 16,32 C7.2,32 0,24.8 0,16 C0,7.2 7.2,0 16,0 Z" id="icon-social-instagram-b_1_" fill="url(#radialGradient-2)"></path>
                    <path d="M16,8.6 C18.4,8.6 18.7,8.6 19.6,8.7 C20.5,8.7 21,8.9 21.3,9 C21.7,9.2 22,9.4 22.3,9.7 C22.6,10 22.8,10.3 23,10.7 C23.1,11 23.3,11.5 23.3,12.4 C23.3,13.4 23.4,13.6 23.4,16 C23.4,18.4 23.4,18.7 23.3,19.6 C23.3,20.5 23.1,21 23,21.3 C22.8,21.7 22.6,22 22.3,22.3 C22,22.6 21.7,22.8 21.3,23 C21,23.1 20.5,23.3 19.6,23.3 C18.7,23.3 18.4,23.4 16,23.4 C13.6,23.4 13.3,23.4 12.4,23.3 C11.5,23.3 11,23.1 10.7,23 C10.3,22.9 10,22.6 9.7,22.3 C9.4,22 9.2,21.7 9,21.3 C8.9,21 8.7,20.5 8.7,19.6 C8.7,18.6 8.6,18.4 8.6,16 C8.6,13.6 8.6,13.3 8.7,12.4 C8.7,11.5 8.9,11 9,10.7 C9.2,10.3 9.4,10 9.7,9.7 C10,9.4 10.3,9.2 10.7,9 C11,8.9 11.5,8.7 12.4,8.7 C13.3,8.6 13.6,8.6 16,8.6 M16,7 C13.6,7 13.2,7 12.3,7.1 C11.3,7.1 10.7,7.3 10.1,7.5 C9.5,7.7 9,8.1 8.5,8.5 C8,8.9 7.7,9.5 7.5,10.1 C7.3,10.7 7.1,11.3 7.1,12.3 C7,13.3 7,13.6 7,16 C7,18.4 7,18.8 7.1,19.7 C7.1,20.7 7.3,21.3 7.5,21.9 C7.7,22.5 8.1,23 8.5,23.5 C9,24 9.5,24.3 10.1,24.5 C10.7,24.7 11.3,24.9 12.3,24.9 C13.3,24.9 13.6,25 16,25 C18.4,25 18.8,25 19.7,24.9 C20.7,24.9 21.3,24.7 21.9,24.5 C22.5,24.3 23,23.9 23.5,23.5 C24,23 24.3,22.5 24.5,21.9 C24.7,21.3 24.9,20.7 24.9,19.7 C24.9,18.7 25,18.4 25,16 C25,13.6 25,13.2 24.9,12.3 C24.9,11.3 24.7,10.7 24.5,10.1 C24.3,9.5 23.9,9 23.5,8.5 C23.1,8 22.5,7.7 21.9,7.5 C21.3,7.3 20.7,7.1 19.7,7.1 C18.7,7 18.4,7 16,7" id="Shape" fill="#FFFFFF"></path>
                    <path d="M16.6,11.3 C14,11.3 12,13.4 12,15.9 C12,18.5 14.1,20.5 16.6,20.5 C16.6,20.5 16.6,20.5 16.6,20.5 C19.2,20.5 21.2,18.4 21.2,15.9 C21.2,13.3 19.2,11.3 16.6,11.3 Z M16.6,18.9 C14.9,18.9 13.6,17.6 13.6,15.9 C13.6,14.2 14.9,12.9 16.6,12.9 C18.3,12.9 19.6,14.2 19.6,15.9 C19.6,17.6 18.3,18.9 16.6,18.9 Z M22.5,11.1 C22.5,11.7 22,12.2 21.5,12.2 C20.9,12.2 20.4,11.7 20.4,11.2 C20.4,11.2 20.4,11.2 20.4,11.1 C20.4,10.5 20.9,10 21.5,10 C22,10 22.5,10.5 22.5,11.1 Z" id="Shape" fill="#FFFFFF"></path>
                </g>
            </g>
        </g>
    </g>
</svg>