<?xml version="1.0" encoding="UTF-8"?>
<svg width="103px" height="104px" viewBox="0 0 103 104" version="1.1" xmlns="http://www.w3.org/2000/svg" xmlns:xlink="http://www.w3.org/1999/xlink">
    <!-- Generator: Sketch 51.2 (57519) - http://www.bohemiancoding.com/sketch -->
    <title>dental-care</title>
    <desc>Created with Sketch.</desc>
    <defs></defs>
    <g id="Page-1" stroke="none" stroke-width="1" fill="none" fill-rule="evenodd">
        <g id="Услуги" transform="translate(-1118.000000, -290.000000)" fill="#73C7FF" fill-rule="nonzero">
            <g id="services" transform="translate(0.000000, 145.000000)">
                <g id="dental-care" transform="translate(1118.000000, 145.000000)">
                    <path d="M65.5,7 C55.8349687,7 48,14.8349688 48,24.5 C48,34.1650313 55.8349687,42 65.5,42 C75.1650312,42 83,34.1650313 83,24.5 C82.9892812,14.8395625 75.1604375,7.01071875 65.5,7 Z M65.5,38.5 C57.7680625,38.5 51.5,32.2319375 51.5,24.5 C51.5,16.7680625 57.7680625,10.5 65.5,10.5 C73.2319375,10.5 79.5,16.7680625 79.5,24.5 C79.49125,32.2284375 73.2284375,38.4914688 65.5,38.5 Z" id="Shape"></path>
                    <path d="M102.497063,52.8206539 L86.2038056,36.3378192 C92.7101575,24.5689276 88.5535303,9.69245241 76.9199987,3.11061409 C65.2862524,-3.47144145 50.5808792,0.733549515 44.074742,12.5024412 C37.5686048,24.2713329 41.7250173,39.147808 53.3585489,45.7296464 C61.4512817,50.3082598 71.4213465,49.7919222 79.0096927,44.4011142 L94.9147288,60.4912109 C95.5855266,61.1695964 96.6728889,61.1695964 97.3436867,60.4912109 L102.497063,55.2778736 C103.167646,54.5992708 103.167646,53.4992567 102.497063,52.8206539 Z M65.2089517,45.3603683 C53.8294386,45.3479866 44.607687,36.0189368 44.5954477,24.5070192 C44.5954477,12.9901055 53.8245,3.65367006 65.2089517,3.65367006 C76.5934035,3.65367006 85.8224557,12.9901055 85.8224557,24.5070192 C85.8224557,36.0239329 76.5934035,45.3603683 65.2089517,45.3603683 Z M96.1292078,56.8053814 L81.6791414,42.1871837 C82.6153381,41.2922274 83.4798169,40.3236328 84.2644184,39.2903059 L98.8536259,54.0492638 L96.1292078,56.8053814 Z" id="Shape"></path>
                    <path d="M77.6654374,48.8496499 C76.362739,53.6510975 74.3569935,58.234728 71.7129582,62.45246 L71.0636597,63.4855848 C70.9617751,63.6491629 70.8875202,63.8282379 70.8443487,64.0159222 L63.3238826,96.9967101 C62.7671868,99.4510273 60.320445,100.990383 57.8590249,100.435294 C56.0473351,100.026779 54.6641219,98.565338 54.3597632,96.7384289 L49.1791895,65.7550157 C48.4659972,61.4957434 44.4249339,58.6191365 40.1531192,59.330486 C36.8498559,59.8804097 34.2615118,62.4612846 33.7099965,65.7550157 L28.5294228,96.7384289 C28.1156245,99.2207265 25.7623489,100.898478 23.2728674,100.485874 C21.4406712,100.182178 19.9750005,98.8029567 19.5653035,96.9967101 L12.0448374,64.0038691 C12.0016659,63.8161848 11.927411,63.6371098 11.8255264,63.4735317 L11.1762278,62.4404069 C6.1256002,54.3895665 3.44940218,45.08391 3.45371932,35.587771 C3.45479861,23.9136759 12.9469047,14.4508982 24.6545696,14.4519744 C27.523744,14.4521896 30.3629142,15.0333224 33.0002579,16.1598589 C34.8937576,16.9693552 36.8945383,17.5022754 38.9406491,17.7422617 L39.343007,14.3226186 C37.6280212,14.1215897 35.9512422,13.6743328 34.3644757,12.9950532 C21.8516633,7.64583422 7.35922431,13.4238 1.9945244,25.900504 C0.678442825,28.9615668 -0.000212328183,32.2572349 3.52905406e-06,35.587771 C-0.00366604397,45.7287521 2.85449963,55.6661214 8.24747684,64.2638722 L8.7413582,65.0524908 L16.1979306,97.76811 C17.1781383,102.076886 21.4758559,104.777431 25.7971019,103.800052 C28.9755997,103.08117 31.4020509,100.516222 31.9365135,97.3100913 L37.1170871,66.3266781 C37.517934,63.9425273 39.7811972,62.3340811 42.1722478,62.7337713 C44.0189064,63.0426326 45.4657975,64.4853483 45.7755526,66.3266781 L50.9561263,97.3100913 C51.6827018,101.668371 55.8150727,104.614284 60.1859659,103.889805 C63.4011595,103.356885 65.9735302,100.937436 66.6947092,97.76811 L74.1512816,65.0524908 L74.6451629,64.2638722 C77.4655536,59.7626765 79.6066415,54.8725524 81,49.7501904 L77.6654374,48.8496499 Z" id="Shape"></path>
                    <path d="M19.6451613,22.7192982 L19.2903226,21 C15.7419355,21.7035088 9,25.5350877 9,35 L12.5483871,35 C12.5483871,26.1052632 19.6983871,24.5017544 20,24.4368421 L19.6451613,22.7192982 Z" id="Shape"></path>
                    <rect id="Rectangle-path" x="23" y="21" width="3" height="3"></rect>
                    <rect id="Rectangle-path" transform="translate(62.500000, 20.500000) rotate(-45.000000) translate(-62.500000, -20.500000) " x="56" y="19" width="13" height="3"></rect>
                    <rect id="Rectangle-path" transform="translate(68.500000, 26.500000) rotate(-45.000000) translate(-68.500000, -26.500000) " x="60" y="25" width="17" height="3"></rect>
                </g>
            </g>
        </g>
    </g>
</svg>