<?xml version="1.0" encoding="UTF-8"?>
<svg width="29px" height="32px" viewBox="0 0 29 32" version="1.1" xmlns="http://www.w3.org/2000/svg" xmlns:xlink="http://www.w3.org/1999/xlink">
    <!-- Generator: Sketch 52.2 (67145) - http://www.bohemiancoding.com/sketch -->
    <title>logo svg</title>
    <desc>Created with Sketch.</desc>
    <g id="UI-kit-(hover/active/pop-up-etc)" stroke="none" stroke-width="1" fill="none" fill-rule="evenodd">
        <g id="Mobile-burger-menu" transform="translate(-267.000000, -31.000000)" fill="#383838" fill-rule="nonzero">
            <g id="contacts" transform="translate(80.000000, 23.000000)">
                <g id="logo-svg" transform="translate(187.237373, 8.000000)">
                    <g id="Group-3">
                        <path d="M13.7904762,19 C8.55238095,19 4.15238095,15.2258065 3,13.2903226 L3.83809524,13 C4.88571429,14.8387097 8.97142857,18.4193548 14,18.2258065 L14,19 C14,19 13.8952381,19 13.7904762,19 Z" id="Shape"></path>
                        <path d="M21.2690664,31.9736479 C19.7254994,31.9736479 18.9022637,30.932161 18.1819324,25.9330238 C17.3586967,20.6214406 14.6831807,20.4131433 14.1686584,20.4131433 C14.1686584,20.4131433 14.0657539,20.4131433 14.0657539,20.4131433 C14.0657539,20.4131433 13.9628494,20.4131433 13.9628494,20.4131433 C13.4483271,20.4131433 10.7728111,20.7255893 9.94957534,25.9330238 C9.12633963,31.244607 8.20019946,32.1819452 6.45082357,31.9736479 C6.34791911,31.9736479 6.24501465,31.9736479 6.24501465,31.9736479 C5.62758786,31.9736479 5.01016108,31.5570531 4.3927343,30.932161 C2.95207181,29.3699306 0.791078065,24.9956856 2.84916734,13.9559245 L0.173651283,6.66551617 C-0.135062109,6.04062403 -0.0321576449,5.3115832 0.482364674,4.79083975 L4.28982983,0.520743451 C4.28982983,0.520743451 4.28982983,0.520743451 4.28982983,0.520743451 C4.80435215,0.20829738 5.21597001,0 5.73049233,0 L9.94957534,0 C10.4640977,0 10.8757155,0.20829738 11.2873334,0.520743451 L13.654136,2.70786594 C13.859945,2.91616332 14.1686584,2.91616332 14.3744673,2.70786594 L16.74127,0.520743451 C17.1528878,0.20829738 17.5645057,0 18.079028,0 L22.298111,0 C22.8126333,0 23.2242512,0.20829738 23.635869,0.520743451 C23.635869,0.520743451 23.635869,0.520743451 23.635869,0.520743451 L27.4433342,4.79083975 C27.9578565,5.3115832 28.1636654,6.04062403 27.854952,6.66551617 L25.0765315,13.8517758 C27.3404297,24.7873882 25.179436,29.1616332 23.7387735,30.7238636 C23.1213467,31.4529044 22.298111,31.8694992 21.6806842,31.8694992 C21.5777798,31.8694992 21.4748753,31.8694992 21.4748753,31.8694992 C21.4748753,31.9736479 21.3719708,31.9736479 21.2690664,31.9736479 Z M14.0657539,19.0592103 C14.6831807,19.0592103 18.4906458,19.3716564 19.416786,25.6205778 C19.7254994,28.0159976 20.1371173,29.578228 20.6516396,30.3072688 C20.8574485,30.6197149 20.960353,30.6197149 21.3719708,30.6197149 C21.4748753,30.6197149 21.5777798,30.6197149 21.7835887,30.6197149 C21.8864931,30.6197149 22.4010155,30.4114175 22.9155378,29.6823767 C24.1503913,28.1201463 25.7968628,24.0583474 23.7387735,13.8517758 C23.7387735,13.7476271 23.7387735,13.6434784 23.7387735,13.5393297 L26.6200985,6.24892141 C26.6200985,6.24892141 26.6200985,6.24892141 26.6200985,6.14477272 C26.7230029,5.93647534 26.6200985,5.72817796 26.517194,5.62402927 C26.517194,5.62402927 26.517194,5.62402927 26.517194,5.62402927 L22.6068244,1.35393297 C22.5039199,1.24978428 22.4010155,1.24978428 22.298111,1.24978428 L18.079028,1.24978428 C17.9761235,1.24978428 17.8732191,1.24978428 17.7703146,1.35393297 L15.4035119,3.54105546 C14.9918941,3.95765022 14.4773718,4.1659476 14.0657539,4.1659476 C13.5512316,4.1659476 13.1396137,3.95765022 12.7279959,3.64520415 L10.2582887,1.35393297 C10.1553843,1.35393297 10.0524798,1.24978428 9.94957534,1.24978428 L5.73049233,1.24978428 C5.62758786,1.24978428 5.5246834,1.24978428 5.42177894,1.35393297 L1.51140931,5.62402927 C1.51140931,5.62402927 1.51140931,5.62402927 1.51140931,5.62402927 C1.30560038,5.83232665 1.30560038,6.04062403 1.40850485,6.14477272 C1.40850485,6.14477272 1.40850485,6.14477272 1.40850485,6.24892141 L4.28982983,13.6434784 C4.28982983,13.7476271 4.28982983,13.8517758 4.28982983,13.9559245 C2.23174056,24.4749422 4.28982983,28.5367411 5.21597001,29.7865254 C5.73049233,30.4114175 6.14211018,30.6197149 6.24501465,30.6197149 C6.34791911,30.6197149 6.45082357,30.6197149 6.55372804,30.6197149 C6.96534589,30.6197149 7.06825036,30.6197149 7.27405929,30.3072688 C7.7885816,29.6823767 8.20019946,28.1201463 8.61181731,25.7247265 C9.53795749,19.163359 13.5512316,19.0592103 14.0657539,19.0592103 C14.0657539,19.0592103 14.0657539,19.0592103 14.0657539,19.0592103 C14.0657539,19.0592103 14.0657539,19.0592103 14.0657539,19.0592103 Z" id="Shape"></path>
                        <path d="M14.2095238,19 C14.1047619,19 14,19 14,19 L14,18.2258065 C18.9238095,18.3225806 23.1142857,14.8387097 24.1619048,13 L25,13.2903226 C23.847619,15.3225806 19.447619,19 14.2095238,19 Z" id="Shape"></path>
                    </g>
                </g>
            </g>
        </g>
    </g>
</svg>