<?xml version="1.0" encoding="UTF-8"?>
<svg width="62px" height="21px" viewBox="0 0 62 21" version="1.1" xmlns="http://www.w3.org/2000/svg" xmlns:xlink="http://www.w3.org/1999/xlink">
    <!-- Generator: Sketch 51.2 (57519) - http://www.bohemiancoding.com/sketch -->
    <title>yandex-pay-logo</title>
    <desc>Created with Sketch.</desc>
    <defs></defs>
    <g id="Page-1-Copy" stroke="none" stroke-width="1" fill="none" fill-rule="evenodd">
        <g id="Главная" transform="translate(-1236.000000, -2267.000000)" fill="#000000" fill-rule="nonzero">
            <g id="reviews" transform="translate(136.000000, 2263.000000)">
                <g id="Яндекс-отзывы" transform="translate(990.000000, 0.000000)">
                    <g id="yandex-pay-logo" transform="translate(110.000000, 4.710103)">
                        <path d="M19.1879849,6.32721865 C19.1879849,7.8710795 19.1879849,9.38301842 19.1879849,10.9094673 C18.0184813,10.9094673 16.9302335,10.9094673 15.7578279,10.9094673 C15.7578279,9.35109649 15.7578279,7.83915757 15.7578279,6.31270868 C15.1222912,6.31270868 14.5709123,6.31270868 13.9643955,6.31270868 C13.9643955,10.1346349 13.9643955,13.8898152 13.9643955,17.6537016 C14.5912263,17.6537016 15.1571151,17.6537016 15.8129658,17.6537016 C15.8129658,15.9357211 15.8129658,14.2641725 15.8129658,12.5752119 C16.9737634,12.5752119 18.0475012,12.5752119 19.1995929,12.5752119 C19.1995929,14.2873884 19.1995929,15.961839 19.1995929,17.6595056 C19.8525415,17.6595056 20.4184304,17.6595056 21.0249472,17.6595056 C21.0249472,13.8636973 21.0249472,10.102713 21.0249472,6.32721865 C20.4039204,6.32721865 19.8380316,6.32721865 19.1879849,6.32721865 Z" id="Shape"></path>
                        <path d="M9.59109046,0.212717109 C8.60151047,0.212717109 7.61773448,0.215619103 6.63105649,0.212717109 C5.23809933,0.206913121 4.08310568,0.642212234 3.13415361,1.48088853 C-0.124785746,4.36547065 0.73130251,9.84443548 5.06688168,11.0139391 C3.61008064,13.2020426 2.16198559,15.3843422 0.644242687,17.6711135 C1.26236743,17.6711135 1.73829446,17.6391916 2.20261351,17.6798195 C2.81783626,17.7349574 3.13415361,17.5347198 3.41854903,17.0791067 C4.50389482,15.3175963 5.65598648,13.5822039 6.78196018,11.8352034 C7.30141712,11.0342531 7.36526099,11.0110371 8.5899025,11.2460986 C8.5899025,13.3587503 8.5899025,15.488814 8.5899025,17.6159756 C9.32991099,17.6159756 9.97125168,17.6159756 10.6677303,17.6159756 C10.6677303,17.2503244 10.6677303,16.942713 10.6677303,16.6292977 C10.6677303,11.4463362 10.6677303,6.26047279 10.6677303,1.07460935 C10.6677303,0.212659822 10.6648283,0.215619103 9.59109046,0.212717109 Z M8.53186262,9.41784235 C7.1185915,9.40333238 5.6443785,9.75447367 4.56773869,8.69524583 C3.33439121,7.48511429 2.98324992,6.08635314 3.43886299,4.55119827 C3.47658892,4.42931452 3.53753079,4.31323475 3.58686469,4.19715499 C4.50389482,2.08740529 5.71402636,1.50120248 8.53186262,1.85234377 C8.53186262,4.37417663 8.53186262,6.86118556 8.53186262,9.41784235 Z" id="Shape"></path>
                        <path d="M60.9505818,16.0256829 C57.8715661,17.0529888 55.7473064,16.1243507 55.1901235,13.4429082 C54.8970221,12.052853 55.0014939,10.6540918 55.5093429,9.2988606 C56.1942135,7.44738837 57.5552487,6.89600949 59.8188041,7.50833024 C59.862334,7.51993822 59.9145699,7.49962426 59.9929238,7.48801628 C60.2192793,7.20652286 60.4514388,6.91051946 60.7039123,6.59420211 C58.8350281,5.36665861 56.2725673,5.65976001 54.8796102,7.20942485 C53.8029704,8.40504642 53.3821812,9.7892976 53.2457875,11.2431966 C53.0919818,12.9118432 53.2980234,14.5311559 54.4007812,15.9966629 C55.5557748,17.5289158 57.5581507,18.2486104 59.6185665,17.7668793 C61.0724656,17.424444 61.2349772,17.2735403 60.9505818,16.0256829 Z" id="Shape"></path>
                        <path d="M41.733577,16.1794886 C41.202512,16.3332943 40.6917611,16.5190219 40.1577942,16.6263957 C38.6690712,16.928203 37.6069414,16.5973757 37.0410525,15.6600316 C36.3764959,14.5630779 36.4084178,13.3848683 36.4490457,12.1515208 C38.3585578,12.1515208 40.1926181,12.1515208 42.0644043,12.1515208 C42.186288,10.3058525 41.9599325,8.57626407 40.7904289,7.00338327 C39.763123,5.62203409 37.9842006,5.40148254 36.5709295,6.53616222 C36.0398646,6.95985336 35.5929575,7.50252626 35.2795421,8.05390513 C34.4031399,9.58906 34.0694106,11.2431966 34.2754522,12.9205492 C34.4060419,13.9623651 34.6933393,15.0215929 35.1373444,16.0024669 C35.7815871,17.444758 37.2703101,18.1818645 38.9911926,17.9990389 C39.8240649,17.911979 40.6569372,17.6769175 41.4404756,17.4041301 C42.3139758,17.1023227 42.3371917,16.8237313 41.733577,16.1794886 Z M37.3805858,7.86237352 C38.0132205,7.07593312 39.0579384,7.09914908 39.6180233,7.9233154 C40.244854,8.83744354 40.3203058,9.84733748 40.2941879,10.9065653 C38.9331527,10.9065653 37.6881972,10.9065653 36.3822999,10.9065653 C36.4432417,9.79800358 36.6550873,8.77069767 37.3805858,7.86237352 Z" id="Shape"></path>
                        <path d="M48.6867548,10.7614656 C49.8069245,9.47298024 50.8777603,8.15837692 51.9660081,6.85538157 C52.0994998,6.6957719 52.2155796,6.52745624 52.4013072,6.28368874 C52.0501659,6.28368874 51.8441244,6.30690469 51.6496908,6.28078674 C50.8545444,6.17341296 50.3699114,6.43169044 49.9375142,7.00048128 C48.9827582,8.25414272 47.9235304,9.44976429 46.9020284,10.6656998 C46.7859487,10.8020935 46.640849,10.9210753 46.3622575,11.1909607 C46.3622575,9.44686229 46.3622575,7.89719745 46.3622575,6.31561067 C45.7354268,6.31561067 45.1869499,6.31561067 44.5891391,6.31561067 C44.5891391,10.0475751 44.5891391,13.7185976 44.5891391,17.3867181 C45.1985579,17.3867181 45.7470348,17.3867181 46.3883755,17.3867181 C46.3883755,16.0721148 46.3593555,14.7836294 46.4057874,13.500948 C46.4231994,13.0598449 46.626339,12.6187418 46.7424188,12.1776387 C47.0877561,12.3894843 47.2357578,12.5781139 47.3663475,12.7754495 C48.2920836,14.1655047 49.2062117,15.5555598 50.1406538,16.936909 C50.2625376,17.1197347 50.4714812,17.3664042 50.6688168,17.3925221 C51.1969797,17.459268 51.7396526,17.4157381 52.3926012,17.4157381 C51.0925079,15.4365781 49.8794744,13.5676939 48.6374209,11.7075157 C48.4023594,11.3592764 48.3849474,11.1068029 48.6867548,10.7614656 Z" id="Shape"></path>
                        <path d="M31.4402039,16.1475666 C31.4402039,12.8509014 31.4402039,9.59486399 31.4402039,6.31270868 C29.446534,6.31270868 27.5341199,6.31270868 25.51143,6.31270868 C25.51143,7.04981518 25.537548,7.71146983 25.508528,8.37602648 C25.4098602,10.6860138 25.3257024,12.9989031 24.3622404,15.2102226 C24.1242768,15.7557974 23.9472552,16.3390982 23.0273231,16.2172145 C23.0273231,17.44766 23.0273231,18.6200656 23.0273231,19.7866672 C23.6077219,19.7866672 24.1271788,19.7866672 24.7365976,19.7866672 C24.7365976,18.9886189 24.7365976,18.2282964 24.7365976,17.4679739 C26.9072892,17.4679739 28.9851169,17.4679739 31.1587105,17.4679739 C31.1587105,18.2718263 31.1587105,19.0321488 31.1587105,19.7750592 C31.7681293,19.7750592 32.2817822,19.7750592 32.7751212,19.7750592 C32.7751212,18.5446138 32.7751212,17.3722081 32.7751212,16.1998025 C32.3108022,16.1823906 31.916131,16.1649786 31.4402039,16.1475666 Z M29.5684178,16.1475666 C28.2160885,16.1475666 26.9450151,16.1475666 25.5752739,16.1475666 C27.3077644,13.4661241 27.0727028,10.584444 27.1974886,7.70856784 C27.989733,7.70856784 28.7558594,7.70856784 29.5684178,7.70856784 C29.5684178,10.5176981 29.5684178,13.3007104 29.5684178,16.1475666 Z" id="Shape"></path>
                    </g>
                </g>
            </g>
        </g>
    </g>
</svg>