<?xml version="1.0" encoding="UTF-8"?>
<svg width="74px" height="74px" viewBox="0 0 74 74" version="1.1" xmlns="http://www.w3.org/2000/svg" xmlns:xlink="http://www.w3.org/1999/xlink">
    <!-- Generator: Sketch 51.2 (57519) - http://www.bohemiancoding.com/sketch -->
    <title>dental-tooth-icon</title>
    <desc>Created with Sketch.</desc>
    <defs></defs>
    <g id="Page-1-Copy" stroke="none" stroke-width="1" fill="none" fill-rule="evenodd">
        <g id="Главная" transform="translate(-872.000000, -776.000000)" fill="#73C7FF" fill-rule="nonzero">
            <g id="popular-services" transform="translate(134.000000, 689.000000)">
                <g id="dental-tooth-icon" transform="translate(738.000000, 87.000000)">
                    <path d="M11.9806184,5.80501999 C11.8906559,5.29507226 11.5008185,4.90511223 10.9910311,4.81512146 C9.04184403,4.48515528 7.51248187,2.9553121 7.18261944,1.00551196 C7.07766321,0.345579609 6.44792585,-0.0893758053 5.80319475,0.0156134327 C5.29340736,0.105604208 4.90356994,0.495564235 4.81360746,1.00551196 C4.48374504,2.9553121 2.95438287,4.50015374 1.00519581,4.81512146 C0.345470951,4.92011069 -0.0893477034,5.55004612 0.0156085235,6.19498001 C0.105571004,6.70492774 0.495408418,7.09488777 1.00519581,7.18487854 C2.95438287,7.51484472 4.48374504,9.0446879 4.81360746,10.994488 C4.91856369,11.6544204 5.54830105,12.0893758 6.19303216,11.9843866 C6.70281955,11.8943958 7.09265696,11.5044358 7.18261944,10.994488 C7.51248187,9.0446879 9.04184403,7.49984626 10.9910311,7.18487854 C11.650756,7.06489084 12.1005684,6.44995388 11.9806184,5.80501999 Z M6.0131072,7.70982473 C5.54830105,7.04989238 4.96354493,6.46495234 4.30382008,6 C4.96354493,5.53504766 5.54830105,4.95010762 6.0131072,4.29017527 C6.47791335,4.95010762 7.06266947,5.53504766 7.72239432,6 C7.06266947,6.46495234 6.47791335,7.04989238 6.0131072,7.70982473 Z" id="Shape"></path>
                    <path d="M49.464428,8.01333733 C47.0822982,8.01333733 44.7309055,8.48680062 42.5485672,9.41845417 C39.3211654,10.777752 35.6941806,10.777752 32.4667789,9.41845417 C23.5530027,5.61547491 13.2406857,9.72391435 9.41390933,18.5822596 C8.47642597,20.7510269 8,23.0877973 8,25.4551137 C8,32.6487009 10.0286525,39.7048311 13.8707974,45.7987617 L14.2242748,46.3638631 L19.5264348,69.5788368 C20.2180209,72.6334386 23.2917368,74.5578378 26.3654527,73.8552793 C28.624634,73.35127 30.3612835,71.5185089 30.7301294,69.2428306 L34.4185885,47.2496976 C34.7105915,45.5543936 36.3089238,44.4241909 38.0148362,44.6991051 C39.336534,44.9129272 40.3662289,45.9362188 40.581389,47.2496976 L44.2698481,69.2275576 C44.7923798,72.3279784 47.7277785,74.4051077 50.8476002,73.9010984 C53.1375186,73.5192731 54.9663796,71.8086961 55.4735427,69.5635638 L60.7757027,46.34859 L61.12918,45.7834887 C64.971325,39.6895581 66.9999775,32.6334279 66.9999775,25.4398407 C67.0153461,15.817845 59.1620018,8.01333733 49.464428,8.01333733 Z M59.0544218,44.5005559 L58.5933644,45.2336604 C58.5165215,45.3558445 58.4704157,45.4780285 58.4396786,45.6154856 L53.0760443,69.0290085 C52.6764612,70.7701315 50.9398117,71.8545151 49.1877936,71.4726899 C47.8968329,71.1825028 46.9132438,70.1439381 46.6980837,68.8457324 L43.0096246,46.8678723 C42.5024614,43.8438166 39.628537,41.7972333 36.5855582,42.3165157 C34.2341656,42.7136139 32.389936,44.531102 32.0057215,46.8678723 L28.3172624,68.8610054 C28.0252594,70.6174014 26.3500842,71.8086961 24.5826975,71.5185089 C23.2763682,71.3046868 22.2313048,70.3272142 21.9393018,69.0442815 L16.5910361,45.6307586 C16.5602989,45.4933015 16.4988246,45.3711175 16.4373503,45.2489334 L15.9762929,44.515829 C12.3646766,38.7884506 10.4589728,32.1905107 10.4589728,25.4551137 C10.4743413,17.1771428 17.2211478,10.4722918 25.550918,10.4570188 C27.5949391,10.4570188 29.6235916,10.86939 31.4985584,11.6635865 C35.3407033,13.2977985 39.6746428,13.2977985 43.5167877,11.6635865 C51.185709,8.39516256 60.0533795,11.9232277 63.3422555,19.5444592 C64.1414217,21.4077663 64.5563733,23.4238035 64.5563733,25.4551137 C64.5563733,32.1905107 62.6506694,38.7884506 59.0544218,44.5005559 Z" id="Shape"></path>
                    <path d="M73.9806184,57.80502 C73.8906559,57.2950723 73.5008185,56.9051122 72.9910311,56.8151215 C71.041844,56.4851553 69.5124819,54.9553121 69.1826194,53.005512 C69.0776632,52.3455796 68.4479259,51.9106242 67.8031947,52.0156134 C67.2934074,52.1056042 66.9035699,52.4955642 66.8136075,53.005512 C66.483745,54.9553121 64.9543829,56.5001537 63.0051958,56.8151215 C62.345471,56.9201107 61.9106523,57.5500461 62.0156085,58.19498 C62.105571,58.7049277 62.4954084,59.0948878 63.0051958,59.1848785 C64.9543829,59.5148447 66.483745,61.0446879 66.8136075,62.994488 C66.9185637,63.6544204 67.5483011,64.0893758 68.1930322,63.9843866 C68.7028195,63.8943958 69.092657,63.5044358 69.1826194,62.994488 C69.5124819,61.0446879 71.041844,59.4998463 72.9910311,59.1848785 C73.650756,59.0648908 74.1005684,58.4499539 73.9806184,57.80502 Z M68.0131072,59.7098247 C67.5483011,59.0498924 66.9635449,58.4649523 66.3038201,58 C66.9635449,57.5350477 67.5483011,56.9501076 68.0131072,56.2901753 C68.4779133,56.9501076 69.0626695,57.5350477 69.7223943,58 C69.0626695,58.4649523 68.4779133,59.0498924 68.0131072,59.7098247 Z" id="Shape"></path>
                    <g id="Group" transform="translate(19.000000, 23.000000)">
                        <polygon id="Shape" points="0 8 0 0 2 0 2 8"></polygon>
                        <path d="M12.2785515,6.50800915 L13,7.99084668 C12.7465181,8.2791762 12.3760446,8.52631579 11.8885794,8.71167048 C11.4011142,8.89702517 10.8746518,9 10.3286908,9 C9.04178273,9 8.00835655,8.58810069 7.20891365,7.76430206 C6.40947075,6.94050343 6,5.84897025 6,4.51029748 C6,3.19221968 6.37047354,2.12128146 7.13091922,1.27688787 C7.8913649,0.432494279 8.94428969,0 10.3091922,0 C10.8356546,0 11.3231198,0.0823798627 11.7715877,0.247139588 C12.2200557,0.411899314 12.5710306,0.638443936 12.8245125,0.90617849 L11.9860724,2.38901602 C11.4206128,2.0389016 10.8746518,1.85354691 10.3091922,1.85354691 C9.64623955,1.85354691 9.10027855,2.08009153 8.65181058,2.55377574 C8.22284123,3.02745995 8.00835655,3.66590389 8.00835655,4.48970252 C8.00835655,5.25171625 8.24233983,5.89016018 8.71030641,6.38443936 C9.17827298,6.87871854 9.78272981,7.12585812 10.5041783,7.12585812 C11.1476323,7.14645309 11.7325905,6.94050343 12.2785515,6.50800915 Z" id="Shape"></path>
                        <path d="M17,4.47945205 C17,3.20547945 17.421875,2.1369863 18.2455357,1.2739726 C19.0892857,0.410958904 20.1741071,0 21.5,0 C22.8258929,0 23.890625,0.410958904 24.734375,1.23287671 C25.578125,2.05479452 26,3.14383562 26,4.5 C26,5.81506849 25.578125,6.88356164 24.7142857,7.7260274 C23.8705357,8.56849315 22.7857143,9 21.4799107,9 C20.1540179,9 19.0892857,8.5890411 18.2455357,7.76712329 C17.421875,6.92465753 17,5.83561644 17,4.47945205 Z M19.0691964,4.47945205 C19.0691964,5.21917808 19.3102679,5.85616438 19.7924107,6.34931507 C20.2745536,6.8630137 20.8370536,7.10958904 21.5200893,7.10958904 C22.3035714,7.10958904 22.90625,6.8630137 23.328125,6.36986301 C23.75,5.87671233 23.9709821,5.23972603 23.9709821,4.47945205 C23.9709821,3.69863014 23.7299107,3.06164384 23.2678571,2.5890411 C22.8058036,2.09589041 22.2232143,1.84931507 21.5200893,1.84931507 C20.8169643,1.84931507 20.2142857,2.09589041 19.7522321,2.56849315 C19.2901786,3.06164384 19.0691964,3.69863014 19.0691964,4.47945205 Z" id="Shape"></path>
                        <polygon id="Shape" points="37 8 35.5353261 8 31.7309783 3.20379147 31.7309783 8 30 8 30 0 31.4646739 0 35.2690217 4.83412322 35.2690217 0 37 0"></polygon>
                    </g>
                </g>
            </g>
        </g>
    </g>
</svg>