<?xml version="1.0" encoding="UTF-8"?>
<svg width="68px" height="57px" viewBox="0 0 68 57" version="1.1" xmlns="http://www.w3.org/2000/svg" xmlns:xlink="http://www.w3.org/1999/xlink">
    <!-- Generator: Sketch 51.2 (57519) - http://www.bohemiancoding.com/sketch -->
    <title>Path 4</title>
    <desc>Created with Sketch.</desc>
    <defs></defs>
    <g id="Layout.Desktop" stroke="none" stroke-width="1" fill="none" fill-rule="evenodd">
        <g id="Главная" transform="translate(-205.000000, -3793.000000)" fill="#383838" fill-rule="nonzero">
            <g id="Contacts" transform="translate(90.000000, 3329.000000)">
                <g id="arrow" transform="translate(119.000000, 466.000000)">
                    <path id="Path-4" d="M-2.266871,8.24614072 L1.41989508,-0.159676063 L0.552592268,-0.0734801203 L5.82170553,7.44226638 L6.64052313,6.8682126 L1.37140987,-0.647533898 L0.861139843,-1.37537176 L0.50410705,-0.561337955 L-3.18265904,7.84447883 L-2.266871,8.24614072 Z M0.513900564,0.186490193 L0.612797262,1.1815879 L1.60789497,1.0826912 L1.50899827,0.0875934945 L0.513900564,0.186490193 Z M0.71169396,2.1766856 L0.810590658,3.17178331 L1.80568836,3.07288661 L1.70679167,2.07778891 L0.71169396,2.1766856 Z M0.909487357,4.16688101 L1.00838405,5.16197872 L2.00348176,5.06308202 L1.90458506,4.06798432 L0.909487357,4.16688101 Z M1.10728075,6.15707642 L1.20617745,7.15217413 L2.20127516,7.05327743 L2.10237846,6.05817973 L1.10728075,6.15707642 Z M1.33373888,8.16734859 C1.38366764,8.50013371 1.43546206,8.8311401 1.48912231,9.16036772 L2.47609863,8.99950211 C2.42311796,8.67444398 2.37197517,8.34760201 2.32267044,8.01897619 L1.33373888,8.16734859 Z M1.65777789,10.1544955 C1.71620873,10.4857564 1.77657075,10.8151767 1.83886414,11.1427563 L2.82125928,10.9559414 C2.75979754,10.6327352 2.70023611,10.3076841 2.64257516,9.98078789 L1.65777789,10.1544955 Z M2.03388301,12.1314462 C2.10142669,12.4618646 2.17098106,12.790367 2.24254632,13.1169534 L3.21936854,12.9029011 C3.14881017,12.5809097 3.08022803,12.2569991 3.01362233,11.9311692 L2.03388301,12.1314462 Z M2.46569281,14.1012848 C2.54264536,14.429641 2.62167999,14.7560136 2.70279692,15.0804026 L3.67292557,14.8378115 C3.59301073,14.5182298 3.51513981,14.1966626 3.43931302,13.8731101 L2.46569281,14.1012848 Z M2.95605056,16.0613477 C3.04307129,16.3880173 3.13225734,16.7126243 3.22360894,17.0351687 L4.18576379,16.7626654 C4.09583698,16.4451517 4.00803317,16.1255756 3.92235259,15.8039368 L2.95605056,16.0613477 Z M3.50633641,18.0038526 C3.60365244,18.3275633 3.70320728,18.6491416 3.80500114,18.9685873 L4.75779579,18.6649718 C4.65767057,18.3507626 4.55973769,18.0344235 4.46399739,17.7159543 L3.50633641,18.0038526 Z M4.12074804,19.931342 C4.22853653,20.2508159 4.3386264,20.5680977 4.45101786,20.8831871 L5.39289271,20.5472231 C5.28243443,20.2375534 5.17422706,19.925697 5.06827081,19.6116537 L4.12074804,19.931342 Z M4.80409891,21.8457675 C4.92298252,22.1610556 5.04423801,22.4740841 5.16786558,22.7848527 L6.09704155,22.415215 C5.97564104,22.1100447 5.85655773,21.8026238 5.73979181,21.492952 L4.80409891,21.8457675 Z M5.54232283,23.7019264 C5.67278672,24.0133135 5.80570237,24.322364 5.94106997,24.6290778 L6.85592969,24.225306 C6.72310748,23.9243595 6.59267805,23.6210898 6.46464158,23.3154964 L5.54232283,23.7019264 Z M6.3601788,25.5543699 C6.5023233,25.8602351 6.64698326,26.163702 6.79415881,26.4647701 L7.69255886,26.0255921 C7.54826445,25.7304177 7.40642282,25.4328631 7.26703408,25.1329277 L6.3601788,25.5543699 Z M7.25133424,27.3765413 C7.40565543,27.6766647 7.56255937,27.9743241 7.72204613,28.2695188 L8.60184983,27.7941816 C8.4456018,27.5049815 8.29187043,27.2133407 8.1406558,26.9192589 L7.25133424,27.3765413 Z M8.21611467,29.1615593 C8.38304844,29.4556197 8.55263409,29.7471479 8.7248716,30.0361434 L9.58388166,29.5241847 C9.41525708,29.2412513 9.24921541,28.9558154 9.08575664,28.6678763 L8.21611467,29.1615593 Z M9.25681109,30.9071558 C9.43612374,31.1937314 9.61813866,31.477724 9.80285575,31.7591331 L10.6388459,31.2103886 C10.4581121,30.935048 10.2800101,30.6571605 10.1045395,30.3767253 L9.25681109,30.9071558 Z M10.3757262,32.6110221 C10.5670586,32.8887794 10.761124,33.1639211 10.9579223,33.4364467 L11.7686379,32.8510066 C11.5761798,32.5844912 11.3863838,32.3154025 11.1992497,32.04374 L10.3757262,32.6110221 Z M11.5694355,34.2632402 C11.7735413,34.5326998 11.9804256,34.7994966 12.1900882,35.06363 L12.9733296,34.4419123 C12.7683687,34.1837021 12.5661159,33.922878 12.3665708,33.6594394 L11.5694355,34.2632402 Z M12.7939675,35.8077749 C13.0095331,36.0676222 13.2278922,36.3247887 13.4490444,36.5792736 L14.2038541,35.9233297 C13.9877129,35.6746111 13.7742968,35.4232662 13.5636054,35.1692943 L12.7939675,35.8077749 Z M14.123081,37.3371015 C14.3500905,37.5864838 14.5798979,37.8331769 14.8125027,38.0771802 L15.5363135,37.3871817 C15.3090033,37.1487324 15.0844259,36.9076536 14.8625807,36.6639446 L14.123081,37.3371015 Z M15.5227803,38.8051981 C15.7610156,39.0437948 16.0020467,39.2796998 16.2458731,39.5129127 L16.9370766,38.7902525 C16.6987904,38.5623387 16.4632393,38.3317972 16.2304229,38.0986275 L15.5227803,38.8051981 Z M16.9934359,40.2115047 C17.2419008,40.4383562 17.4931368,40.6625358 17.7471433,40.8840432 L18.4043894,40.1303672 C18.1561082,39.9138525 17.9105428,39.6947328 17.6676926,39.4730077 L16.9934359,40.2115047 Z M18.5244621,41.5463673 C18.7833149,41.7618626 19.0449206,41.9746996 19.3092786,42.1848781 L19.9316094,41.4021237 C19.673126,41.1966158 19.4173461,40.9885186 19.1642691,40.7778316 L18.5244621,41.5463673 Z M20.1147999,42.8106187 C20.3827772,43.0140003 20.6534663,43.2147598 20.9268666,43.4128971 L21.5136829,42.603177 C21.2462377,42.4093555 20.9814613,42.2129812 20.7193532,42.014054 L20.1147999,42.8106187 Z M21.7594368,44.0023727 C22.0357848,44.1935086 22.3147939,44.3820683 22.5964636,44.5680517 L23.1474738,43.7335532 C22.8717849,43.5515189 22.5987208,43.3669769 22.3282808,43.1799272 L21.7594368,44.0023727 Z M23.4568652,45.1229418 C23.7412986,45.3020889 24.0283431,45.4787055 24.3179983,45.6527918 L24.8331319,44.7956819 C24.5494421,44.6251809 24.2683333,44.4522164 23.989805,44.2767886 L23.4568652,45.1229418 Z M25.2013361,46.1712083 C25.4927856,46.3382111 25.7867836,46.5027422 26.0833295,46.6648017 L26.5628821,45.7872885 C26.2722331,45.6284516 25.9841083,45.4672074 25.6985073,45.3035559 L25.2013361,46.1712083 Z M26.9865246,47.1466456 C27.2837785,47.301428 27.5835053,47.4538105 27.8857044,47.6037932 L28.3302678,46.7080458 C28.0338483,46.5609315 27.7398829,46.4114781 27.4483711,46.2596858 L26.9865246,47.1466456 Z M28.80555,48.0492986 C29.1084008,48.1924085 29.4136541,48.3331857 29.7213095,48.4716304 L30.1316737,47.5597087 C29.8296583,47.423802 29.5300316,47.2856196 29.2327931,47.1451618 L28.80555,48.0492986 Z M30.6603934,48.8837819 C30.9683314,49.0155631 31.2786012,49.1450795 31.5912025,49.2723314 L31.9682345,48.3461312 C31.6611103,48.2211088 31.3563081,48.0938748 31.0538277,47.9644292 L30.6603934,48.8837819 Z M32.5439796,49.6503793 C32.8562158,49.7711052 33.1707093,49.8896385 33.4874598,50.0059794 L33.8322343,49.0672939 C33.5207755,48.9528966 33.2115677,48.8363555 32.9046107,48.7176708 L32.5439796,49.6503793 Z M34.3293304,50.3081684 C34.6452686,50.4189704 34.9633968,50.5276451 35.2837146,50.6341927 L35.5993424,49.6853096 C35.2841338,49.5804615 34.9711116,49.473531 34.6602756,49.3645185 L34.3293304,50.3081684 Z M36.2438611,50.9451302 C36.5628021,51.0456523 36.8838562,51.144122 37.2070232,51.2405394 L37.4929215,50.2822794 C37.1746555,50.1873243 36.8585015,50.0903575 36.5444593,49.9913793 L36.2438611,50.9451302 Z M38.1786998,51.5224608 C38.5005695,51.6132386 38.8244816,51.7020328 39.1504361,51.7888436 L39.4077931,50.8225272 C39.0865334,50.7369667 38.7673168,50.6494598 38.4501434,50.5600065 L38.1786998,51.5224608 Z M40.1314061,52.0425677 C40.4554007,52.1239097 40.7813637,52.2033403 41.1092951,52.2808598 L41.3393443,51.3076808 C41.0158951,51.2312208 40.6944166,51.152883 40.3749088,51.0726675 L40.1314061,52.0425677 Z M42.0940851,52.5065948 C42.4202614,52.5790511 42.7483394,52.6496613 43.0783192,52.7184256 L43.282326,51.7394561 C42.9566247,51.6715834 42.6328286,51.6018948 42.3109376,51.5303905 L42.0940851,52.5065948 Z M44.0696367,52.9183372 C44.3975238,52.9822792 44.7272464,53.04444 45.0588045,53.1048197 L45.2379669,52.1210001 C44.9104859,52.0613629 44.5848448,51.9999716 44.2610433,51.9368264 L44.0696367,52.9183372 Z M46.0557646,53.2800698 C46.384745,53.3358417 46.7154935,53.3898983 47.0480099,53.4422399 L47.2035058,52.4544034 C46.8748674,52.4026722 46.5480018,52.3492502 46.2229091,52.2941374 L46.0557646,53.2800698 Z M48.0443397,53.59317 C48.3746152,53.6412659 48.7065989,53.6877052 49.0402908,53.7324881 L49.1733024,52.7413736 C48.8433026,52.6970863 48.5150163,52.6511642 48.1884434,52.6036074 L48.0443397,53.59317 Z M50.0447822,53.8616569 C50.3759631,53.9024039 50.708793,53.9415523 51.0432719,53.9791022 L51.1548348,52.9853448 C50.8238677,52.9481892 50.4945551,52.9094545 50.1668969,52.8691409 L50.0447822,53.8616569 Z M52.0491691,54.0867034 C52.381011,54.1204613 52.7144448,54.1526764 53.0494706,54.1833489 L53.1406418,53.1875136 C52.8089556,53.1571469 52.4788668,53.125255 52.1503755,53.091838 L52.0491691,54.0867034 Z M54.0553708,54.2704159 C54.3878539,54.2975489 54.7218758,54.3231911 55.0574365,54.3473425 L55.1292242,53.3499226 C54.7968408,53.3259998 54.4660019,53.300602 54.1367075,53.2737292 L54.0553708,54.2704159 Z M56.0612978,54.4148595 C56.3941115,54.4356882 56.7284121,54.455077 57.0641995,54.4730259 L57.1175765,53.4744515 C56.7848117,53.4566642 56.4535394,53.437451 56.1237594,53.4168121 L56.0612978,54.4148595 Z M58.0713573,54.5223455 C58.4043907,54.5371735 58.7388616,54.5506099 59.0747698,54.5626548 L59.1106044,53.5632971 C58.7775725,53.5513553 58.4459835,53.5380347 58.1158374,53.5233352 L58.0713573,54.5223455 Z M60.0838688,54.5945345 C60.4171037,54.6036528 60.7517296,54.6114248 61.0877465,54.6178506 L61.1068663,53.6180334 C60.7735884,53.61166 60.4417068,53.6039517 60.1112216,53.5949087 L60.0838688,54.5945345 Z M62.0971789,54.6330583 C62.430473,54.6367383 62.7651136,54.6391155 63.1011006,54.6401899 L63.1042983,53.640195 C62.7709204,53.639129 62.4388941,53.6367704 62.1082195,53.6331193 L62.0971789,54.6330583 Z"></path>
                </g>
            </g>
        </g>
    </g>
</svg>