<?xml version="1.0" encoding="UTF-8"?>
<svg width="17px" height="17px" viewBox="0 0 17 17" version="1.1" xmlns="http://www.w3.org/2000/svg" xmlns:xlink="http://www.w3.org/1999/xlink">
    <!-- Generator: Sketch 51.2 (57519) - http://www.bohemiancoding.com/sketch -->
    <title>Shape</title>
    <desc>Created with Sketch.</desc>
    <defs></defs>
    <g id="Layout.Desktop" stroke="none" stroke-width="1" fill="none" fill-rule="evenodd">
        <g id="Главная" transform="translate(-1045.000000, -1391.000000)" fill="#FFFFFF" fill-rule="nonzero">
            <g id="services" transform="translate(-1.000000, 1307.000000)">
                <path d="M1062.9919,97.4162903 C1063.02792,97.6924492 1062.94382,97.9325618 1062.73994,98.1366281 L1060.34638,100.513654 C1060.2384,100.633711 1060.09745,100.735847 1059.92349,100.819798 C1059.74952,100.903867 1059.57858,100.957892 1059.41067,100.981874 C1059.39867,100.981874 1059.36259,100.984964 1059.30257,100.990966 C1059.24267,100.99694 1059.16468,101 1059.0687,101 C1058.84068,101 1058.47172,100.960982 1057.96182,100.882916 C1057.45191,100.80485 1056.82805,100.61273 1056.09025,100.306646 C1055.35226,100.000502 1054.51544,99.5412278 1053.57965,98.9289996 C1052.64385,98.3168008 1051.648,97.4763479 1050.59219,96.4078175 C1049.75234,95.5794291 1049.05647,94.7870576 1048.50457,94.0307324 C1047.95267,93.2743484 1047.50875,92.5750205 1047.17282,91.9327193 C1046.83685,91.2904182 1046.58489,90.7081452 1046.41692,90.1859003 C1046.24895,89.6636555 1046.13498,89.2134444 1046.07499,88.8352671 C1046.015,88.4570897 1045.991,88.1599504 1046.003,87.9438491 C1046.015,87.7277478 1046.021,87.6076915 1046.021,87.5836802 C1046.04499,87.4156014 1046.09898,87.2445212 1046.18297,87.0704396 C1046.26695,86.896358 1046.36893,86.7552918 1046.48891,86.6472412 L1048.88247,84.2521182 C1049.05044,84.0840394 1049.24241,84 1049.45837,84 C1049.61434,84 1049.75231,84.0450211 1049.87229,84.1350633 C1049.99227,84.2251055 1050.09425,84.3361576 1050.17824,84.4682195 L1052.10389,88.1239335 C1052.21187,88.3160236 1052.24186,88.5261221 1052.19387,88.7542291 C1052.14588,88.982336 1052.0439,89.1744261 1051.88792,89.3304992 L1051.00609,90.212913 C1050.98209,90.2369242 1050.96109,90.2759425 1050.9431,90.3299679 C1050.9251,90.3839932 1050.9161,90.4290143 1050.9161,90.4650312 C1050.96409,90.7171494 1051.07207,91.0052845 1051.24004,91.3294365 C1051.38402,91.6175716 1051.60598,91.9687362 1051.90592,92.3829304 C1052.20587,92.7971246 1052.63179,93.2743189 1053.18369,93.8145722 C1053.72359,94.36689 1054.2035,94.7960324 1054.62343,95.1022348 C1055.04326,95.4082606 1055.39431,95.6334544 1055.67626,95.777522 C1055.95821,95.9215895 1056.17417,96.0086303 1056.32411,96.0385561 L1056.54901,96.0836067 C1056.57301,96.0836067 1056.61209,96.074573 1056.66602,96.056594 C1056.72001,96.0385561 1056.75901,96.0175757 1056.78303,95.993535 L1057.80881,94.9490453 C1058.02489,94.7569847 1058.27673,94.6609396 1058.56471,94.6609396 C1058.76873,94.6609396 1058.93061,94.6969271 1059.05059,94.7689903 L1062.54189,96.8219529" id="Shape"></path>
            </g>
        </g>
    </g>
</svg>